<svg width="16" height="18" viewBox="0 0 16 18" fill="none" xmlns="http://www.w3.org/2000/svg">
<path d="M16 5.06654H13.4739C12.9859 4.11097 12.229 3.32129 11.2996 2.79041L12.6373 1.2741L11.1934 0L9.31784 2.1235C9.07884 2.09364 8.83983 2.07041 8.59419 2.07041H7.44564C7.11037 2.07041 6.78506 2.10359 6.46639 2.16332L4.36183 0.0597235L3.00083 1.42009L4.50788 2.92645C3.68465 3.45069 3.01079 4.18728 2.56266 5.05991H0.039834V6.99097H1.9917C1.97178 7.17677 1.96183 7.36258 1.96183 7.55171V9.07465H0V10.9991H1.96515V12.522C1.96515 12.6979 1.9751 12.8704 1.9917 13.0429H0V14.9674H2.54606C3.44564 16.7624 5.29792 18 7.44564 18H8.59419C10.7419 18 12.5942 16.7624 13.4938 14.9674H15.9602V13.0429H14.0481C14.0647 12.8704 14.0747 12.6979 14.0747 12.522V10.9991H15.9602V9.07465H14.0747V7.55171C14.0747 7.36258 14.0647 7.17346 14.0448 6.99097H15.9967V5.06654H16ZM10.0415 12.9832H6.00166V11.0588H10.0415V12.9832ZM10.0415 8.66323H6.00166V6.7388H10.0415V8.66323Z" fill="#696D78"/>
</svg>
