<svg width="16" height="10" viewBox="0 0 16 10" fill="none" xmlns="http://www.w3.org/2000/svg">
<path d="M7.73333 9.92308C7.8 10 7.93333 10 8 10C8.2 10 8.33333 9.92308 8.46667 9.76923L15.8 1.30769C15.9333 1.15385 16 1 16 0.769231C16 0.307692 15.7333 -1.16564e-08 15.3333 -2.91409e-08C15.1333 -3.78832e-08 15 0.0769232 14.8667 0.230769L8 8.15385L1.13333 0.230769C1 0.0769226 0.866666 -6.61499e-07 0.666666 -6.70241e-07C0.266666 -6.87726e-07 -1.34497e-08 0.307692 -3.36241e-08 0.76923C-4.37114e-08 0.999999 0.0666655 1.15385 0.199999 1.30769L7.53333 9.76923C7.6 9.84615 7.66667 9.92308 7.73333 9.92308Z"/>
</svg>
