<svg width="10" height="16" viewBox="0 0 10 16" fill="none" xmlns="http://www.w3.org/2000/svg">
<path d="M0.0769226 7.73333C-7.16867e-07 7.8 -7.0521e-07 7.93333 -6.99382e-07 8C-6.81898e-07 8.2 0.0769217 8.33333 0.230768 8.46667L8.69231 15.8C8.84615 15.9333 9 16 9.23077 16C9.69231 16 10 15.7333 10 15.3333C10 15.1333 9.92308 15 9.76923 14.8667L1.84615 8L9.76923 1.13333C9.92308 1 10 0.866666 10 0.666666C10 0.266666 9.69231 2.68993e-08 9.23077 6.72483e-08C9 8.74228e-08 8.84615 0.0666658 8.69231 0.199999L0.230767 7.53333C0.153845 7.6 0.0769226 7.66667 0.0769226 7.73333Z"/>
</svg>
