<svg width="8" height="12" viewBox="0 0 8 12" fill="none" xmlns="http://www.w3.org/2000/svg">
<path d="M7.44788 6.2C7.50558 6.15 7.50558 6.05 7.50558 6C7.50558 5.85 7.44788 5.75 7.33247 5.65L0.984895 0.15C0.869484 0.0500002 0.754074 1.31164e-07 0.580958 1.00895e-07C0.234727 4.0358e-08 0.00390622 0.2 0.00390616 0.5C0.00390614 0.65 0.0616114 0.75 0.177022 0.85L6.12066 6L0.17702 11.15C0.0616096 11.25 0.00390427 11.35 0.00390424 11.5C0.00390419 11.8 0.234725 12 0.580956 12C0.754072 12 0.869482 11.95 0.984893 11.85L7.33247 6.35C7.39017 6.3 7.44788 6.25 7.44788 6.2Z"/>
</svg>
