<svg width="16" height="16" viewBox="0 0 16 16" fill="none" xmlns="http://www.w3.org/2000/svg">
<path d="M8 0C3.6 0 0 3.6 0 8C0 12.4 3.6 16 8 16C12.4 16 16 12.4 16 8C16 3.6 12.4 0 8 0ZM14.0667 5.26667L8.93333 7C8.86667 7 8.8 7 8.73333 7C8.66667 7 8.66667 6.86667 8.66667 6.8V1.4C11.0667 1.6 13.0667 3.13333 14.0667 5.26667ZM8 14.6667C4.33333 14.6667 1.33333 11.6667 1.33333 8C1.33333 4.53333 4 1.73333 7.33333 1.4V6.8C7.33333 7.26667 7.6 7.73333 8 8.06667C8.26667 8.26667 8.6 8.33333 8.86667 8.33333C9 8.33333 9.2 8.33333 9.33333 8.26667L14.4667 6.53333C14.6 7 14.6667 7.53333 14.6667 8.06667C14.6667 11.6667 11.6667 14.6667 8 14.6667Z"/>
</svg>
