<svg width="17" height="16" viewBox="0 0 17 16" fill="none" xmlns="http://www.w3.org/2000/svg">
<path d="M15.802 14.8667L8.93529 8L15.802 1.13333C16.0686 0.866667 16.0686 0.466667 15.802 0.2C15.5353 -0.0666667 15.1353 -0.0666667 14.8686 0.2L8.00195 7.06667L1.13529 0.2C0.86862 -0.0666667 0.46862 -0.0666667 0.201953 0.2C-0.0647135 0.466667 -0.0647135 0.866667 0.201953 1.13333L7.06862 8L0.201953 14.8667C-0.0647135 15.1333 -0.0647135 15.5333 0.201953 15.8C0.46862 16.0667 0.86862 16.0667 1.13529 15.8L8.00195 8.93333L14.8686 15.8C15.1353 16.0667 15.5353 16.0667 15.802 15.8C16.0686 15.5333 16.0686 15.1333 15.802 14.8667Z"/>
</svg>
