<svg width="18" height="16" viewBox="0 0 18 16" fill="none" xmlns="http://www.w3.org/2000/svg">
<path d="M17.775 14.8667L10.05 8L17.775 1.13333C18.075 0.866667 18.075 0.466667 17.775 0.2C17.475 -0.0666667 17.025 -0.0666667 16.725 0.2L9 7.06667L1.275 0.2C0.975 -0.0666667 0.525 -0.0666667 0.225 0.2C-0.075 0.466667 -0.075 0.866667 0.225 1.13333L7.95 8L0.225 14.8667C-0.075 15.1333 -0.075 15.5333 0.225 15.8C0.525 16.0667 0.975 16.0667 1.275 15.8L9 8.93333L16.725 15.8C17.025 16.0667 17.475 16.0667 17.775 15.8C18.075 15.5333 18.075 15.1333 17.775 14.8667Z"/>
</svg>
