<svg width="24" height="24" viewBox="0 0 24 24" fill="none" xmlns="http://www.w3.org/2000/svg">
<path d="M8.09993 11.6C8.19993 11.5 8.19993 11.4 8.29993 11.3L12.4999 7.09999C12.8999 6.69999 13.4999 6.69999 13.8999 7.09999C14.2999 7.49999 14.2999 8.09999 13.8999 8.49999L11.3999 11H22.9999C23.5999 11 23.9999 11.4 23.9999 12C23.9999 12.6 23.5999 13 22.9999 13H11.3999L13.8999 15.5C14.2999 15.9 14.2999 16.5 13.8999 16.9C13.4999 17.3 12.8999 17.3 12.4999 16.9L8.29993 12.7C8.19993 12.6 8.09993 12.5 8.09993 12.4C7.99993 12.1 7.99993 11.9 8.09993 11.6Z"/>
<path d="M4 24C1.8 24 0 22.2 0 20V4C0 1.8 1.8 0 4 0C6.2 0 8 1.8 8 4V20C8 22.2 6.2 24 4 24ZM4 2C2.9 2 2 2.9 2 4V20C2 21.1 2.9 22 4 22C5.1 22 6 21.1 6 20V4C6 2.9 5.1 2 4 2Z"/>
</svg>
