<svg width="95" height="84" viewBox="0 0 95 84" fill="none" xmlns="http://www.w3.org/2000/svg">
<path d="M92.6468 66.4186L57.2779 5.86046C55.313 2.34419 51.3831 0 47.0602 0C42.7374 0 38.8075 2.34419 36.8426 5.86046L1.4737 66.4186C-0.491234 69.9349 -0.491234 74.6233 1.4737 78.1395C3.83163 81.6558 7.36851 84 11.6914 84H82.4291C86.752 84 90.6818 81.6558 92.6468 78.1395C94.6117 74.2326 94.6117 69.9349 92.6468 66.4186ZM85.966 74.2326C85.573 75.014 84.787 76.186 82.4291 76.186H11.6914C9.72644 76.186 8.54748 74.6233 8.15449 74.2326C7.7615 73.8419 6.97553 71.8884 8.15449 70.3256L43.5234 9.76744C44.7023 7.81395 46.2743 7.81395 47.0602 7.81395C47.8462 7.81395 49.4182 7.81395 50.5971 9.76744L85.966 70.3256C86.752 71.8884 85.966 73.4512 85.966 74.2326Z"/>
<path d="M60.426 48.0559C63.177 45.321 63.9629 41.0233 62.391 37.507L56.4962 43.3675C56.4962 43.3675 53.3523 43.7582 51.7803 42.5861C50.2084 41.0233 50.9944 37.8977 50.9944 37.8977L56.8892 32.0373C53.3523 30.4745 49.0294 31.2559 46.2785 33.9907C43.5276 37.1163 42.3486 41.0233 43.9206 44.9303L27.8081 59.3861C26.6291 60.5582 23.0922 62.9024 24.6642 66.8093C24.2712 66.4186 25.0572 67.2 24.6642 66.8093C26.6291 68.7628 27.8081 69.9349 28.2011 70.3256C32.131 71.8884 34.4889 67.9814 35.6678 66.8093L50.2084 50.7907C53.3523 51.9628 57.2822 51.1814 60.426 48.0559Z"/>
</svg>
