<svg width="14" height="14" viewBox="0 0 14 14" fill="none" xmlns="http://www.w3.org/2000/svg">
<path d="M13.415 0.916119C13.0936 0.609992 12.5477 0.609992 12.1937 0.916119L6.82797 6.02813L1.46226 0.916119C1.14094 0.609992 0.594955 0.609992 0.24099 0.916119C-0.0803298 1.22225 -0.0803298 1.74242 0.24099 2.07965L5.6067 7.19166L0.24099 12.3037C-0.0803298 12.6098 -0.0803298 13.13 0.24099 13.4672C0.401649 13.6203 0.626316 13.7123 0.850982 13.7123C1.07565 13.7123 1.30031 13.6203 1.46097 13.4672L6.82797 8.35519L12.1937 13.4672C12.3543 13.6203 12.579 13.7123 12.8037 13.7123C13.0284 13.7123 13.253 13.6203 13.4137 13.4672C13.735 13.1611 13.735 12.6409 13.4137 12.3037L8.04924 7.19166L13.415 2.07965C13.7363 1.77352 13.7363 1.25335 13.415 0.916119Z" />
</svg>
