<svg width="24" height="24" viewBox="0 0 24 24" fill="none" xmlns="http://www.w3.org/2000/svg">
<path d="M14.0999 11.4C13.3999 11.4 12.8999 12 12.8999 12.7C12.8999 13.4 13.3999 14 14.0999 14C14.7999 14 15.2999 13.4 15.2999 12.7C15.2999 12 14.7999 11.4 14.0999 11.4Z" />
<path d="M9.80013 11.4C9.10013 11.4 8.60013 12 8.60013 12.7C8.60013 13.4 9.10013 14 9.80013 14C10.5001 14 11.0001 13.4 11.0001 12.7C11.0001 12 10.5001 11.4 9.80013 11.4Z" />
<path d="M12 0C5.4 0 0 5.4 0 12C0 18.6 5.4 24 12 24C18.6 24 24 18.6 24 12C24 5.4 18.6 0 12 0ZM15.3 17L14.5 16C16.1 15.6 16.7 14.6 16.7 14.6C16.2 14.9 15.7 15.1 15.3 15.3C14.7 15.5 14.1 15.7 13.6 15.8C12.5 16 11.4 16 10.5 15.8C9.8 15.7 9.2 15.5 8.7 15.3C8.4 15.2 8.1 15.1 7.8 14.9L7.5 14.7C7.5 14.7 8.1 15.7 9.6 16.1L8.8 17.1C6 16.9 5 15.2 5 15.2C5 11.4 6.7 8.3 6.7 8.3C8.5 7 10.1 7 10.1 7L10.2 7.1C8.1 7.8 7.1 8.7 7.1 8.7L7.8 8.4C9.1 7.8 10.1 7.7 10.5 7.6H10.7C11.4 7.5 12.2 7.5 13.1 7.6C14.2 7.7 15.4 8.1 16.7 8.7C16.7 8.7 15.8 7.8 13.7 7.2L13.9 7C13.9 7 15.5 7 17.2 8.2C17.2 8.2 18.9 11.3 18.9 15.1C19 15.2 17.9 16.9 15.3 17Z" />
</svg>
