<svg width="16" height="17" viewBox="0 0 16 17" fill="none" xmlns="http://www.w3.org/2000/svg">
<path d="M16 17L11.8 13.3043L12.304 14.7826H2C1.46957 14.7826 0.960859 14.5879 0.585786 14.2414C0.210714 13.8949 0 13.4249 0 12.9348V1.84783C0 1.35775 0.210714 0.88775 0.585786 0.541216C0.960859 0.194681 1.46957 0 2 0H14C14.5304 0 15.0391 0.194681 15.4142 0.541216C15.7893 0.88775 16 1.35775 16 1.84783V17ZM8 4.28696C5.856 4.28696 4.352 5.13696 4.352 5.13696C5.176 4.45696 6.616 4.06522 6.616 4.06522L6.48 3.93957C5.128 3.96174 3.904 4.82652 3.904 4.82652C2.528 7.48 2.616 9.7713 2.616 9.7713C3.736 11.1091 5.4 11.013 5.4 11.013L5.968 10.3478C4.968 10.1483 4.336 9.32783 4.336 9.32783C4.336 9.32783 5.84 10.2739 8 10.2739C10.16 10.2739 11.664 9.32783 11.664 9.32783C11.664 9.32783 11.032 10.1483 10.032 10.3478L10.6 11.013C10.6 11.013 12.264 11.1091 13.384 9.7713C13.384 9.7713 13.472 7.48 12.096 4.82652C12.096 4.82652 10.872 3.96174 9.52 3.93957L9.384 4.06522C9.384 4.06522 10.824 4.45696 11.648 5.13696C11.648 5.13696 10.144 4.28696 8 4.28696ZM6.344 7.08826C6.864 7.08826 7.288 7.50956 7.28 8.02696C7.28 8.53696 6.864 8.96565 6.344 8.96565C5.832 8.96565 5.416 8.53696 5.416 8.02696C5.416 7.50956 5.824 7.08826 6.344 7.08826ZM9.68 7.08826C10.2 7.08826 10.616 7.50956 10.616 8.02696C10.616 8.53696 10.2 8.96565 9.68 8.96565C9.168 8.96565 8.752 8.53696 8.752 8.02696C8.752 7.50956 9.16 7.08826 9.68 7.08826Z" fill="#696D78"/>
</svg>
