<svg width="22" height="20" viewBox="0 0 22 20" fill="none" xmlns="http://www.w3.org/2000/svg">
<path d="M14.4648 1.98809L21.467 14.0932C22.9919 16.7299 21.0614 20 18.0022 20H3.99841C0.938625 20 -0.992497 16.7303 0.533538 14.0932L4.78198 10.4016L2.12355 14.9979C1.30533 16.4116 2.33447 18.1819 3.99841 18.1819H18.0022C19.6649 18.1819 20.6947 16.412 19.877 14.998L13.0583 3.21002L14.4648 1.98809Z" fill="#FF0000"/>
<path d="M13.0583 3.21002L14.4648 1.98809C12.9321 -0.6626 9.06764 -0.662752 7.53495 1.98797L0.533538 14.0932L4.78198 10.4016L9.12497 2.89269C9.95329 1.46002 12.0463 1.4599 12.8746 2.89256L13.0583 3.21002Z" fill="#FF0000"/>
<path d="M11.0003 5.4548C11.5065 5.4548 11.9168 5.86181 11.9168 6.36388V11.8183C11.9168 12.3204 11.5065 12.7274 11.0003 12.7274C10.4941 12.7274 10.0837 12.3204 10.0837 11.8183V6.36388C10.0837 5.86181 10.4941 5.4548 11.0003 5.4548Z" fill="#FF0000"/>
<path d="M11.9168 15.4546C11.9168 14.9526 11.5065 14.5455 11.0003 14.5455C10.4941 14.5455 10.0837 14.9526 10.0837 15.4546V15.4637C10.0837 15.9658 10.4941 16.3728 11.0003 16.3728C11.5065 16.3728 11.9168 15.9658 11.9168 15.4637V15.4546Z" fill="#FF0000"/>
</svg>
