<svg width="24" height="24" viewBox="0 0 24 24" fill="none" xmlns="http://www.w3.org/2000/svg">
<path d="M7.1 14.8L7.2 14.9L10.9 17.1V12.6L7.1 10.3V14.8Z" />
<path d="M12.1 6.3H11.9L8.2 8.4L12 10.7L15.8 8.4L12.1 6.3Z" />
<path d="M13.1 17.1L16.8 14.9L16.9 14.8V10.3L13.1 12.6V17.1Z" />
<path d="M20 0H4C1.8 0 0 1.8 0 4V20C0 22.2 1.8 24 4 24H20C22.2 24 24 22.2 24 20V4C24 1.8 22.2 0 20 0ZM19 14.7C19 15.1 18.9 15.6 18.7 15.9C18.5 16.3 18.2 16.6 17.8 16.8L13.2 19.5C13.2 19.5 12.5 19.9 12 19.9C11.5 19.9 10.8 19.5 10.8 19.5L6.2 16.8C5.8 16.6 5.5 16.3 5.3 15.9C5.1 15.6 5 15.2 5 14.7V9.2C5 8.8 5.2 8.3 5.3 7.9C5.4 7.6 5.9 7.2 6.2 7L10.8 4.3C11.2 4.1 11.6 4 12 4C12.4 4 12.8 4.1 13.2 4.3L17.8 7C18.1 7.2 18.4 7.5 18.7 7.9C18.9 8.3 19 8.9 19 9.2V14.7Z" />
</svg>
