<svg width="24" height="24" viewBox="0 0 24 24" fill="none" xmlns="http://www.w3.org/2000/svg">
<path d="M20.7123 0H3.28767C1.47194 0 0 1.47194 0 3.28767V20.7123C0 22.5281 1.47194 24 3.28767 24H20.7123C22.5281 24 24 22.5281 24 20.7123V3.28767C24 1.47194 22.5281 0 20.7123 0Z"/>
<path d="M12 19.9997C11.8491 20.0003 11.6999 19.9662 11.5631 19.8997C11.2961 19.8491 11.0396 19.751 10.8045 19.6098L6.19547 16.8705C5.83329 16.6492 5.53227 16.334 5.32167 15.9557C5.11068 15.5796 4.99966 15.1517 5 14.7161V9.21751C4.99991 8.84381 5.0803 8.47486 5.23525 8.13779C5.26007 8.07097 5.28894 8.00585 5.32167 7.94284C5.36304 7.87127 5.4113 7.80427 5.46571 7.74289C5.66274 7.47218 5.90909 7.24457 6.19067 7.07307L10.8093 4.32878C11.1755 4.11326 11.589 4 12.0096 4C12.4302 4 12.8437 4.11326 13.2099 4.32878L17.8189 7.07307C18.0986 7.2476 18.3419 7.47877 18.5343 7.75289C18.5887 7.81427 18.637 7.88127 18.6783 7.95284C18.7115 8.01492 18.7389 8.08021 18.7599 8.14779C18.9183 8.48381 19.0004 8.85321 19 9.2275V14.7261C19.0003 15.1617 18.8893 15.5896 18.6783 15.9657C18.4716 16.3459 18.1696 16.6603 17.8045 16.8755L13.1907 19.6248C12.9568 19.7636 12.7019 19.86 12.4369 19.9097C12.2994 19.9728 12.1502 20.0035 12 19.9997ZM7.13649 10.3322V14.7161C7.13555 14.7618 7.14721 14.8069 7.1701 14.846C7.19294 14.8847 7.22419 14.9172 7.26132 14.941L10.9342 17.1254V12.6266L7.13649 10.3322ZM13.0706 12.6166V17.1154L16.7435 14.926C16.779 14.9039 16.8087 14.873 16.8299 14.836C16.8528 14.7969 16.8644 14.7518 16.8635 14.7061V10.3322L13.0706 12.6166ZM8.23114 8.42271L12 10.6921L15.7689 8.42271L12.1296 6.25828C12.0909 6.23503 12.0471 6.22278 12.0024 6.22278C11.9577 6.22278 11.9139 6.23503 11.8752 6.25828L8.23114 8.42271Z" fill="white"/>
</svg>
