<svg width="24" height="18" viewBox="0 0 24 18" fill="none" xmlns="http://www.w3.org/2000/svg">
<path d="M1.17073 0C0.523639 0 0 0.53673 0 1.2C0 1.86327 0.523639 2.4 1.17073 2.4H22.8293C23.4764 2.4 24 1.86327 24 1.2C24 0.53673 23.4764 0 22.8293 0H1.17073ZM1.17073 7.8C0.523639 7.8 0 8.33673 0 9C0 9.66327 0.523639 10.2 1.17073 10.2H22.8293C23.4764 10.2 24 9.66327 24 9C24 8.33673 23.4764 7.8 22.8293 7.8H1.17073ZM1.17073 15.6C0.523639 15.6 0 16.1367 0 16.8C0 17.4633 0.523639 18 1.17073 18H22.8293C23.4764 18 24 17.4633 24 16.8C24 16.1367 23.4764 15.6 22.8293 15.6H1.17073Z" fill="white"/>
</svg>
