<svg width="16" height="16" viewBox="0 0 16 16" fill="none" xmlns="http://www.w3.org/2000/svg">
<path d="M13.3333 0H2.66667C1.2 0 0 1.2 0 2.66667V13.3333C0 14.8 1.2 16 2.66667 16H13.3333C14.8 16 16 14.8 16 13.3333V2.66667C16 1.2 14.8 0 13.3333 0ZM8.53333 13.3333C8.33333 13.5333 8 13.6667 7.66667 13.6667C7.33333 13.6667 7.06667 13.5333 6.86667 13.3333C6.66667 13.1333 6.53333 12.8667 6.53333 12.5333C6.53333 12.2 6.66667 11.9333 6.86667 11.7333C7.06667 11.5333 7.33333 11.4 7.66667 11.4C8 11.4 8.26667 11.5333 8.53333 11.7333C8.73333 11.9333 8.86667 12.2 8.86667 12.5333C8.86667 12.8667 8.8 13.1333 8.53333 13.3333ZM11.0667 6.13333C11 6.4 10.8667 6.66667 10.6667 6.86667C10.4667 7.06667 10.3333 7.26667 10.2 7.4C10.0667 7.53333 9.86667 7.66667 9.6 7.86667C9.33333 8.06667 9.2 8.2 9.13333 8.26667C9.06667 8.33333 8.93333 8.46667 8.8 8.6C8.66667 8.73333 8.6 8.86667 8.53333 8.93333C8.46667 9 8.46667 9.13333 8.4 9.26667C8.33333 9.4 8.33333 9.6 8.33333 9.73333V10.2H6.93333V9.53333C6.93333 9.26667 6.93333 9 7.06667 8.73333C7.13333 8.46667 7.26667 8.26667 7.4 8.06667C7.53333 7.86667 7.73333 7.66667 7.86667 7.53333C8 7.4 8.2 7.2 8.46667 7.06667C8.66667 6.86667 8.86667 6.73333 9 6.66667C9.13333 6.6 9.2 6.46667 9.33333 6.26667C9.46667 6.13333 9.53333 5.93333 9.6 5.8C9.66667 5.66667 9.66667 5.46667 9.66667 5.26667C9.66667 4.73333 9.46667 4.33333 9.13333 4.06667C8.8 3.8 8.33333 3.66667 7.86667 3.66667C7.26667 3.66667 6.8 3.86667 6.46667 4.2C6.13333 4.66667 5.93333 5.13333 5.93333 5.66667H4.53333C4.53333 5.2 4.6 4.8 4.73333 4.4C4.86667 4 5.06667 3.73333 5.26667 3.46667C5.46667 3.26667 5.73333 3.06667 6.06667 2.86667C6.33333 2.8 6.66667 2.66667 7 2.6C7.33333 2.53333 7.6 2.53333 7.93333 2.53333C8.26667 2.53333 8.6 2.6 8.93333 2.66667C9.26667 2.73333 9.53333 2.86667 9.8 3C10.0667 3.13333 10.3333 3.33333 10.5333 3.53333C10.7333 3.73333 10.9333 4 11 4.33333C11.0667 4.66667 11.2 5 11.2 5.33333C11.1333 5.6 11.1333 5.86667 11.0667 6.13333Z"/>
</svg>
