<svg width="24" height="24" viewBox="0 0 24 24" fill="none" xmlns="http://www.w3.org/2000/svg">
<path d="M12 10.1667C12.5063 10.1667 12.9167 10.5771 12.9167 11.0833V17.5C12.9167 18.0063 12.5063 18.4167 12 18.4167C11.4937 18.4167 11.0833 18.0063 11.0833 17.5V11.0833C11.0833 10.5771 11.4937 10.1667 12 10.1667Z"/>
<path d="M12.9167 7.40771C12.9167 6.90145 12.5063 6.49105 12 6.49105C11.4937 6.49105 11.0833 6.90145 11.0833 7.40771V7.41688C11.0833 7.92314 11.4937 8.33355 12 8.33355C12.5063 8.33355 12.9167 7.92314 12.9167 7.41688V7.40771Z"/>
<path fill-rule="evenodd" clip-rule="evenodd" d="M1 12C1 5.92499 5.92499 1 12 1C18.075 1 23 5.92499 23 12C23 18.075 18.075 23 12 23C5.92499 23 1 18.075 1 12ZM12 2.83333C6.93751 2.83333 2.83333 6.93751 2.83333 12C2.83333 17.0625 6.93751 21.1667 12 21.1667C17.0625 21.1667 21.1667 17.0625 21.1667 12C21.1667 6.93751 17.0625 2.83333 12 2.83333Z"/>
</svg>
