<svg width="24" height="25" viewBox="0 0 24 25" fill="none" xmlns="http://www.w3.org/2000/svg">
<path d="M19 0.675781H5C2.2 0.675781 0 2.87083 0 5.66452V19.633C0 22.4267 2.2 24.6217 5 24.6217H19C21.8 24.6217 24 22.4267 24 19.633V5.66452C24 2.87083 21.8 0.675781 19 0.675781ZM22 19.633C22 21.3292 20.7 22.6262 19 22.6262H5C3.3 22.6262 2 21.3292 2 19.633V5.66452C2 3.96835 3.3 2.67128 5 2.67128H19C20.7 2.67128 22 3.96835 22 5.66452V19.633Z"/>
<path d="M13.2 14.2452C13.2 14.2452 17 15.0434 18.8 17.837C19.2001 18.4357 19.2001 19.1341 18.8 19.7328C19.6 18.735 20.1 17.7373 20.5001 16.54C19.9001 15.8415 15.4 11.9503 13.2 14.2452Z"/>
<path d="M21.0001 11.4515C20.9001 10.8528 20.8001 10.3539 20.6001 9.85506C20.6001 10.2542 20.3001 10.6533 19.9001 10.6533C19.0001 10.6533 18.0001 10.6533 17.4001 10.9526L19.2001 8.45821C19.1001 8.45821 15.1001 10.4537 13.3001 10.753C13.3001 10.753 16.0001 7.75979 15.8001 5.66452C15.8001 5.66452 14.0001 8.45821 11.1001 9.65551C8.2001 10.8528 7.4001 11.651 7.4001 11.651C7.4001 11.651 6.6001 15.642 2.9001 15.3427C2.9001 15.3427 3.3001 17.837 6.2001 17.9368C6.2001 17.9368 6.3001 16.2406 9.7001 16.7395C9.7001 16.7395 10.4001 15.0433 14.0001 16.2406C13.9001 16.2406 11.6001 14.1454 13.1001 13.2474C14.6001 12.3494 18.5001 13.1476 20.7001 16.4402C21.0001 15.4424 21.2001 14.3449 21.2001 13.2474C21.2001 12.8483 21.2001 12.549 21.1001 12.1499C21.0001 11.9503 21.0001 11.651 21.0001 11.4515ZM9.2001 12.549L8.3001 12.8483V12.9481C8.2001 13.0479 8.0001 13.2474 7.7001 13.2474L8.2001 12.3494C8.8001 12.3494 9.4001 11.2519 9.4001 11.2519C9.8001 11.651 9.2001 12.549 9.2001 12.549Z"/>
</svg>
