<svg width="24" height="24" viewBox="0 0 24 24" fill="none" xmlns="http://www.w3.org/2000/svg">
<path d="M19 0H5C2.2 0 0 2.2 0 5V19C0 21.8 2.2 24 5 24H19C21.8 24 24 21.8 24 19V5C24 2.2 21.8 0 19 0ZM22 19C22 20.7 20.7 22 19 22H5C3.3 22 2 20.7 2 19V5C2 3.3 3.3 2 5 2H19C20.7 2 22 3.3 22 5V19Z"/>
<path d="M7.79989 6.7C7.39989 7.1 7.19989 7.7 7.19989 8.5V9.3H5.79989V10.7H7.19989V17.5H8.89989V10.7H10.7999V9.3H8.89989V8.7C8.89989 8.2 8.99989 8 9.19989 7.8C9.39989 7.6 9.69989 7.6 10.1999 7.6C10.4999 7.6 10.7999 7.6 10.9999 7.6V6.2C10.5999 6.2 10.2999 6.1 9.99989 6.1C8.99989 6.2 8.29989 6.4 7.79989 6.7Z"/>
<path d="M14.8001 9.1C13.8001 9.1 12.9001 9.4 12.2001 10.1C11.5001 10.8 11.2001 11.7 11.2001 12.8V13.9C11.2001 15.1 11.5001 16 12.2001 16.6C12.9001 17.2 13.7001 17.6 14.9001 17.6C15.4001 17.6 15.9001 17.5 16.3001 17.4C16.7001 17.3 17.1001 17 17.3001 16.8C17.5001 16.6 17.8001 16.3 17.9001 16C18.0001 15.7 18.1001 15.5 18.2001 15.2H16.5001C16.4001 15.5 16.3001 15.7 16.0001 15.9C15.7001 16.1 15.3001 16.2 14.9001 16.2C14.3001 16.2 13.8001 16 13.5001 15.6C13.2001 15.2 13.0001 14.7 13.0001 14.2V13.8H18.4001V12.8C18.4001 11.7 18.1001 10.8 17.4001 10.1C16.7001 9.5 15.8001 9.1 14.8001 9.1ZM16.6001 12.7H12.9001V12.6C12.9001 12 13.1001 11.5 13.4001 11.1C13.7001 10.7 14.2001 10.5 14.7001 10.5C15.2001 10.5 15.7001 10.7 16.0001 11.1C16.3001 11.5 16.5001 12 16.5001 12.6V12.7H16.6001Z"/>
</svg>
