<svg width="24" height="24" viewBox="0 0 24 24" xmlns="http://www.w3.org/2000/svg">
<path fill-rule="evenodd" clip-rule="evenodd" d="M22.9547 17.3486L22.9489 17.3676C22.7803 17.9216 22.3628 18.5124 21.9268 19.0286C21.4714 19.5679 20.9198 20.1127 20.3888 20.5788C19.8613 21.0419 19.3298 21.4485 18.9109 21.6987C18.7154 21.8155 18.4833 21.936 18.2645 21.9805C18.1667 22.0003 17.9525 22.0318 17.7301 21.9174C17.6039 21.8524 17.4863 21.7454 17.4043 21.5946C17.3256 21.4499 17.3006 21.3039 17.2969 21.1894L17.2936 21.0903L17.3144 20.9939C17.3725 20.7244 17.3642 20.4457 17.2928 20.1885C16.7639 18.3114 15.6381 16.5391 14.6114 15.2119C14.1025 14.554 13.6277 14.018 13.281 13.6473C13.2096 13.571 13.1437 13.5017 13.0841 13.44C13.0669 13.4768 13.0557 13.5165 13.0468 13.5591C13.0031 13.7712 13.0303 14.0948 13.1411 14.5012C13.2473 14.891 13.4079 15.2767 13.5476 15.5729C13.6164 15.7189 13.678 15.8386 13.7217 15.9208C13.7435 15.9617 13.7608 15.9931 13.7721 16.0134L13.7845 16.0353L13.7868 16.0395L13.7859 16.0405L12.8276 17.0321C11.2216 15.7682 10.2309 15.6774 9.7197 15.7742C9.45794 15.8238 9.28327 15.9286 9.18056 16.009C9.12839 16.0499 9.09383 16.0852 9.07588 16.1052C9.0708 16.1109 9.06712 16.1152 9.06481 16.118L8.7501 16.5805L8.25733 16.336C6.61318 15.52 5.7963 15.6845 5.44106 15.8662C5.2559 15.9608 5.14684 16.0832 5.08558 16.1723C5.05437 16.2177 5.03541 16.2547 5.02607 16.275C5.024 16.2795 5.02245 16.283 5.02138 16.2855L4.81183 16.9494L4.18657 16.7304C2.42897 16.1147 1.6094 14.8591 1.25538 13.7398C1.08263 13.1936 1.023 12.6904 1.00593 12.3243C0.997345 12.1402 0.999377 11.9878 1.00391 11.878C1.00617 11.8231 1.00908 11.7785 1.01164 11.7457C1.01292 11.7293 1.01411 11.7158 1.0151 11.7054L1.01641 11.6921L1.01692 11.6873L1.01714 11.6853C1.01714 11.6853 1.01732 11.6836 1.6844 11.7723L1.01732 11.6836L1.11972 10.76L1.91668 11.0816C3.55479 11.7426 4.81583 11.0906 5.7293 10.2015C6.19053 9.7525 6.54805 9.25353 6.79145 8.86218C6.91235 8.66779 7.00305 8.50327 7.06249 8.38957C7.09216 8.33281 7.11392 8.28897 7.12762 8.26071L7.14208 8.23043L7.14452 8.22519L7.23725 8.02025L7.42026 7.90898L7.65032 8.36302C7.42031 7.90895 7.42026 7.90898 7.42026 7.90898L7.42137 7.90831L7.42258 7.90757L7.42533 7.90592L7.43215 7.90189L7.45108 7.89096C7.46609 7.88243 7.48593 7.87145 7.51084 7.85824C7.56066 7.83183 7.63077 7.79649 7.72318 7.75397C7.90797 7.66894 8.18197 7.55515 8.56122 7.42652C9.3195 7.16932 10.4997 6.85238 12.2309 6.58739C13.8007 6.3471 15.2486 5.57242 16.3219 4.83453C16.8546 4.46829 17.2855 4.11772 17.5818 3.86003C17.7298 3.73136 17.8437 3.62632 17.9193 3.5547C17.9571 3.5189 17.9853 3.49149 18.0034 3.4737L18.0229 3.4544L18.0268 3.45049L19.4534 2L19.1476 4.10564C19.0281 4.92841 18.6542 5.70867 18.211 6.39043C17.7637 7.07852 17.2158 7.71187 16.6946 8.24478C16.5508 8.39174 16.4082 8.53199 16.2691 8.6646C16.9462 8.59692 17.686 8.48722 18.3951 8.36379C19.127 8.23641 19.7979 8.09983 20.2862 7.995C20.5301 7.94263 20.728 7.8983 20.8645 7.86714C20.9327 7.85157 20.9855 7.8393 21.0211 7.83097L21.0613 7.82153L21.0735 7.81863L21.6517 9.09937L20.2205 10.4273C20.6108 10.4985 20.9993 10.5925 21.3642 10.6931L21.3515 11.3513L21.3616 10.6924C21.372 10.6952 21.3838 10.6958 21.3966 10.6932C21.4095 10.6906 21.4241 10.6845 21.4389 10.6734C21.4538 10.6622 21.4682 10.6464 21.48 10.6261C21.4918 10.6056 21.5002 10.582 21.5041 10.5571L22.8372 10.6357C22.8789 11.3723 22.8685 12.1125 22.8062 12.8493L22.805 12.8638L22.8032 12.8783C22.7732 13.1262 22.759 13.2565 22.7525 13.3255C22.7501 13.3509 22.749 13.3651 22.7485 13.3718C22.748 13.4407 22.7413 13.4919 22.7326 13.552C22.7245 13.6076 22.7091 13.7064 22.681 13.8874C22.6811 13.8916 22.6802 13.922 22.6839 13.9907C22.6889 14.0808 22.6995 14.1993 22.7153 14.3438C22.743 14.5958 22.7826 14.895 22.8247 15.2119C22.831 15.2593 22.8373 15.3072 22.8437 15.3554C22.8916 15.7173 22.9406 16.0959 22.9702 16.4137C22.985 16.5724 22.9962 16.7281 22.9992 16.866C23.0016 16.982 23.0013 17.1625 22.9595 17.3293L22.9547 17.3486ZM18.8432 9.77582C18.765 9.78987 18.6859 9.80387 18.606 9.81777C17.1385 10.0732 15.3066 10.317 14.1898 10.1543L12.4122 9.89531L13.9072 8.811L13.9084 8.81007L13.9148 8.80538L13.9431 8.78441C13.9686 8.76537 14.0072 8.73635 14.0569 8.69804C14.1565 8.62139 14.3009 8.5078 14.476 8.36286C14.8271 8.07227 15.2975 7.65929 15.7775 7.16852C15.9834 6.95805 16.1888 6.73551 16.386 6.50433C15.3016 7.1694 13.9268 7.81432 12.4169 8.04544C12.0368 8.10363 11.6858 8.16417 11.3623 8.22572C11.5323 8.45804 11.6644 8.7557 11.6999 9.11933C11.7519 9.65249 11.5677 10.0685 11.4396 10.2931C11.3047 10.5295 11.1416 10.7133 11.0156 10.84C10.7613 11.0958 10.4714 11.3027 10.2816 11.4291C10.1797 11.497 10.0903 11.5523 10.0252 11.5914C9.99244 11.6111 9.96529 11.627 9.94514 11.6386L9.92019 11.6529L9.91186 11.6576L9.90879 11.6593L9.90754 11.66C9.90754 11.66 9.90656 11.6605 9.57575 10.9484L9.90647 11.6606L9.67566 11.7892L8.71299 11.8843C8.52694 12.0035 8.3247 12.0934 8.11184 12.1494C7.77395 12.2382 7.42059 12.2384 7.08055 12.1471L5.98009 11.8516C5.054 12.5423 3.84639 13.0231 2.40204 12.7464C2.42947 12.907 2.46898 13.0798 2.52528 13.2578C2.72939 13.9032 3.16056 14.6485 4.12848 15.1315C4.29956 14.9225 4.54094 14.7017 4.87263 14.5321C5.65481 14.1322 6.78692 14.0873 8.40735 14.8048C8.65291 14.6143 9.01084 14.4143 9.49083 14.3235C10.1086 14.2065 10.8718 14.279 11.7967 14.6975C11.6934 14.2488 11.634 13.7285 11.736 13.2344C11.8696 12.5872 12.2688 12.0542 12.9681 11.8198L13.3217 11.7013L13.6023 11.9651L13.1647 12.5237C13.6023 11.9651 13.6023 11.9651 13.6023 11.9651L13.6038 11.9665L13.6066 11.9692L13.6162 11.9783L13.6504 12.0112C13.6798 12.0395 13.7219 12.0807 13.7754 12.134C13.8822 12.2405 14.0344 12.3956 14.2197 12.5938C14.5901 12.9897 15.095 13.5598 15.6367 14.2601C16.7112 15.6491 17.9704 17.6008 18.5773 19.7555L18.5779 19.7577C18.6133 19.8848 18.6408 20.0139 18.6603 20.1444C18.9237 19.9544 19.2293 19.7101 19.5484 19.43C20.0403 18.9982 20.5401 18.5026 20.9403 18.0288C21.3298 17.5677 21.5666 17.1943 21.6558 16.9554C21.656 16.9424 21.6561 16.9243 21.6556 16.9003C21.6538 16.8175 21.6464 16.7049 21.6332 16.5635C21.6069 16.2812 21.5621 15.9325 21.5137 15.5665C21.5075 15.5197 21.5012 15.4725 21.4949 15.4252C21.4532 15.111 21.4107 14.791 21.381 14.5192C21.3638 14.3625 21.3496 14.2112 21.3424 14.0789C21.3361 13.9642 21.3308 13.8027 21.3536 13.6562C21.3842 13.4599 21.3984 13.3684 21.4052 13.3213C21.408 13.2364 21.4209 13.0984 21.4692 12.6992C21.4841 12.5201 21.4957 12.3407 21.5038 12.1612C21.3484 12.176 21.1914 12.1628 21.0389 12.1215L21.0363 12.1208C20.11 11.8656 19.2049 11.7099 18.5783 11.7888L16.3747 12.0663L18.8432 9.77582ZM8.22652 10.4541L8.15817 10.518C8.10154 10.5701 8.03976 10.6139 7.97434 10.6486C7.91798 10.6786 7.85892 10.7018 7.7981 10.7178C7.66667 10.7524 7.53061 10.7522 7.40052 10.7172L8.23118 9.80832C8.43997 9.88489 8.70825 9.78948 8.96615 9.63598C8.99448 9.61912 9.02269 9.60155 9.05069 9.58344C9.10977 9.54519 9.16789 9.5045 9.22416 9.46278C9.57261 9.20442 9.85035 8.90655 9.85035 8.90655C10.3348 9.02289 10.4247 9.2274 10.3328 9.44646C10.2247 9.70428 9.86473 9.98226 9.59938 10.1604C9.54317 10.1982 9.49121 10.2314 9.44678 10.2591C9.35626 10.3154 9.29706 10.3484 9.29706 10.3484L8.22652 10.4541Z"/>
</svg>
