<svg width="24" height="24" viewBox="0 0 24 24" fill="none" xmlns="http://www.w3.org/2000/svg">
<path fill-rule="evenodd" clip-rule="evenodd" d="M13.1852 1.26849C13.5431 0.910505 14.1235 0.910505 14.4815 1.26849L19.0648 5.85182C19.4228 6.2098 19.4228 6.7902 19.0648 7.14818L16.3647 9.84829C16.7971 10.9383 17.0417 12.1261 17.0417 13.375C17.0417 16.579 15.4764 19.4172 13.0688 21.1667H22.0833C22.5896 21.1667 23 21.5771 23 22.0833C23 22.5896 22.5896 23 22.0833 23H1.91667C1.41041 23 1 22.5896 1 22.0833C1 21.5771 1.41041 21.1667 1.91667 21.1667H7.41305L7.41667 21.1667C11.7202 21.1667 15.2083 17.6785 15.2083 13.375C15.2083 12.6534 15.1072 11.9559 14.9205 11.2925L8.98151 17.2315C8.62353 17.5895 8.04313 17.5895 7.68515 17.2315L3.10182 12.6482C2.74384 12.2902 2.74384 11.7098 3.10182 11.3518L13.1852 1.26849ZM5.04636 12L13.8333 3.21303L17.1203 6.5L14.6423 8.97796C14.6319 8.98792 14.6217 8.9981 14.6118 9.00849L8.33333 15.287L5.04636 12Z"/>
<path d="M2.56485 14.1018C2.20687 13.7438 1.62647 13.7438 1.26849 14.1018C0.910505 14.4598 0.910505 15.0402 1.26849 15.3982L4.93515 19.0648C5.29313 19.4228 5.87353 19.4228 6.23151 19.0648C6.5895 18.7069 6.5895 18.1265 6.23151 17.7685L2.56485 14.1018Z"/>
</svg>
