<svg width="24" height="25" viewBox="0 0 24 25" fill="none" xmlns="http://www.w3.org/2000/svg">
<path d="M24 5.74557C24 2.95188 21.8 0.756836 19 0.756836H5C2.2 0.756836 0 2.95188 0 5.74557V19.714C0 22.5077 2.2 24.7028 5 24.7028H19C21.8 24.7028 24 22.5077 24 19.714V5.74557ZM22 19.714C22 21.4102 20.7 22.7073 19 22.7073H5C3.3 22.7073 2 21.4102 2 19.714V5.74557C2 4.0494 3.3 2.75233 5 2.75233H19C20.7 2.75233 22 4.0494 22 5.74557V19.714Z" />
<path d="M18.1006 16.4215C17.7006 15.9226 17.4006 15.324 17.0006 14.8251C16.5006 14.0269 16.0006 13.2287 15.5006 12.5303C15.1006 11.9316 14.9006 11.2332 14.9006 10.435C14.9006 9.7366 14.9006 8.9384 14.9006 8.23997C14.9006 7.7411 15.0006 7.44178 15.1006 7.14245C15.3006 6.84313 15.3006 6.5438 15.2006 6.24448C15.1006 5.94516 14.8006 5.74561 14.4006 5.74561C13.7006 5.74561 13.6006 5.74561 13.4006 5.74561C13.3006 5.74561 11.9006 5.74561 11.4006 5.74561C10.9006 5.74561 10.7006 5.74561 10.6006 5.74561C10.4006 5.74561 10.3006 5.74561 9.60062 5.74561C9.20062 5.74561 8.90062 5.94516 8.80062 6.1447C8.70062 6.44403 8.70062 6.74335 8.90062 7.04268C9.10062 7.342 9.20062 7.64133 9.10062 8.1402C9.10062 8.83862 9.10062 9.63682 9.10062 10.3352C9.10062 11.1334 8.90062 11.8319 8.50062 12.4305C8.00062 13.2287 7.50062 14.0269 7.00062 14.7253C6.60062 15.2242 6.30062 15.8229 5.90062 16.3217C5.60062 16.8206 5.40062 17.3195 5.50062 17.9181C5.60062 18.9159 6.40062 19.6143 7.60062 19.6143H14.3006C15.0006 19.6143 15.8006 19.6143 16.4006 19.6143C17.6006 19.6143 18.4006 18.9159 18.5006 17.9181C18.5006 17.4193 18.4006 16.9204 18.1006 16.4215ZM11.4006 7.64133H12.7006C13.0006 7.64133 13.1006 7.64133 13.1006 7.64133C13.1006 8.1402 13.1006 8.5393 13.1006 9.03817C13.1006 9.53705 13.1006 10.0359 13.1006 10.5348C13.1006 11.333 13.3006 12.0314 13.6006 12.7298C13.3006 12.9294 12.7006 13.2287 12.3006 13.0292C12.2006 13.0292 12.1006 12.9294 12.0006 12.8296C11.8006 12.6301 11.6006 12.4305 11.2006 12.231C11.1006 12.231 10.9006 12.1312 10.8006 12.1312C11.0006 11.6323 11.0006 11.1334 11.0006 10.5348C11.0006 10.0359 11.0006 9.53705 11.0006 9.03817C11.0006 8.63907 11.0006 8.1402 11.0006 7.7411C11.0006 7.64133 11.1006 7.64133 11.4006 7.64133ZM16.7006 17.7186C16.7006 17.7186 16.6006 17.8184 16.4006 17.8184H7.70062C7.40062 17.8184 7.40062 17.7186 7.40062 17.7186C7.40062 17.7186 7.40062 17.6188 7.50062 17.4193L8.60062 15.8229C9.10062 15.0247 9.60062 14.2265 10.1006 13.528C10.2006 13.4283 10.3006 13.2287 10.3006 13.1289C10.5006 13.1289 10.6006 13.1289 10.8006 13.2287C11.0006 13.2287 11.0006 13.3285 11.1006 13.528C11.2006 13.7276 11.4006 13.9271 11.8006 14.0269C12.0006 14.1267 12.2006 14.1267 12.5006 14.1267C13.1006 14.1267 13.7006 13.8274 14.0006 13.6278C14.5006 14.3262 15.0006 15.1244 15.5006 15.8229L16.6006 17.4193C16.7006 17.6188 16.7006 17.7186 16.7006 17.7186Z" />
<path d="M11.0006 16.7208C11.5529 16.7208 12.0006 16.2741 12.0006 15.7231C12.0006 15.172 11.5529 14.7253 11.0006 14.7253C10.4483 14.7253 10.0006 15.172 10.0006 15.7231C10.0006 16.2741 10.4483 16.7208 11.0006 16.7208Z" />
<path d="M13.5006 15.7231C13.7768 15.7231 14.0006 15.4997 14.0006 15.2242C14.0006 14.9487 13.7768 14.7253 13.5006 14.7253C13.2245 14.7253 13.0006 14.9487 13.0006 15.2242C13.0006 15.4997 13.2245 15.7231 13.5006 15.7231Z" />
</svg>
