<svg width="15" height="11" viewBox="0 0 15 11" fill="none" xmlns="http://www.w3.org/2000/svg">
<path d="M1.77871 2.24397C1.79735 2.07389 1.72713 1.90577 1.58964 1.7913L0.189076 0.232804V0H4.53782L7.89916 6.80952L10.8543 0H15V0.232804L13.8025 1.29336C13.6993 1.36605 13.6481 1.48552 13.6695 1.60376V9.39624C13.6481 9.51448 13.6993 9.63395 13.8025 9.70664L14.972 10.7672V11H9.08963V10.7672L10.3011 9.68078C10.4202 9.57084 10.4202 9.53851 10.4202 9.37037V3.07172L7.05182 10.9741H6.59664L2.67507 3.07172V8.36802C2.64237 8.59069 2.72243 8.81487 2.89216 8.9759L4.46779 10.7413V10.9741H0V10.7413L1.57563 8.9759C1.74412 8.8146 1.81951 8.58894 1.77871 8.36802V2.24397Z" fill="#696D78"/>
</svg>
