<svg width="24" height="24" viewBox="0 0 24 24" fill="none" xmlns="http://www.w3.org/2000/svg">
<path fill-rule="evenodd" clip-rule="evenodd" d="M12 0C5.374 0 0 5.372 0 12C0 18.627 5.374 24 12 24C18.627 24 24 18.627 24 12C24 5.372 18.627 0 12 0ZM18.974 17.557V17.322L17.882 16.25C17.786 16.177 17.738 16.056 17.758 15.937V8.063C17.738 7.944 17.786 7.823 17.882 7.75L19 6.678V6.443H15.131L12.373 13.323L9.235 6.443H5.176V6.678L6.484 8.253C6.612 8.368 6.678 8.538 6.66 8.71V14.898C6.698 15.121 6.628 15.349 6.471 15.512L5 17.296V17.531H9.17V17.296L7.699 15.512C7.541 15.349 7.466 15.123 7.497 14.898V9.546L11.157 17.531H11.582L14.725 9.546V15.911C14.725 16.081 14.725 16.113 14.614 16.224L13.484 17.322V17.557H18.974Z"/>
</svg>
