<svg width="20" height="20" viewBox="0 0 20 20" xmlns="http://www.w3.org/2000/svg">
<path d="M5 2C3.34328 2 2 3.34328 2 5V15C2 16.6567 3.34328 18 5 18H15C16.6567 18 18 16.6567 18 15V14C18 13.4477 18.4477 13 19 13C19.5523 13 20 13.4477 20 14V15C20 17.7613 17.7613 20 15 20H5C2.23872 20 0 17.7613 0 15V5C0 2.23872 2.23872 0 5 0H6C6.55228 0 7 0.447715 7 1C7 1.55228 6.55228 2 6 2H5Z" />
<path d="M12.3 0C11.6925 0 11.2 0.492487 11.2 1.1C11.2 1.70751 11.6925 2.2 12.3 2.2H16.2444L7.12223 11.3222C6.69265 11.7518 6.69265 12.4482 7.12223 12.8778C7.55181 13.3074 8.24829 13.3074 8.67787 12.8778L17.8 3.75565V7.7C17.8 8.30751 18.2925 8.8 18.9 8.8C19.5075 8.8 20 8.30751 20 7.7V1.1C20 0.92275 19.9581 0.755292 19.8836 0.607C19.8954 0.630512 19.9064 0.654499 19.9166 0.678938C19.8633 0.550172 19.7845 0.429473 19.6802 0.324561L19.6791 0.323431L19.6778 0.322128L19.6765 0.320827C19.4775 0.122563 19.2031 0 18.9 0H12.3Z" />
<path d="M19.3211 0.0834666C19.4545 0.138782 19.5747 0.219589 19.6755 0.319811C19.5706 0.215525 19.4499 0.136743 19.3211 0.0834666Z" />
</svg>
