<svg width="16" height="16" viewBox="0 0 16 16" fill="none" xmlns="http://www.w3.org/2000/svg">
<path d="M15.8 14.8667L11.8 10.8667C12.7333 9.73333 13.3333 8.26667 13.3333 6.66667C13.3333 3 10.3333 0 6.66667 0C3 0 0 3 0 6.66667C0 10.3333 3 13.3333 6.66667 13.3333C8.26667 13.3333 9.73333 12.8 10.8667 11.8L14.8667 15.8C15.1333 16.0667 15.5333 16.0667 15.8 15.8C16.0667 15.5333 16.0667 15.1333 15.8 14.8667ZM1.33333 6.66667C1.33333 3.73333 3.73333 1.33333 6.66667 1.33333C9.6 1.33333 12 3.73333 12 6.66667C12 9.6 9.6 12 6.66667 12C3.73333 12 1.33333 9.6 1.33333 6.66667Z"/>
</svg>
