<svg width="16" height="16" viewBox="0 0 16 16" fill="none" xmlns="http://www.w3.org/2000/svg">
<path d="M15.6418 9.99377L14.0468 9.1298C14.1133 8.3323 14.1133 7.66771 14.0468 6.93666L15.6418 6.00623C15.8412 5.93977 15.9077 5.60748 15.8412 5.4081L15.376 4.34476C15.2431 4.14538 14.9108 3.946 14.7114 4.01246L13.0499 4.47767C12.6512 3.87954 12.053 3.41433 11.4549 2.88266L11.9201 1.15472C11.9866 0.888889 11.8537 0.689512 11.6543 0.556594L10.5245 0.0249221C10.3251 -0.0415369 10.0593 0.0249221 9.92636 0.224299L9.06239 1.81931C8.26488 1.75286 7.60029 1.75286 6.86925 1.81931L5.93882 0.357217C5.73944 0.15784 5.54007 0.0249221 5.27423 0.15784L4.14443 0.556594C3.94505 0.623053 3.87859 0.955348 3.87859 1.15472L4.3438 2.8162C3.74567 3.21495 3.28046 3.81308 2.81525 4.41121L1.08731 4.01246C0.821478 3.946 0.622101 4.01246 0.489183 4.34476L0.0239704 5.4081C-0.0424886 5.60748 0.0239704 5.87331 0.289806 6.00623L1.88482 6.8702C1.81836 7.66771 1.81836 8.3323 1.88482 9.06334L0.289806 9.99377C0.0904294 10.0602 0.0239704 10.3925 0.0904294 10.5919L0.622101 11.6552C0.68856 11.8546 1.02086 12.054 1.22023 11.9211L2.88171 11.4559C3.28046 12.054 3.87859 12.5192 4.47672 13.0509L3.94505 14.8453C3.87859 15.1111 4.01151 15.3105 4.21089 15.4434L5.34069 15.9751C5.54007 16.0415 5.8059 15.9751 5.93882 15.7757L6.80279 14.1807C7.60029 14.2471 8.26488 14.2471 8.99593 14.1807L9.8599 15.7757C9.92636 15.9751 10.2587 16.0415 10.458 15.9751L11.5214 15.5099C11.7208 15.4434 11.9201 15.1111 11.7872 14.9117L11.322 13.2503C11.9201 12.8515 12.3853 12.2534 12.917 11.6552L14.5785 12.1205C14.8443 12.1869 15.0437 12.054 15.1766 11.8546L15.5754 10.7913C16.0406 10.3925 15.9077 10.0602 15.6418 9.99377ZM11.8537 9.59502C10.9897 11.6552 8.59718 12.785 6.40403 11.8546C4.27734 10.9907 3.28046 8.59813 4.07797 6.40498C4.94194 4.34476 7.33446 3.34787 9.5276 4.14538C11.6543 5.00935 12.6512 7.40187 11.8537 9.59502Z"/>
</svg>
