<?xml version="1.0" encoding="utf-8"?>
<!-- Generator: Adobe Illustrator 25.3.1, SVG Export Plug-In . SVG Version: 6.00 Build 0)  -->
<svg version="1.1" id="Layer_1" xmlns="http://www.w3.org/2000/svg" xmlns:xlink="http://www.w3.org/1999/xlink" x="0px" y="0px"
	 viewBox="0 0 24 48" style="enable-background:new 0 0 24 48;" xml:space="preserve">
<g>
	<circle cx="12" cy="2" r="2"/>
	<circle cx="12" cy="14" r="2"/>
	<path d="M24,37.2c0-1.1-0.9-2-2-2c-0.6,0-1.1,0.2-1.4,0.6L14,42.4V26c0-1.1-0.9-2-2-2s-2,0.9-2,2v16.4l-6.6-6.6
		c-0.4-0.4-0.9-0.6-1.4-0.6c-1.1,0-2,0.9-2,2c0,0.6,0.2,1.1,0.6,1.4l0,0l7.9,7.9c1,1,2.3,1.5,3.5,1.5s2.6-0.5,3.5-1.5l7.9-7.9l0,0
		C23.8,38.3,24,37.8,24,37.2z"/>
</g>
</svg>
