<svg width="16" height="16" viewBox="0 0 16 16" fill="none" xmlns="http://www.w3.org/2000/svg">
<path d="M13.3333 5.4C13.3333 5.4 13.3333 5.33333 13.3333 5.4C13.3333 2.4 10.9333 0 8 0C5.06667 0 2.66667 2.4 2.66667 5.33333C2.66667 5.33333 2.66667 5.33333 2.66667 5.4C1.06667 6.33333 0 8.06667 0 10C0 12.9333 2.4 15.3333 5.33333 15.3333C6.33333 15.3333 7.2 15.0667 8 14.6C8.8 15.0667 9.66667 15.3333 10.6667 15.3333C13.6 15.3333 16 12.9333 16 10C16 8 14.9333 6.33333 13.3333 5.4ZM8 12.9333C7.33333 12.3333 6.8 11.4667 6.73333 10.4667C7.13333 10.6 7.6 10.6 8 10.6C8.4 10.6 8.86667 10.5333 9.26667 10.4667C9.2 11.4667 8.66667 12.3333 8 12.9333ZM8 9.33333C7.6 9.33333 7.13333 9.26667 6.73333 9.13333C6.93333 8.26667 7.33333 7.53333 8 7C8.6 7.53333 9.06667 8.26667 9.26667 9.13333C8.86667 9.26667 8.4 9.33333 8 9.33333ZM5.53333 8.46667C4.8 7.93333 4.26667 7.06667 4.06667 6.13333C4.46667 6.06667 4.93333 6 5.33333 6C5.86667 6 6.4 6.13333 6.86667 6.26667C6.26667 6.93333 5.8 7.66667 5.53333 8.46667ZM9.13333 6.26667C9.6 6.06667 10.1333 6 10.6667 6C11.0667 6 11.5333 6.06667 11.9333 6.2C11.7333 7.13333 11.2 7.93333 10.4667 8.53333C10.2 7.66667 9.73333 6.93333 9.13333 6.26667ZM8 1.33333C10 1.33333 11.7333 2.86667 11.9333 4.8C11.5333 4.66667 11.0667 4.66667 10.6667 4.66667C9.66667 4.66667 8.8 4.93333 8 5.4C7.2 4.93333 6.33333 4.66667 5.33333 4.66667C4.86667 4.66667 4.46667 4.73333 4.06667 4.8C4.26667 2.86667 6 1.33333 8 1.33333ZM1.33333 10C1.33333 8.73333 1.93333 7.6 2.86667 6.86667C3.26667 8.2 4.13333 9.33333 5.33333 10C5.33333 10 5.33333 10 5.33333 10.0667C5.33333 11.5333 5.93333 12.8 6.86667 13.8C6.4 14 5.86667 14.0667 5.33333 14.0667C3.13333 14 1.33333 12.2 1.33333 10ZM10.6667 14C10.1333 14 9.6 13.8667 9.13333 13.7333C10.0667 12.8 10.6667 11.4667 10.6667 10C10.6667 10 10.6667 10 10.6667 9.93333C11.8667 9.26667 12.7333 8.13333 13.1333 6.8C14.0667 7.53333 14.6667 8.66667 14.6667 9.93333C14.6667 12.2 12.8667 14 10.6667 14Z"/>
</svg>
