<svg width="17" height="14" viewBox="0 0 17 14" xmlns="http://www.w3.org/2000/svg">
<path d="M17 1.64706C16.3743 1.93529 15.6998 2.12471 15.001 2.21529C15.7161 1.77882 16.2686 1.08706 16.5287 0.255294C15.8542 0.667059 15.1066 0.955294 14.3184 1.12C13.6764 0.411765 12.7744 0 11.7505 0C9.84082 0 8.28059 1.58118 8.28059 3.53294C8.28059 3.81294 8.3131 4.08471 8.36998 4.34C5.47706 4.19177 2.90105 2.78353 1.18642 0.650588C0.885755 1.16941 0.715105 1.77882 0.715105 2.42118C0.715105 3.64824 1.32457 4.73529 2.26721 5.35294C1.69025 5.35294 1.15392 5.18824 0.682601 4.94118C0.682601 4.94118 0.682601 4.94118 0.682601 4.96588C0.682601 6.67882 1.88528 8.11176 3.47801 8.43294C3.18547 8.51529 2.87667 8.55647 2.55975 8.55647C2.34034 8.55647 2.12094 8.53176 1.90966 8.49059C2.34847 9.88235 3.62428 10.92 5.16013 10.9447C3.97371 11.9 2.47036 12.46 0.828872 12.46C0.552581 12.46 0.276291 12.4435 0 12.4106C1.54398 13.4153 3.3805 14 5.34704 14C11.7505 14 15.2691 8.61412 15.2691 3.94471C15.2691 3.78824 15.2691 3.64 15.261 3.48353C15.9436 2.98941 16.5287 2.36353 17 1.64706Z"/>
</svg>
