<svg width="22" height="22" viewBox="0 0 22 22" fill="none" xmlns="http://www.w3.org/2000/svg">
<path fill-rule="evenodd" clip-rule="evenodd" d="M10.0833 8.25C8.56507 8.25 7.33333 9.48174 7.33333 11C7.33333 12.5183 8.56507 13.75 10.0833 13.75C11.6016 13.75 12.8333 12.5183 12.8333 11C12.8333 9.48174 11.6016 8.25 10.0833 8.25ZM9.16667 11C9.16667 10.4943 9.57759 10.0833 10.0833 10.0833C10.5891 10.0833 11 10.4943 11 11C11 11.5057 10.5891 11.9167 10.0833 11.9167C9.57759 11.9167 9.16667 11.5057 9.16667 11Z"/>
<path fill-rule="evenodd" clip-rule="evenodd" d="M3.66667 11C3.66667 7.45682 6.54016 4.58333 10.0833 4.58333C11.2927 4.58333 12.4241 4.9181 13.3898 5.5H17.417C17.9233 5.5 18.3337 5.91041 18.3337 6.41667C18.3337 6.92293 17.9233 7.33333 17.417 7.33333H15.3495C16.0747 8.37276 16.5 9.63682 16.5 11C16.5 12.3632 16.0747 13.6272 15.3495 14.6667H17.417C17.9233 14.6667 18.3337 15.0771 18.3337 15.5833C18.3337 16.0896 17.9233 16.5 17.417 16.5H13.3898C12.4241 17.0819 11.2927 17.4167 10.0833 17.4167C6.54016 17.4167 3.66667 14.5432 3.66667 11ZM10.0833 6.41667C7.55268 6.41667 5.5 8.46934 5.5 11C5.5 13.5307 7.55268 15.5833 10.0833 15.5833C12.614 15.5833 14.6667 13.5307 14.6667 11C14.6667 8.46934 12.614 6.41667 10.0833 6.41667Z"/>
<path fill-rule="evenodd" clip-rule="evenodd" d="M0 2.75C0 1.23174 1.23174 0 2.75 0H19.25C20.7683 0 22 1.23174 22 2.75V19.25C22 20.7683 20.7683 22 19.25 22H2.75C1.23174 22 0 20.7683 0 19.25V2.75ZM2.75 1.83333C2.24426 1.83333 1.83333 2.24426 1.83333 2.75V19.25C1.83333 19.7557 2.24426 20.1667 2.75 20.1667H19.25C19.7557 20.1667 20.1667 19.7557 20.1667 19.25V2.75C20.1667 2.24426 19.7557 1.83333 19.25 1.83333H2.75Z"/>
</svg>
