<svg width="24" height="24" viewBox="0 0 24 24" fill="none" xmlns="http://www.w3.org/2000/svg">
<path d="M19 0H5C2.2 0 0 2.2 0 5V19C0 21.8 2.2 24 5 24H19C21.8 24 24 21.8 24 19V5C24 2.2 21.8 0 19 0ZM22 19C22 20.7 20.7 22 19 22H5C3.3 22 2 20.7 2 19V5C2 3.3 3.3 2 5 2H19C20.7 2 22 3.3 22 5V19Z"/>
<path d="M10.9997 6C7.69971 6 4.99971 8.7 4.99971 12C4.99971 15.3 7.69971 18 10.9997 18C14.2997 18 16.9997 15.3 16.9997 12C16.9997 8.7 14.2997 6 10.9997 6ZM10.9997 16C8.79971 16 6.99971 14.2 6.99971 12C6.99971 9.8 8.79971 8 10.9997 8C13.1997 8 14.9997 9.8 14.9997 12C14.9997 14.2 13.1997 16 10.9997 16Z"/>
<path d="M4 7.99998C4.6 7.99998 5 7.59998 5 6.99998V5.99998C5 5.39998 4.6 4.99998 4 4.99998C3.4 4.99998 3 5.39998 3 5.99998V6.99998C3 7.59998 3.4 7.99998 4 7.99998Z"/>
<path d="M4 16C3.4 16 3 16.4 3 17V18C3 18.6 3.4 19 4 19C4.6 19 5 18.6 5 18V17C5 16.4 4.6 16 4 16Z"/>
<path d="M11 14.8C12.5464 14.8 13.8 13.5464 13.8 12C13.8 10.4536 12.5464 9.2 11 9.2C9.4536 9.2 8.2 10.4536 8.2 12C8.2 13.5464 9.4536 14.8 11 14.8Z"/>
<path d="M20.0003 6C19.4003 6 19.0003 6.4 19.0003 7V17C19.0003 17.6 19.4003 18 20.0003 18C20.6003 18 21.0003 17.6 21.0003 17V7C21.0003 6.4 20.6003 6 20.0003 6Z"/>
</svg>
