<svg width="40" height="40" viewBox="0 0 40 40" fill="none" xmlns="http://www.w3.org/2000/svg">
<path d="M19.2019 0.203507C19.6994 -0.0678358 20.3006 -0.0678358 20.7981 0.203507L39.1311 10.2035C39.9392 10.6443 40.2369 11.6567 39.7962 12.4648C39.3554 13.2728 38.343 13.5706 37.535 13.1298L20 3.56515L2.46503 13.1298C1.65696 13.5706 0.644584 13.2728 0.203819 12.4648C-0.236945 11.6567 0.0608136 10.6443 0.868881 10.2035L19.2019 0.203507Z" fill="#0657F9"/>
<path d="M6.66697 15C5.74651 15 5.00033 15.7462 5.00033 16.6667V31.6667C5.00033 32.5871 5.74651 33.3333 6.66697 33.3333C7.58743 33.3333 8.33361 32.5871 8.33361 31.6667V18.3333H11.6669V31.6667C11.6669 32.5871 12.4131 33.3333 13.3335 33.3333C14.254 33.3333 15.0002 32.5871 15.0002 31.6667V18.3333H18.3335V31.6667C18.3335 32.5871 19.0796 33.3333 20.0001 33.3333C20.9206 33.3333 21.6667 32.5871 21.6667 31.6667V18.3333H25V31.6667C25 32.5871 25.7462 33.3333 26.6667 33.3333C27.5871 33.3333 28.3333 32.5871 28.3333 31.6667V18.3333H31.6666V31.6667C31.6666 32.5871 32.4128 33.3333 33.3332 33.3333C34.2537 33.3333 34.9999 32.5871 34.9999 31.6667V16.6667C34.9999 15.7462 34.2537 15 33.3332 15H6.66697Z" fill="#0657F9"/>
<path d="M1.66705 36.6667C0.746587 36.6667 0.000406901 37.4129 0.000406901 38.3333C0.000406901 39.2538 0.746587 40 1.66705 40H38.3331C39.2536 40 39.9998 39.2538 39.9998 38.3333C39.9998 37.4129 39.2536 36.6667 38.3331 36.6667H1.66705Z" fill="#0657F9"/>
<path d="M21.6667 9.98332C21.6667 9.06284 20.9206 8.31665 20.0001 8.31665C19.0796 8.31665 18.3335 9.06284 18.3335 9.98332V9.99998C18.3335 10.9205 19.0796 11.6667 20.0001 11.6667C20.9206 11.6667 21.6667 10.9205 21.6667 9.99998V9.98332Z" fill="#0657F9"/>
</svg>
