<svg width="66" height="62" viewBox="0 0 66 62" fill="none" xmlns="http://www.w3.org/2000/svg">
<path d="M47.8457 13.7812C47.8874 11.8125 48.5749 10.2344 49.9082 9.04688C51.2415 7.84896 53.0853 7.25 55.4395 7.25C57.6582 7.25 59.4499 7.8125 60.8145 8.9375C62.179 10.0521 62.8613 11.5052 62.8613 13.2969C62.8613 14.4531 62.5853 15.4635 62.0332 16.3281C61.4811 17.1823 60.6426 17.9375 59.5176 18.5938C58.4759 19.1979 57.7728 19.7396 57.4082 20.2188C57.0436 20.6979 56.8613 21.3229 56.8613 22.0938V22.9219H52.7207L52.6895 22.0156C52.5853 20.8073 52.752 19.8125 53.1895 19.0312C53.6374 18.25 54.4082 17.5365 55.502 16.8906C56.5124 16.2865 57.1999 15.7448 57.5645 15.2656C57.9395 14.7865 58.127 14.1771 58.127 13.4375C58.127 12.6875 57.8509 12.0729 57.2988 11.5938C56.7572 11.1146 56.0436 10.875 55.1582 10.875C54.2624 10.875 53.5384 11.1406 52.9863 11.6719C52.4342 12.1927 52.1322 12.8958 52.0801 13.7812H47.8457ZM56.6582 29.6875C56.1582 30.1562 55.554 30.3906 54.8457 30.3906C54.1374 30.3906 53.5332 30.1562 53.0332 29.6875C52.5436 29.2083 52.2988 28.625 52.2988 27.9375C52.2988 27.25 52.5436 26.6719 53.0332 26.2031C53.5332 25.724 54.1374 25.4844 54.8457 25.4844C55.554 25.4844 56.1582 25.724 56.6582 26.2031C57.1582 26.6719 57.4082 27.25 57.4082 27.9375C57.4082 28.625 57.1582 29.2083 56.6582 29.6875Z"/>
<path d="M29.7868 16.7788L8.37543 22.516C4.09316 23.6634 1.63007 27.9296 2.7775 32.2119L4.33473 38.0235L8.18682 52.3997L8.51465 53.6232C9.66209 57.9055 13.9283 60.3686 18.2106 59.2211L39.6219 53.484C43.9042 52.3365 46.3673 48.0704 45.2198 43.7881L44.892 42.5646L41.0399 28.1884L39.4827 22.3767C38.3352 18.0945 34.0691 15.6314 29.7868 16.7788ZM9.19502 25.5747L30.6064 19.8376C33.0534 19.1819 35.5743 20.6374 36.342 22.8904C34.8726 22.3007 33.0263 22.1397 31.344 22.5905L9.93266 28.3276C8.25034 28.7784 6.88487 29.7999 5.75431 31.0864C5.29255 28.7513 6.74801 26.2304 9.19502 25.5747ZM42.1611 44.6077C42.8577 47.2076 41.4023 49.7286 38.8023 50.4252L17.391 56.1624C14.791 56.859 12.2701 55.4036 11.5734 52.8036L11.2456 51.5801L7.39349 37.2039C6.69684 34.604 8.1523 32.083 10.7522 31.3864L32.1636 25.6492C34.7636 24.9526 37.2845 26.408 37.9811 29.008L39.9072 36.1961L35.319 37.4255C34.4014 37.6713 33.9536 38.447 34.1995 39.3646C34.4453 40.2823 35.221 40.7301 36.1386 40.4842L40.7268 39.2548L41.8332 43.3842L42.1611 44.6077Z"/>
</svg>
