<svg width="22" height="20" viewBox="0 0 22 20" fill="none" xmlns="http://www.w3.org/2000/svg">
<path fill-rule="evenodd" clip-rule="evenodd" d="M15.5833 9.09091C14.0651 9.09091 12.8333 10.3125 12.8333 11.8182C12.8333 13.3239 14.0651 14.5455 15.5833 14.5455C17.1016 14.5455 18.3333 13.3239 18.3333 11.8182C18.3333 10.3125 17.1016 9.09091 15.5833 9.09091ZM14.6667 11.8182C14.6667 11.3166 15.0776 10.9091 15.5833 10.9091C16.0891 10.9091 16.5 11.3166 16.5 11.8182C16.5 12.3197 16.0891 12.7273 15.5833 12.7273C15.0776 12.7273 14.6667 12.3197 14.6667 11.8182Z"/>
<path fill-rule="evenodd" clip-rule="evenodd" d="M1.83333 2.72727C1.83333 2.22571 2.24426 1.81818 2.75 1.81818H19.25C19.7563 1.81818 20.1667 1.41117 20.1667 0.909091C20.1667 0.407014 19.7563 0 19.25 0H2.75C1.23174 0 0 1.22156 0 2.72727V15.4545C0 17.9648 2.05216 20 4.58333 20H19.25C20.7683 20 22 18.7784 22 17.2727V6.36364C22 4.85792 20.7683 3.63636 19.25 3.63636H2.75C2.24426 3.63636 1.83333 3.22883 1.83333 2.72727ZM1.83333 15.4545V5.29923C2.12007 5.39981 2.42862 5.45455 2.75 5.45455H19.25C19.7557 5.45455 20.1667 5.86208 20.1667 6.36364V17.2727C20.1667 17.7743 19.7557 18.1818 19.25 18.1818H4.58333C3.06468 18.1818 1.83333 16.9607 1.83333 15.4545Z"/>
</svg>
