<svg width="24" height="24" viewBox="0 0 24 24" fill="none" xmlns="http://www.w3.org/2000/svg">
<path d="M19 0H5C2.2 0 0 2.2 0 5V8.8V18.2V19C0 21.8 2.2 24 5 24H19C21.8 24 24 21.8 24 19V18.2V8.8V5C24 2.2 21.8 0 19 0ZM5 2H19C20.6 2 21.9 3.3 22 4.8C21.2 4.2 20.1 3.8 19 3.8H5C3.9 3.8 2.9 4.2 2 4.8C2.1 3.3 3.4 2 5 2ZM22 19C22 20.7 20.7 22 19 22H5C3.3 22 2 20.7 2 19V18.2V8.8C2 7.1 3.3 5.8 5 5.8H19C20.7 5.8 22 7.1 22 8.8V13.5H19C18.4 13.5 18 13.9 18 14.5C18 15.1 18.4 15.5 19 15.5H22V18.2V19Z"/>
</svg>
