<svg width="41" height="36" viewBox="0 0 41 36" fill="none" xmlns="http://www.w3.org/2000/svg">
<path d="M39.4783 28.4651L24.4086 2.51163C23.5714 1.00465 21.8969 0 20.0551 0C18.2132 0 16.5388 1.00465 15.7016 2.51163L0.631813 28.4651C-0.205396 29.9721 -0.205396 31.9814 0.631813 33.4884C1.63646 34.9953 3.14344 36 4.9853 36H35.1248C36.9667 36 38.6411 34.9953 39.4783 33.4884C40.3155 31.814 40.3155 29.9721 39.4783 28.4651ZM36.6318 31.814C36.4644 32.1488 36.1295 32.6512 35.1248 32.6512H4.9853C4.14809 32.6512 3.64577 31.9814 3.47832 31.814C3.31088 31.6465 2.976 30.8093 3.47832 30.1395L18.5481 4.18605C19.0504 3.34884 19.7202 3.34884 20.0551 3.34884C20.39 3.34884 21.0597 3.34884 21.562 4.18605L36.6318 30.1395C36.9667 30.8093 36.6318 31.4791 36.6318 31.814Z"/>
<path d="M20.0552 9.2093C19.0505 9.2093 18.3807 9.87907 18.3807 10.8837V20.9302C18.3807 21.9349 19.0505 22.6046 20.0552 22.6046C21.0598 22.6046 21.7296 21.9349 21.7296 20.9302V10.8837C21.7296 9.87907 21.0598 9.2093 20.0552 9.2093Z"/>
<path d="M20.0552 29.3023C20.9799 29.3023 21.7296 28.5527 21.7296 27.6279C21.7296 26.7031 20.9799 25.9535 20.0552 25.9535C19.1304 25.9535 18.3807 26.7031 18.3807 27.6279C18.3807 28.5527 19.1304 29.3023 20.0552 29.3023Z"/>
</svg>
