<svg width="22" height="22" viewBox="0 0 22 22" fill="none" xmlns="http://www.w3.org/2000/svg">
<path fill-rule="evenodd" clip-rule="evenodd" d="M11 5.5C11.5063 5.5 11.9167 5.91041 11.9167 6.41667V11.9167C11.9167 12.4229 11.5063 12.8333 11 12.8333C10.4937 12.8333 10.0833 12.4229 10.0833 11.9167V6.41667C10.0833 5.91041 10.4937 5.5 11 5.5Z"/>
<path fill-rule="evenodd" clip-rule="evenodd" d="M6.15074 0.268485C6.32264 0.0965771 6.5558 0 6.79892 0H15.2011C15.4442 0 15.6774 0.0965771 15.8493 0.268485L21.7315 6.15074C21.9034 6.32264 22 6.5558 22 6.79892V15.2011C22 15.4442 21.9034 15.6774 21.7315 15.8493L15.8493 21.7315C15.6774 21.9034 15.4442 22 15.2011 22H6.79892C6.5558 22 6.32264 21.9034 6.15074 21.7315L0.268485 15.8493C0.0965771 15.6774 0 15.4442 0 15.2011V6.79892C0 6.5558 0.0965771 6.32264 0.268485 6.15074L6.15074 0.268485ZM7.17861 1.83333L1.83333 7.17861V14.8214L7.17861 20.1667H14.8214L20.1667 14.8214V7.17861L14.8214 1.83333H7.17861Z"/>
<path fill-rule="evenodd" clip-rule="evenodd" d="M11 14.6577C11.5063 14.6577 11.9167 15.0681 11.9167 15.5744V15.5835C11.9167 16.0898 11.5063 16.5002 11 16.5002C10.4937 16.5002 10.0833 16.0898 10.0833 15.5835V15.5744C10.0833 15.0681 10.4937 14.6577 11 14.6577Z"/>
</svg>
