<svg width="17" height="14" viewBox="0 0 17 14" fill="none" xmlns="http://www.w3.org/2000/svg">
<path d="M15.783 11.075L9.68299 0.975C8.98299 -0.325 6.98299 -0.325 6.28299 0.975L0.282991 11.075C-0.517009 12.375 0.482991 13.975 1.98299 13.975H13.983C15.583 13.975 16.483 12.375 15.783 11.075ZM7.98299 11.975C7.38299 11.975 6.98299 11.575 6.98299 10.975C6.98299 10.375 7.38299 9.975 7.98299 9.975C8.58299 9.975 8.98299 10.375 8.98299 10.975C8.98299 11.575 8.58299 11.975 7.98299 11.975ZM8.98299 7.975C8.98299 8.575 8.58299 8.975 7.98299 8.975C7.38299 8.975 6.98299 8.575 6.98299 7.975V3.975C6.98299 3.375 7.38299 2.975 7.98299 2.975C8.58299 2.975 8.98299 3.375 8.98299 3.975V7.975Z"/>
</svg>
