<svg width="16" height="16" viewBox="0 0 16 16" fill="none" xmlns="http://www.w3.org/2000/svg">
<path d="M8 0C3.6 0 0 3.6 0 8C0 12.4 3.6 16 8 16C12.4 16 16 12.4 16 8C16 3.6 12.4 0 8 0ZM14.6 7.4H12.4C12.3333 6.53333 12.2 5.66667 11.9333 4.93333C12.4667 4.66667 12.8667 4.4 13.2667 4C14 4.93333 14.4667 6.13333 14.6 7.4ZM5.86667 11.8667C6.33333 11.7333 6.8 11.6667 7.33333 11.6667V13.7333C6.73333 13.2667 6.26667 12.6667 5.86667 11.8667ZM10.2 4.13333C9.73333 4.26667 9.2 4.33333 8.66667 4.4V2.2C9.26667 2.66667 9.8 3.33333 10.2 4.13333ZM7.33333 2.26667V4.4C6.8 4.33333 6.33333 4.26667 5.86667 4.13333C6.26667 3.33333 6.73333 2.73333 7.33333 2.26667ZM7.33333 5.66667V7.33333H5.06667C5.13333 6.6 5.26667 5.93333 5.46667 5.33333C6 5.53333 6.66667 5.6 7.33333 5.66667ZM7.33333 8.66667V10.3333C6.66667 10.4 6 10.5333 5.4 10.6667C5.2 10.0667 5.06667 9.33333 5 8.66667H7.33333ZM8.66667 13.8V11.6C9.2 11.6667 9.66667 11.7333 10.2 11.8667C9.8 12.6667 9.26667 13.3333 8.66667 13.8ZM8.66667 10.3333V8.66667H11C10.9333 9.4 10.8 10.0667 10.6667 10.6667C10.0667 10.4667 9.4 10.3333 8.66667 10.3333ZM8.66667 7.4V5.73333C9.4 5.66667 10.0667 5.53333 10.6667 5.4C10.8667 6 11 6.73333 11 7.4H8.66667ZM11.4 3.66667C11.0667 2.93333 10.6 2.26667 10.0667 1.73333C10.9333 2 11.6667 2.46667 12.4 3C12.1333 3.26667 11.8 3.46667 11.4 3.66667ZM6 1.66667C5.46667 2.2 5 2.86667 4.66667 3.6C4.26667 3.4 3.93333 3.2 3.66667 2.93333C4.33333 2.33333 5.13333 1.93333 6 1.66667ZM2.73333 3.93333C3.13333 4.26667 3.6 4.6 4.13333 4.86667C3.93333 5.6 3.73333 6.46667 3.66667 7.33333H1.4C1.46667 6.06667 2 4.86667 2.73333 3.93333ZM1.4 8.66667H3.66667C3.73333 9.53333 3.86667 10.4 4.13333 11.2C3.6 11.4667 3.13333 11.8 2.66667 12.1333C2 11.1333 1.46667 9.93333 1.4 8.66667ZM4.66667 12.4C5.06667 13.2 5.53333 13.8667 6.13333 14.4667C5.2 14.2 4.4 13.7333 3.73333 13.1333C3.93333 12.8 4.26667 12.6 4.66667 12.4ZM10.0667 14.3333C10.6 13.8 11.0667 13.1333 11.4 12.4C11.7333 12.6 12.0667 12.8 12.4 13.0667C11.7333 13.6 10.9333 14 10.0667 14.3333ZM13.2667 12.0667C12.8667 11.7333 12.4 11.4 11.9333 11.1333C12.2 10.3333 12.3333 9.53333 12.4 8.66667H14.6C14.5333 9.93333 14 11.0667 13.2667 12.0667Z"/>
</svg>
