<svg width="22" height="22" viewBox="0 0 22 22" fill="none" xmlns="http://www.w3.org/2000/svg">
<path fill-rule="evenodd" clip-rule="evenodd" d="M19 11C19 15.4183 15.4183 19 11 19C6.58172 19 3 15.4183 3 11C3 6.58172 6.58172 3 11 3C15.4183 3 19 6.58172 19 11ZM7.47461 7.16608L8.03413 6.58303C8.34186 6.26237 8.59608 6 8.59908 6C8.60206 6 9.14049 6.55633 9.7956 7.23628C10.4507 7.91624 10.9932 8.47257 11.0011 8.47257C11.009 8.47257 11.5508 7.91644 12.2049 7.2367L13.3943 6.00084L14.5204 7.17298L11.7964 10.011V12.6591H10.2052V10.011L7.47461 7.16608ZM7.05575 11.138C7.12216 10.7296 7.22529 10.3921 7.40336 10.0004C7.44111 9.91729 7.47563 9.84934 7.48007 9.84934C7.48449 9.84934 7.75964 10.1322 8.09148 10.478L8.69483 11.1067L8.66207 11.2472C8.61111 11.4657 8.59639 11.6335 8.60392 11.911C8.61432 12.2948 8.68324 12.5948 8.83551 12.919C9.17241 13.6362 9.76956 14.12 10.5288 14.291C10.6534 14.319 10.7093 14.3229 10.9941 14.3233C11.2842 14.3238 11.333 14.3204 11.466 14.2907C12.2318 14.1198 12.8582 13.608 13.1793 12.8909C13.3444 12.522 13.4108 12.1688 13.397 11.7319C13.3899 11.5064 13.3634 11.317 13.3134 11.1348C13.3072 11.1121 13.4228 10.9848 13.9111 10.4766L14.5164 9.84649L14.5442 9.89356C14.617 10.0166 14.7561 10.3696 14.8248 10.6051C14.9975 11.1976 15.044 11.84 14.9578 12.4406C14.7336 14.0012 13.6972 15.2869 12.2616 15.785C11.765 15.9573 11.2594 16.0264 10.7537 15.991C9.90829 15.9318 9.15461 15.6283 8.49263 15.0806C8.34555 14.9589 7.99859 14.5975 7.88066 14.4433C7.166 13.5083 6.86587 12.3057 7.05575 11.138Z" />
<path fill-rule="evenodd" clip-rule="evenodd" d="M22 11C22 17.0751 17.0751 22 11 22C4.92487 22 0 17.0751 0 11C0 4.92487 4.92487 0 11 0C17.0751 0 22 4.92487 22 11ZM20.2 11C20.2 16.081 16.081 20.2 11 20.2C5.91898 20.2 1.8 16.081 1.8 11C1.8 5.91898 5.91898 1.8 11 1.8C16.081 1.8 20.2 5.91898 20.2 11Z" />
</svg>
