<svg width="212" height="30" viewBox="0 0 212 30" fill="none" xmlns="http://www.w3.org/2000/svg">
<path d="M15.2093 0C19.1919 3.5153 24.4295 5.33289 29.7728 5.05373C30.1936 6.65625 30.4184 8.33532 30.4184 10.0675C30.4184 19.3637 23.9562 27.1737 15.2093 29.388C6.46222 27.1737 6.455e-06 19.3621 6.455e-06 10.0675C-0.00136416 8.37609 0.215543 6.69141 0.64553 5.05373C5.98886 5.33289 11.2266 3.5153 15.2093 0Z"/>
<path d="M8.69141 15.9809L12.4161 19.6856L21.7278 10.4238" stroke="white" stroke-width="2.66667" stroke-linecap="round" stroke-linejoin="round"/>
<path d="M50.727 6.609L46.8574 0.197843C46.8387 0.166137 46.8116 0.139779 46.7788 0.121389C46.746 0.102936 46.7086 0.093111 46.6706 0.092899C46.6326 0.0926871 46.5952 0.102014 46.5622 0.120043C46.5291 0.138071 46.5017 0.164142 46.4825 0.195561L45.3236 2.11664C45.2856 2.17948 45.2656 2.25079 45.2656 2.32347C45.2656 2.39606 45.2856 2.46738 45.3236 2.53029L47.8469 6.71273C47.8849 6.77569 47.9394 6.82794 48.0052 6.86422C48.0712 6.9005 48.1458 6.91958 48.2218 6.91958H50.5396C50.5775 6.91945 50.6148 6.90985 50.6477 6.89165C50.6804 6.87344 50.7077 6.84726 50.7268 6.81584C50.7457 6.78442 50.7557 6.74876 50.7558 6.71248C50.7558 6.6762 50.746 6.64054 50.727 6.609Z"/>
<path d="M40.5884 9.9598L44.458 3.54861C44.4771 3.51719 44.5044 3.49101 44.5371 3.47293C44.57 3.45485 44.6073 3.44537 44.6452 3.44537C44.6832 3.44537 44.7204 3.45485 44.7533 3.47293C44.7861 3.49101 44.8134 3.51719 44.8323 3.54861L45.9919 5.46794C46.0299 5.5309 46.0498 5.60234 46.0498 5.67503C46.0498 5.74772 46.0299 5.81916 45.9919 5.88213L43.4685 10.0647C43.4308 10.1275 43.3762 10.1799 43.3105 10.2161C43.2448 10.2524 43.1702 10.2715 43.0944 10.2715H40.7759C40.7377 10.2716 40.7001 10.2622 40.667 10.2439C40.6339 10.2257 40.6064 10.1994 40.5874 10.1678C40.5683 10.1361 40.5583 10.1002 40.5586 10.0637C40.5587 10.0271 40.5691 9.99122 40.5884 9.9598Z"/>
<path d="M44.8313 10.2695H52.5705C52.6085 10.2694 52.6458 10.2598 52.6787 10.2416C52.7116 10.2235 52.7388 10.1973 52.7578 10.1657C52.7766 10.1343 52.7866 10.0985 52.7866 10.0623C52.7865 10.026 52.7765 9.99032 52.7574 9.9589L51.5996 8.03832C51.5618 7.97548 51.5071 7.92312 51.4413 7.88684C51.3755 7.85055 51.3008 7.83148 51.2247 7.8316H46.1782C46.1024 7.83148 46.0276 7.85055 45.9618 7.88684C45.896 7.92312 45.8413 7.97548 45.8033 8.03832L44.6445 9.9589C44.6254 9.99032 44.6154 10.026 44.6152 10.0623C44.6152 10.0985 44.6252 10.1343 44.6441 10.1657C44.6631 10.1973 44.6904 10.2235 44.7231 10.2416C44.756 10.2598 44.7933 10.2694 44.8313 10.2695Z"/>
<path d="M59.2943 6.38604V6.24253C59.2943 5.88208 59.1674 5.60604 58.9136 5.4149C58.6675 5.21616 58.3445 5.11679 57.9445 5.11679C57.6369 5.11679 57.3947 5.16841 57.2179 5.2714C57.0487 5.36703 56.8872 5.51415 56.7333 5.71277C56.6872 5.77161 56.6371 5.81214 56.5833 5.8342C56.5294 5.85627 56.4564 5.86724 56.3641 5.86724H56.0181C55.9335 5.86724 55.8565 5.83782 55.7873 5.77897C55.7258 5.72012 55.6988 5.6503 55.7066 5.56938C55.7296 5.34857 55.8411 5.13163 56.041 4.91818C56.2487 4.69749 56.5217 4.5172 56.8601 4.37744C57.1985 4.23767 57.56 4.16772 57.9445 4.16772C58.6599 4.16772 59.2367 4.35911 59.675 4.74163C60.1211 5.12427 60.3441 5.66127 60.3441 6.35287V9.71887C60.3441 9.79979 60.3133 9.86961 60.2518 9.92846C60.1904 9.98731 60.1172 10.0167 60.0326 10.0167H59.6057C59.5212 10.0167 59.4481 9.98731 59.3867 9.92846C59.3251 9.86961 59.2943 9.79979 59.2943 9.71887V9.26641C59.1712 9.53123 58.9098 9.74094 58.5099 9.89542C58.1099 10.0499 57.71 10.1272 57.3101 10.1272C56.9178 10.1272 56.5679 10.061 56.2603 9.92846C55.9527 9.78869 55.7142 9.60117 55.545 9.36565C55.3835 9.13026 55.3027 8.86543 55.3027 8.57106C55.3027 8.01923 55.518 7.58883 55.9488 7.27987C56.3795 6.96356 56.9525 6.75011 57.6677 6.63976L59.2943 6.38604ZM59.2943 7.26878L57.9331 7.47849C57.4332 7.55205 57.0447 7.67349 56.7679 7.84268C56.4911 8.00464 56.3525 8.21061 56.3525 8.46072C56.3525 8.64463 56.441 8.8102 56.6179 8.95732C56.7947 9.10445 57.064 9.17813 57.4254 9.17813C57.9792 9.17813 58.4291 9.02727 58.7753 8.72554C59.1213 8.42394 59.2943 8.03032 59.2943 7.54482V7.26878Z"/>
<path d="M63.0754 9.71872C63.0754 9.79964 63.0443 9.86958 62.9827 9.92843C62.9212 9.98728 62.848 10.0167 62.764 10.0167H62.3366C62.2523 10.0167 62.1793 9.98728 62.1177 9.92843C62.0562 9.86958 62.0254 9.79964 62.0254 9.71872V2.47924C62.0254 2.39831 62.0562 2.32841 62.1177 2.26956C62.1793 2.21064 62.2523 2.18121 62.3366 2.18121H62.764C62.848 2.18121 62.9212 2.21064 62.9827 2.26956C63.0443 2.32841 63.0754 2.39831 63.0754 2.47924V9.71872Z"/>
<path d="M67.2304 9.17813C67.9995 9.17813 68.5187 8.89112 68.7883 8.31734C68.8418 8.20687 68.8962 8.12957 68.9497 8.08556C69.0033 8.0413 69.0765 8.01923 69.1684 8.01923H69.5147C69.5994 8.01923 69.6726 8.04878 69.7341 8.10763C69.7957 8.15912 69.8261 8.22158 69.8261 8.29515C69.8261 8.54538 69.7225 8.81382 69.5147 9.10083C69.3075 9.38772 69.0069 9.6306 68.6151 9.82921C68.2226 10.0278 67.7612 10.1272 67.2304 10.1272C66.685 10.1272 66.2114 10.0167 65.8115 9.79605C65.4118 9.57536 65.1039 9.27364 64.8889 8.89112C64.6738 8.50112 64.5543 8.06711 64.5311 7.58883C64.5239 7.50056 64.5195 7.33137 64.5195 7.08126C64.5195 6.90471 64.5239 6.77953 64.5311 6.70609C64.6006 5.95564 64.8657 5.34496 65.3271 4.87416C65.7884 4.40325 66.4228 4.16772 67.2304 4.16772C67.7612 4.16772 68.219 4.2671 68.6035 4.46571C68.9961 4.65697 69.2915 4.89611 69.4914 5.18312C69.6993 5.46266 69.8109 5.72748 69.8261 5.97759C69.834 6.05863 69.8036 6.12845 69.7341 6.1873C69.6726 6.24627 69.5994 6.2757 69.5147 6.2757H69.1684C69.0765 6.2757 69.0033 6.25363 68.9497 6.20937C68.8962 6.16535 68.8418 6.08805 68.7883 5.97759C68.5187 5.40381 67.9995 5.11679 67.2304 5.11679C66.8073 5.11679 66.4388 5.25294 66.123 5.52525C65.8079 5.79742 65.6269 6.20937 65.5813 6.7612C65.5733 6.84212 65.5697 6.97453 65.5697 7.15843C65.5697 7.32775 65.5733 7.45281 65.5813 7.53372C65.6348 8.08556 65.8159 8.4975 66.123 8.7698C66.4388 9.04198 66.8073 9.17813 67.2304 9.17813Z"/>
<path d="M76.5367 9.71872C76.5367 9.79964 76.5056 9.86958 76.4448 9.92843C76.3832 9.98728 76.31 10.0167 76.2252 10.0167H75.7987C75.714 10.0167 75.6409 9.98728 75.5793 9.92843C75.5177 9.86958 75.4866 9.79964 75.4866 9.71872V6.80531C75.4866 6.25348 75.3446 5.83418 75.06 5.54716C74.7754 5.26027 74.3791 5.11676 73.8715 5.11676C73.3717 5.11676 72.9756 5.26027 72.6837 5.54716C72.3991 5.83418 72.2564 6.25348 72.2564 6.80531V9.71872C72.2564 9.79964 72.226 9.86958 72.1645 9.92843C72.1029 9.98728 72.0298 10.0167 71.9449 10.0167H71.5184C71.4337 10.0167 71.3605 9.98728 71.299 9.92843C71.2374 9.86958 71.207 9.79964 71.207 9.71872V2.47924C71.207 2.39831 71.2374 2.32841 71.299 2.26956C71.3605 2.21064 71.4337 2.18121 71.5184 2.18121H71.9449C72.0298 2.18121 72.1029 2.21064 72.1645 2.26956C72.226 2.32841 72.2564 2.39831 72.2564 2.47924V4.91815C72.4259 4.7047 72.6569 4.52815 72.9488 4.38838C73.2486 4.24126 73.6143 4.1677 74.0446 4.1677C74.529 4.1677 74.96 4.26707 75.3366 4.46568C75.714 4.6643 76.0058 4.95131 76.2136 5.32648C76.4288 5.69441 76.5367 6.13204 76.5367 6.63974V9.71872Z"/>
<path d="M80.5793 4.16772C81.402 4.16772 82.0517 4.41796 82.5291 4.91818C83.0055 5.41852 83.2439 6.09902 83.2439 6.95982V7.2578C83.2439 7.33872 83.2135 7.40867 83.1518 7.46752C83.0903 7.52637 83.0171 7.55579 82.9324 7.55579H78.9643V7.622C78.9795 8.10763 79.133 8.49015 79.4256 8.7698C79.7255 9.04198 80.11 9.17813 80.5793 9.17813C80.9639 9.17813 81.2601 9.13026 81.4673 9.03463C81.6831 8.939 81.875 8.80284 82.0445 8.6263C82.106 8.56745 82.1596 8.52693 82.206 8.50486C82.2595 8.48279 82.3291 8.47169 82.4132 8.47169H82.7593C82.852 8.47169 82.9288 8.50112 82.9903 8.55997C83.0519 8.61894 83.0787 8.68889 83.0707 8.7698C83.0403 8.96842 82.9252 9.17439 82.7246 9.38772C82.5327 9.59369 82.2516 9.77036 81.883 9.91749C81.5215 10.0573 81.087 10.1272 80.5793 10.1272C80.0869 10.1272 79.6486 10.0205 79.2641 9.80715C78.8796 9.58634 78.5717 9.28473 78.3414 8.90209C78.1184 8.51957 77.9836 8.08917 77.9372 7.6109C77.922 7.39022 77.9141 7.22102 77.9141 7.10333C77.9141 6.98563 77.922 6.81644 77.9372 6.59575C77.9836 6.13955 78.1184 5.72748 78.3414 5.35967C78.5717 4.99186 78.8759 4.70123 79.2525 4.48778C79.6371 4.27445 80.0796 4.16772 80.5793 4.16772ZM82.206 6.62879V6.59575C82.206 6.1469 82.0561 5.79007 81.7555 5.52525C81.4637 5.25294 81.0711 5.11679 80.5793 5.11679C80.1332 5.11679 79.7523 5.25294 79.4372 5.52525C79.1294 5.79742 78.9716 6.15426 78.9643 6.59575V6.62879H82.206Z"/>
<path d="M85.6882 4.91818C85.8729 4.69014 86.0807 4.50985 86.3117 4.37744C86.542 4.23767 86.8499 4.16772 87.2344 4.16772C88.1339 4.16772 88.7647 4.48778 89.1261 5.12789C89.3491 4.81893 89.6033 4.58353 89.888 4.42157C90.1719 4.25238 90.5448 4.16772 91.0069 4.16772C91.7602 4.16772 92.3177 4.38479 92.6792 4.81893C93.0485 5.25294 93.2332 5.86724 93.2332 6.66183V9.71887C93.2332 9.79979 93.202 9.86961 93.1405 9.92846C93.0789 9.98731 93.0065 10.0167 92.9218 10.0167H92.4944C92.4105 10.0167 92.3373 9.98731 92.2758 9.92846C92.2142 9.86961 92.1831 9.79979 92.1831 9.71887V6.7723C92.1831 5.66863 91.7298 5.11679 90.8223 5.11679C90.4065 5.11679 90.0763 5.24933 89.8301 5.51415C89.5837 5.77897 89.4606 6.17259 89.4606 6.695V9.71887C89.4606 9.79979 89.4302 9.86961 89.3687 9.92846C89.3071 9.98731 89.234 10.0167 89.1493 10.0167H88.7226C88.6379 10.0167 88.5647 9.98731 88.5032 9.92846C88.4416 9.86961 88.4112 9.79979 88.4112 9.71887V6.7723C88.4112 5.66863 87.9572 5.11679 87.0497 5.11679C86.6347 5.11679 86.3037 5.24933 86.0575 5.51415C85.8113 5.77897 85.6882 6.17259 85.6882 6.695V9.71887C85.6882 9.79979 85.6577 9.86961 85.5961 9.92846C85.5346 9.98731 85.4614 10.0167 85.3767 10.0167H84.9502C84.8654 10.0167 84.7923 9.98731 84.7306 9.92846C84.6691 9.86961 84.6387 9.79979 84.6387 9.71887V4.57605C84.6387 4.49514 84.6691 4.42519 84.7306 4.36634C84.7923 4.30749 84.8654 4.27807 84.9502 4.27807H85.3767C85.4614 4.27807 85.5346 4.30749 85.5961 4.36634C85.6577 4.42519 85.6882 4.49514 85.6882 4.57605V4.91818Z"/>
<path d="M96.4622 11.8489C96.3927 12.0254 96.2811 12.1137 96.1276 12.1137H95.6546C95.5779 12.1137 95.5127 12.0879 95.4584 12.0364C95.4048 11.9849 95.378 11.9224 95.378 11.8489C95.378 11.8194 95.3816 11.7936 95.3896 11.7716L96.497 9.46509L94.2128 4.62038C94.2048 4.59819 94.2012 4.5725 94.2012 4.54308C94.2012 4.46952 94.228 4.40693 94.2815 4.35544C94.3359 4.30394 94.401 4.27826 94.4778 4.27826H94.9508C95.105 4.27826 95.2165 4.36653 95.2853 4.54308L97.0619 8.29521L98.8616 4.54308C98.9312 4.36653 99.0427 4.27826 99.1962 4.27826H99.6692C99.7459 4.27826 99.8119 4.30394 99.8654 4.35544C99.919 4.40693 99.9458 4.46952 99.9458 4.54308C99.9458 4.5725 99.9422 4.59819 99.935 4.62038L96.4622 11.8489Z"/>
<path d="M47.3191 28.0838C49.8742 28.0838 51.3342 26.6988 52.1686 25.2795L50.048 24.2707C49.5613 25.2112 48.5184 25.9294 47.3191 25.9294C45.2158 25.9294 43.6862 24.3392 43.6862 22.1847C43.6862 20.0302 45.2158 18.4399 47.3191 18.4399C48.5184 18.4399 49.5613 19.1752 50.048 20.0986L52.1686 19.0727C51.3517 17.6534 49.8742 16.2855 47.3191 16.2855C43.8427 16.2855 41.1484 18.6793 41.1484 22.1847C41.1484 25.69 43.8427 28.0838 47.3191 28.0838ZM57.1838 28.0838C58.4874 28.0838 59.8084 27.6906 60.6427 26.9382L59.6693 25.5361C59.1306 26.0491 58.1397 26.3568 57.4271 26.3568C56.0018 26.3568 55.15 25.4848 55.011 24.4417H61.2512V23.9629C61.2512 21.2613 59.5477 19.4146 57.0447 19.4146C54.4895 19.4146 52.6993 21.3469 52.6993 23.7407C52.6993 26.3911 54.6286 28.0838 57.1838 28.0838ZM59.1131 22.9712H54.9762C55.0805 22.1504 55.6715 21.1416 57.0447 21.1416C58.5048 21.1416 59.061 22.1847 59.1131 22.9712ZM64.7054 27.8786V22.4241C65.0703 21.894 66.0437 21.4836 66.7738 21.4836C67.0171 21.4836 67.2257 21.5007 67.3822 21.5349V19.4146C66.3393 19.4146 65.2964 20.013 64.7054 20.7484V19.6198H62.4978V27.8786H64.7054ZM71.2301 28.0838C72.1513 28.0838 72.7423 27.8445 73.0726 27.5537L72.6032 25.9123C72.4816 26.032 72.1688 26.1517 71.8384 26.1517C71.3517 26.1517 71.0736 25.7583 71.0736 25.2454V21.5178H72.7771V19.6198H71.0736V17.3627H68.8487V19.6198H67.4582V21.5178H68.8487V25.8267C68.8487 27.2972 69.6831 28.0838 71.2301 28.0838ZM75.0346 18.7307C75.7646 18.7307 76.3556 18.1493 76.3556 17.4311C76.3556 16.713 75.7646 16.1487 75.0346 16.1487C74.3219 16.1487 73.7136 16.713 73.7136 17.4311C73.7136 18.1493 74.3219 18.7307 75.0346 18.7307ZM76.147 27.8786V19.6198H73.9395V27.8786H76.147ZM80.6996 27.8786V21.5178H82.403V19.6198H80.6996V19.1752C80.6996 18.4229 81.1168 18.0125 81.7425 18.0125C82.0381 18.0125 82.2814 18.0979 82.4552 18.2176L82.9072 16.6445C82.5073 16.4394 81.9338 16.3025 81.308 16.3025C79.6567 16.3025 78.4747 17.3798 78.4747 19.1752V19.6198H77.0842V21.5178H78.4747V27.8786H80.6996ZM84.767 18.7307C85.497 18.7307 86.088 18.1493 86.088 17.4311C86.088 16.713 85.497 16.1487 84.767 16.1487C84.0544 16.1487 83.4459 16.713 83.4459 17.4311C83.4459 18.1493 84.0544 18.7307 84.767 18.7307ZM85.8794 27.8786V19.6198H83.672V27.8786H85.8794ZM91.669 28.0838C92.9727 28.0838 94.2938 27.6906 95.1281 26.9382L94.1547 25.5361C93.6158 26.0491 92.6251 26.3568 91.9124 26.3568C90.4871 26.3568 89.6354 25.4848 89.4963 24.4417H95.7364V23.9629C95.7364 21.2613 94.033 19.4146 91.53 19.4146C88.9749 19.4146 87.1845 21.3469 87.1845 23.7407C87.1845 26.3911 89.1139 28.0838 91.669 28.0838ZM93.5985 22.9712H89.4616C89.5659 22.1504 90.1569 21.1416 91.53 21.1416C92.9901 21.1416 93.5463 22.1847 93.5985 22.9712ZM104.979 27.8786V16.4736H102.754V20.6799C102.094 19.8421 101.155 19.4146 100.164 19.4146C98.0265 19.4146 96.4448 21.0561 96.4448 23.7578C96.4448 26.5107 98.0439 28.0838 100.164 28.0838C101.173 28.0838 102.094 27.6392 102.754 26.8185V27.8786H104.979ZM100.842 26.1517C99.5908 26.1517 98.7217 25.177 98.7217 23.7578C98.7217 22.3215 99.5908 21.3469 100.842 21.3469C101.59 21.3469 102.389 21.7401 102.754 22.2872V25.2112C102.389 25.7583 101.59 26.1517 100.842 26.1517ZM113.441 27.8786V16.4736H110.972V27.8786H113.441ZM123.216 27.8786V22.0478C123.216 20.4406 122.33 19.4146 120.487 19.4146C119.114 19.4146 118.089 20.0644 117.55 20.697V19.6198H115.342V27.8786H117.55V22.3215C117.915 21.8256 118.593 21.3469 119.462 21.3469C120.401 21.3469 121.009 21.7401 121.009 22.8857V27.8786H123.216ZM127.773 27.8786V21.5178H129.476V19.6198H127.773V19.1752C127.773 18.4058 128.206 18.0125 128.815 18.0125C129.214 18.0125 129.511 18.1322 129.736 18.3545L130.571 17.0721C130.032 16.5078 129.181 16.3025 128.381 16.3025C126.695 16.3025 125.547 17.4141 125.547 19.1752V19.6198H124.157V21.5178H125.547V27.8786H127.773ZM132.607 27.8786V22.4241C132.972 21.894 133.945 21.4836 134.676 21.4836C134.918 21.4836 135.128 21.5007 135.284 21.5349V19.4146C134.241 19.4146 133.198 20.013 132.607 20.7484V19.6198H130.399V27.8786H132.607ZM143.563 27.8786V22.5438C143.563 20.167 141.808 19.4146 139.896 19.4146C138.574 19.4146 137.254 19.825 136.228 20.7141L137.063 22.1675C137.776 21.5178 138.609 21.1929 139.514 21.1929C140.626 21.1929 141.355 21.7401 141.355 22.578V23.6894C140.8 23.0396 139.809 22.6806 138.696 22.6806C137.358 22.6806 135.777 23.4158 135.777 25.348C135.777 27.1946 137.358 28.0838 138.696 28.0838C139.792 28.0838 140.782 27.6906 141.355 27.0237V27.8786H143.563ZM139.584 26.6134C138.714 26.6134 138.001 26.1687 138.001 25.3992C138.001 24.5957 138.714 24.151 139.584 24.151C140.296 24.151 140.992 24.3904 141.355 24.8692V25.8952C140.992 26.374 140.296 26.6134 139.584 26.6134ZM148.43 28.0838C150.759 28.0838 152.064 26.9382 152.064 25.4335C152.064 22.0992 147.092 23.1251 147.092 21.894C147.092 21.4323 147.613 21.0732 148.413 21.0732C149.438 21.0732 150.394 21.5007 150.899 22.0307L151.785 20.5432C150.951 19.8933 149.821 19.4146 148.395 19.4146C146.189 19.4146 144.954 20.6287 144.954 22.0136C144.954 25.2624 149.943 24.151 149.943 25.5189C149.943 26.032 149.491 26.4081 148.535 26.4081C147.492 26.4081 146.24 25.8438 145.632 25.2795L144.676 26.8014C145.562 27.6051 146.97 28.0838 148.43 28.0838ZM156.158 28.0838C157.079 28.0838 157.669 27.8445 158 27.5537L157.531 25.9123C157.409 26.032 157.096 26.1517 156.766 26.1517C156.279 26.1517 156.001 25.7583 156.001 25.2454V21.5178H157.704V19.6198H156.001V17.3627H153.776V19.6198H152.385V21.5178H153.776V25.8267C153.776 27.2972 154.611 28.0838 156.158 28.0838ZM161.075 27.8786V22.4241C161.44 21.894 162.413 21.4836 163.143 21.4836C163.386 21.4836 163.594 21.5007 163.751 21.5349V19.4146C162.708 19.4146 161.665 20.013 161.075 20.7484V19.6198H158.867V27.8786H161.075ZM172.658 27.8786V19.6198H170.45V25.2112C170.067 25.69 169.39 26.1517 168.537 26.1517C167.599 26.1517 166.991 25.7755 166.991 24.6298V19.6198H164.783V25.4848C164.783 27.0921 165.653 28.0838 167.494 28.0838C168.867 28.0838 169.877 27.4683 170.45 26.8355V27.8786H172.658ZM178.412 28.0838C180.133 28.0838 181.176 27.3486 181.733 26.5791L180.29 25.2624C179.89 25.8097 179.282 26.1517 178.517 26.1517C177.178 26.1517 176.239 25.177 176.239 23.7407C176.239 22.3044 177.178 21.3469 178.517 21.3469C179.282 21.3469 179.89 21.6546 180.29 22.236L181.733 20.9022C181.176 20.1499 180.133 19.4146 178.412 19.4146C175.823 19.4146 173.962 21.21 173.962 23.7407C173.962 26.2884 175.823 28.0838 178.412 28.0838ZM185.644 28.0838C186.565 28.0838 187.156 27.8445 187.487 27.5537L187.017 25.9123C186.895 26.032 186.582 26.1517 186.252 26.1517C185.766 26.1517 185.487 25.7583 185.487 25.2454V21.5178H187.19V19.6198H185.487V17.3627H183.263V19.6198H181.872V21.5178H183.263V25.8267C183.263 27.2972 184.096 28.0838 185.644 28.0838ZM196.227 27.8786V19.6198H194.02V25.2112C193.637 25.69 192.959 26.1517 192.108 26.1517C191.169 26.1517 190.561 25.7755 190.561 24.6298V19.6198H188.353V25.4848C188.353 27.0921 189.222 28.0838 191.065 28.0838C192.438 28.0838 193.446 27.4683 194.02 26.8355V27.8786H196.227ZM200.279 27.8786V22.4241C200.645 21.894 201.618 21.4836 202.348 21.4836C202.591 21.4836 202.8 21.5007 202.956 21.5349V19.4146C201.913 19.4146 200.87 20.013 200.279 20.7484V19.6198H198.072V27.8786H200.279ZM207.933 28.0838C209.237 28.0838 210.558 27.6906 211.393 26.9382L210.418 25.5361C209.88 26.0491 208.889 26.3568 208.177 26.3568C206.751 26.3568 205.899 25.4848 205.761 24.4417H212.001V23.9629C212.001 21.2613 210.297 19.4146 207.794 19.4146C205.239 19.4146 203.448 21.3469 203.448 23.7407C203.448 26.3911 205.378 28.0838 207.933 28.0838ZM209.863 22.9712H205.726C205.831 22.1504 206.421 21.1416 207.794 21.1416C209.255 21.1416 209.81 22.1847 209.863 22.9712Z"/>
<defs>
<linearGradient id="paint0_linear" x1="40.71" y1="-12.6998" x2="-1.65843" y2="-10.7444" gradientUnits="userSpaceOnUse">
<stop/>
<stop offset="1"/>
</linearGradient>
</defs>
</svg>
