<svg width="186" height="41" viewBox="0 0 186 41" fill="none" xmlns="http://www.w3.org/2000/svg">
<path d="M20.344 8.0625C23.5403 10.9304 27.7438 12.4133 32.0321 12.1855C32.3698 13.4929 32.5502 14.8628 32.5502 16.276C32.5502 23.8601 27.3639 30.2318 20.344 32.0383C13.324 30.2318 8.1377 23.8588 8.1377 16.276C8.1366 14.896 8.31068 13.5216 8.65577 12.1855C12.9441 12.4133 17.1477 10.9304 20.344 8.0625Z" fill="url(#paint0_linear)"/>
<path d="M15.1123 21.1002L18.1016 24.1227L25.5748 16.5664" stroke="white" stroke-width="2.66667" stroke-linecap="round" stroke-linejoin="round"/>
<path d="M48.8499 13.4528L45.7443 8.22234C45.7293 8.19647 45.7075 8.17497 45.6812 8.15997C45.6549 8.14492 45.6249 8.1369 45.5944 8.13672C45.5639 8.13655 45.5339 8.14416 45.5074 8.15887C45.4808 8.17357 45.4588 8.19485 45.4434 8.22048L44.5133 9.78776C44.4828 9.83903 44.4668 9.89721 44.4668 9.9565C44.4668 10.0157 44.4828 10.0739 44.5133 10.1252L46.5384 13.5374C46.5689 13.5888 46.6127 13.6314 46.6655 13.661C46.7184 13.6906 46.7783 13.7062 46.8393 13.7061H48.6995C48.7299 13.7061 48.7598 13.6982 48.7862 13.6834C48.8125 13.6685 48.8344 13.6472 48.8497 13.6216C48.8649 13.5959 48.8729 13.5668 48.873 13.5372C48.873 13.5076 48.8651 13.4785 48.8499 13.4528Z" fill="#CACED4"/>
<path d="M40.7119 16.1878L43.8176 10.9573C43.8328 10.9316 43.8547 10.9104 43.881 10.8956C43.9074 10.8808 43.9373 10.873 43.9677 10.873C43.9982 10.873 44.0281 10.8808 44.0545 10.8956C44.0808 10.9104 44.1027 10.9316 44.1179 10.9573L45.0485 12.5232C45.079 12.5745 45.095 12.6328 45.095 12.6921C45.095 12.7515 45.079 12.8097 45.0485 12.8611L43.0235 16.2733C42.9931 16.3246 42.9493 16.3673 42.8966 16.397C42.8438 16.4265 42.784 16.4421 42.7231 16.4421H40.8624C40.8317 16.4422 40.8016 16.4344 40.775 16.4196C40.7484 16.4047 40.7264 16.3833 40.7111 16.3575C40.6958 16.3316 40.6878 16.3023 40.688 16.2725C40.6881 16.2427 40.6964 16.2135 40.7119 16.1878Z" fill="#CACED4"/>
<path d="M44.1175 16.4401H50.3287C50.3591 16.44 50.389 16.4322 50.4154 16.4174C50.4418 16.4025 50.4637 16.3812 50.4789 16.3555C50.4941 16.3298 50.5021 16.3007 50.502 16.2711C50.502 16.2415 50.4939 16.2124 50.4786 16.1867L49.5495 14.6199C49.519 14.5686 49.4751 14.5259 49.4223 14.4963C49.3695 14.4667 49.3096 14.4511 49.2486 14.4512H45.1985C45.1375 14.4511 45.0776 14.4667 45.0248 14.4963C44.9719 14.5259 44.9281 14.5686 44.8976 14.6199L43.9675 16.1867C43.9522 16.2124 43.9442 16.2415 43.9441 16.2711C43.944 16.3007 43.9521 16.3298 43.9672 16.3555C43.9825 16.3812 44.0043 16.4025 44.0307 16.4174C44.0571 16.4322 44.087 16.44 44.1175 16.4401Z" fill="#CACED4"/>
<path d="M55.7237 13.2707V13.1536C55.7237 12.8595 55.6219 12.6344 55.4182 12.4784C55.2207 12.3162 54.9615 12.2352 54.6405 12.2352C54.3936 12.2352 54.1991 12.2772 54.0572 12.3613C53.9214 12.4393 53.7918 12.5594 53.6684 12.7214C53.6313 12.7694 53.5912 12.8025 53.548 12.8205C53.5048 12.8384 53.4461 12.8475 53.372 12.8475H53.0943C53.0264 12.8475 52.9647 12.8234 52.9091 12.7754C52.8598 12.7274 52.8382 12.6704 52.8443 12.6044C52.8629 12.4243 52.9523 12.2473 53.1128 12.0732C53.2795 11.8931 53.4986 11.746 53.7702 11.632C54.0417 11.518 54.3318 11.4609 54.6405 11.4609C55.2145 11.4609 55.6774 11.617 56.0293 11.9291C56.3873 12.2413 56.5663 12.6794 56.5663 13.2436V15.9897C56.5663 16.0557 56.5416 16.1127 56.4922 16.1607C56.4428 16.2088 56.3842 16.2328 56.3163 16.2328H55.9737C55.9058 16.2328 55.8472 16.2088 55.7978 16.1607C55.7484 16.1127 55.7237 16.0557 55.7237 15.9897V15.6205C55.625 15.8366 55.4151 16.0077 55.0942 16.1337C54.7732 16.2598 54.4522 16.3228 54.1313 16.3228C53.8165 16.3228 53.5356 16.2688 53.2887 16.1607C53.0418 16.0467 52.8505 15.8937 52.7147 15.7016C52.5851 15.5095 52.5203 15.2934 52.5203 15.0533C52.5203 14.6031 52.6931 14.252 53.0387 13.9999C53.3844 13.7418 53.8442 13.5677 54.4183 13.4777L55.7237 13.2707ZM55.7237 13.9909L54.6312 14.1619C54.23 14.222 53.9183 14.321 53.6961 14.4591C53.4739 14.5911 53.3628 14.7592 53.3628 14.9633C53.3628 15.1133 53.4338 15.2484 53.5758 15.3684C53.7177 15.4885 53.9337 15.5485 54.2238 15.5485C54.6683 15.5485 55.0293 15.4255 55.3071 15.1794C55.5848 14.9333 55.7237 14.6121 55.7237 14.216V13.9909Z" fill="#CACED4"/>
<path d="M58.7599 15.9912C58.7599 16.0572 58.7349 16.1142 58.6855 16.1623C58.6361 16.2103 58.5774 16.2343 58.51 16.2343H58.1671C58.0993 16.2343 58.0407 16.2103 57.9913 16.1623C57.9419 16.1142 57.9172 16.0572 57.9172 15.9912V10.0849C57.9172 10.0189 57.9419 9.96188 57.9913 9.91387C58.0407 9.8658 58.0993 9.8418 58.1671 9.8418H58.51C58.5774 9.8418 58.6361 9.8658 58.6855 9.91387C58.7349 9.96188 58.7599 10.0189 58.7599 10.0849V15.9912Z" fill="#CACED4"/>
<path d="M62.0938 15.5485C62.7111 15.5485 63.1279 15.3144 63.3441 14.8463C63.3871 14.7562 63.4307 14.6932 63.4737 14.6572C63.5167 14.6211 63.5754 14.6031 63.6493 14.6031H63.9271C63.9951 14.6031 64.0538 14.6272 64.1032 14.6752C64.1526 14.7172 64.177 14.7682 64.177 14.8282C64.177 15.0323 64.0939 15.2514 63.9271 15.4855C63.7609 15.7196 63.5196 15.9177 63.2052 16.0797C62.8901 16.2418 62.5199 16.3228 62.0938 16.3228C61.6562 16.3228 61.276 16.2328 60.9552 16.0527C60.6343 15.8726 60.3873 15.6265 60.2147 15.3144C60.042 14.9963 59.9461 14.6422 59.9275 14.252C59.9217 14.18 59.9182 14.0419 59.9182 13.8378C59.9182 13.6938 59.9217 13.5917 59.9275 13.5318C59.9833 12.9195 60.196 12.4213 60.5663 12.0372C60.9366 11.653 61.4457 11.4609 62.0938 11.4609C62.5199 11.4609 62.8872 11.542 63.1959 11.704C63.5109 11.8601 63.7481 12.0551 63.9085 12.2893C64.0753 12.5174 64.1648 12.7334 64.177 12.9375C64.1834 13.0035 64.159 13.0605 64.1032 13.1085C64.0538 13.1566 63.9951 13.1806 63.9271 13.1806H63.6493C63.5754 13.1806 63.5167 13.1626 63.4737 13.1266C63.4307 13.0906 63.3871 13.0275 63.3441 12.9375C63.1279 12.4693 62.7111 12.2352 62.0938 12.2352C61.7544 12.2352 61.4585 12.3463 61.2051 12.5684C60.9523 12.7904 60.8069 13.1266 60.7703 13.5767C60.7639 13.6428 60.761 13.7508 60.761 13.9008C60.761 14.039 60.7639 14.141 60.7703 14.207C60.8133 14.6572 60.9587 14.9933 61.2051 15.2154C61.4585 15.4374 61.7544 15.5485 62.0938 15.5485Z" fill="#CACED4"/>
<path d="M69.5631 15.9912C69.5631 16.0572 69.5381 16.1142 69.4892 16.1623C69.4398 16.2103 69.3811 16.2343 69.3131 16.2343H68.9708C68.9028 16.2343 68.8441 16.2103 68.7947 16.1623C68.7452 16.1142 68.7202 16.0572 68.7202 15.9912V13.6143C68.7202 13.1641 68.6063 12.822 68.3779 12.5879C68.1495 12.3538 67.8315 12.2367 67.4241 12.2367C67.023 12.2367 66.7051 12.3538 66.4708 12.5879C66.2424 12.822 66.1279 13.1641 66.1279 13.6143V15.9912C66.1279 16.0572 66.1035 16.1142 66.0541 16.1623C66.0046 16.2103 65.9459 16.2343 65.8779 16.2343H65.5356C65.4676 16.2343 65.4089 16.2103 65.3595 16.1623C65.3101 16.1142 65.2856 16.0572 65.2856 15.9912V10.0849C65.2856 10.0189 65.3101 9.96188 65.3595 9.91387C65.4089 9.8658 65.4676 9.8418 65.5356 9.8418H65.8779C65.9459 9.8418 66.0046 9.8658 66.0541 9.91387C66.1035 9.96188 66.1279 10.0189 66.1279 10.0849V12.0747C66.2639 11.9006 66.4493 11.7566 66.6836 11.6425C66.9242 11.5225 67.2177 11.4624 67.563 11.4624C67.9518 11.4624 68.2977 11.5435 68.5999 11.7055C68.9028 11.8676 69.137 12.1017 69.3038 12.4078C69.4765 12.7079 69.5631 13.0651 69.5631 13.4792V15.9912Z" fill="#CACED4"/>
<path d="M72.8075 11.4609C73.4678 11.4609 73.9891 11.665 74.3722 12.0732C74.7546 12.4813 74.9459 13.0365 74.9459 13.7388V13.9819C74.9459 14.0479 74.9215 14.1049 74.8721 14.153C74.8227 14.201 74.7639 14.225 74.6959 14.225H71.5113V14.279C71.5235 14.6752 71.6467 14.9873 71.8815 15.2154C72.1222 15.4374 72.4308 15.5485 72.8075 15.5485C73.1161 15.5485 73.3538 15.5095 73.5201 15.4315C73.6933 15.3535 73.8473 15.2424 73.9833 15.0983C74.0327 15.0503 74.0757 15.0173 74.1129 14.9993C74.156 14.9813 74.2118 14.9723 74.2792 14.9723H74.557C74.6314 14.9723 74.693 14.9963 74.7424 15.0443C74.7918 15.0924 74.8134 15.1494 74.807 15.2154C74.7825 15.3775 74.6901 15.5455 74.5291 15.7196C74.3751 15.8876 74.1496 16.0317 73.8537 16.1517C73.5637 16.2658 73.2149 16.3228 72.8075 16.3228C72.4122 16.3228 72.0605 16.2358 71.7519 16.0617C71.4433 15.8816 71.1962 15.6355 71.0114 15.3234C70.8324 15.0113 70.7243 14.6601 70.6871 14.27C70.6748 14.0899 70.6685 13.9519 70.6685 13.8559C70.6685 13.7598 70.6748 13.6218 70.6871 13.4417C70.7243 13.0695 70.8324 12.7334 71.0114 12.4333C71.1962 12.1332 71.4404 11.8961 71.7426 11.722C72.0513 11.548 72.4064 11.4609 72.8075 11.4609ZM74.1129 13.4687V13.4417C74.1129 13.0755 73.9926 12.7844 73.7514 12.5684C73.5172 12.3463 73.2021 12.2352 72.8075 12.2352C72.4494 12.2352 72.1437 12.3463 71.8908 12.5684C71.6438 12.7904 71.5171 13.0816 71.5113 13.4417V13.4687H74.1129Z" fill="#CACED4"/>
<path d="M76.9077 12.0732C77.0559 11.8871 77.2227 11.7401 77.4081 11.632C77.5929 11.518 77.84 11.4609 78.1486 11.4609C78.8705 11.4609 79.3768 11.722 79.6668 12.2442C79.8458 11.9921 80.0498 11.8001 80.2783 11.668C80.5061 11.53 80.8054 11.4609 81.1763 11.4609C81.7808 11.4609 82.2283 11.638 82.5184 11.9921C82.8148 12.3463 82.963 12.8475 82.963 13.4957V15.9897C82.963 16.0557 82.938 16.1128 82.8886 16.1608C82.8392 16.2088 82.7811 16.2328 82.7131 16.2328H82.3701C82.3027 16.2328 82.244 16.2088 82.1946 16.1608C82.1452 16.1128 82.1202 16.0557 82.1202 15.9897V13.5858C82.1202 12.6854 81.7564 12.2352 81.0281 12.2352C80.6944 12.2352 80.4294 12.3433 80.2318 12.5594C80.0341 12.7754 79.9353 13.0966 79.9353 13.5228V15.9897C79.9353 16.0557 79.9109 16.1128 79.8615 16.1608C79.8121 16.2088 79.7534 16.2328 79.6854 16.2328H79.343C79.275 16.2328 79.2163 16.2088 79.1669 16.1608C79.1175 16.1128 79.0931 16.0557 79.0931 15.9897V13.5858C79.0931 12.6854 78.7287 12.2352 78.0004 12.2352C77.6673 12.2352 77.4017 12.3433 77.2041 12.5594C77.0065 12.7754 76.9077 13.0966 76.9077 13.5228V15.9897C76.9077 16.0557 76.8832 16.1128 76.8338 16.1608C76.7844 16.2088 76.7257 16.2328 76.6577 16.2328H76.3154C76.2474 16.2328 76.1887 16.2088 76.1392 16.1608C76.0898 16.1128 76.0654 16.0557 76.0654 15.9897V11.7941C76.0654 11.728 76.0898 11.671 76.1392 11.623C76.1887 11.575 76.2474 11.551 76.3154 11.551H76.6577C76.7257 11.551 76.7844 11.575 76.8338 11.623C76.8832 11.671 76.9077 11.728 76.9077 11.7941V12.0732Z" fill="#CACED4"/>
<path d="M85.5544 17.7291C85.4986 17.8731 85.4091 17.9452 85.2859 17.9452H84.9063C84.8447 17.9452 84.7924 17.9242 84.7488 17.8821C84.7058 17.8401 84.6843 17.7891 84.6843 17.7291C84.6843 17.7051 84.6872 17.6841 84.6936 17.6661L85.5823 15.7843L83.749 11.8319C83.7427 11.8138 83.7397 11.7928 83.7397 11.7688C83.7397 11.7088 83.7613 11.6578 83.8043 11.6157C83.8479 11.5737 83.9002 11.5527 83.9618 11.5527H84.3413C84.4651 11.5527 84.5547 11.6248 84.6099 11.7688L86.0357 14.83L87.4801 11.7688C87.5359 11.6248 87.6254 11.5527 87.7486 11.5527H88.1282C88.1898 11.5527 88.2427 11.5737 88.2857 11.6157C88.3287 11.6578 88.3502 11.7088 88.3502 11.7688C88.3502 11.7928 88.3473 11.8138 88.3415 11.8319L85.5544 17.7291Z" fill="#CACED4"/>
<path d="M46.1131 30.9734C48.1638 30.9734 49.3356 29.8435 50.0052 28.6856L48.3033 27.8626C47.9127 28.6298 47.0757 29.2157 46.1131 29.2157C44.4252 29.2157 43.1976 27.9184 43.1976 26.1607C43.1976 24.403 44.4252 23.1056 46.1131 23.1056C47.0757 23.1056 47.9127 23.7055 48.3033 24.4588L50.0052 23.6218C49.3495 22.4639 48.1638 21.3479 46.1131 21.3479C43.3231 21.3479 41.1609 23.3009 41.1609 26.1607C41.1609 29.0204 43.3231 30.9734 46.1131 30.9734ZM54.0301 30.9734C55.0764 30.9734 56.1366 30.6526 56.8062 30.0388L56.025 28.8949C55.5925 29.3134 54.7974 29.5645 54.2254 29.5645C53.0815 29.5645 52.398 28.853 52.2864 28.0021H57.2944V27.6115C57.2944 25.4074 55.9273 23.9008 53.9185 23.9008C51.8679 23.9008 50.431 25.4771 50.431 27.4301C50.431 29.5924 51.9795 30.9734 54.0301 30.9734ZM55.5786 26.8024H52.2585C52.3422 26.1328 52.8165 25.3097 53.9185 25.3097C55.0903 25.3097 55.5367 26.1607 55.5786 26.8024ZM60.0666 30.806V26.356C60.3596 25.9235 61.1408 25.5887 61.7267 25.5887C61.922 25.5887 62.0894 25.6027 62.2149 25.6306V23.9008C61.3779 23.9008 60.5409 24.389 60.0666 24.9889V24.0682H58.295V30.806H60.0666ZM65.3031 30.9734C66.0425 30.9734 66.5168 30.7781 66.7818 30.541L66.4052 29.2018C66.3075 29.2994 66.0564 29.3971 65.7914 29.3971C65.4008 29.3971 65.1776 29.0762 65.1776 28.6577V25.6166H66.5447V24.0682H65.1776V22.2268H63.392V24.0682H62.276V25.6166H63.392V29.132C63.392 30.3317 64.0616 30.9734 65.3031 30.9734ZM68.3564 23.3428C68.9423 23.3428 69.4166 22.8685 69.4166 22.2826C69.4166 21.6967 68.9423 21.2363 68.3564 21.2363C67.7845 21.2363 67.2962 21.6967 67.2962 22.2826C67.2962 22.8685 67.7845 23.3428 68.3564 23.3428ZM69.2492 30.806V24.0682H67.4776V30.806H69.2492ZM72.903 30.806V25.6166H74.2701V24.0682H72.903V23.7055C72.903 23.0917 73.2378 22.7569 73.74 22.7569C73.9771 22.7569 74.1724 22.8266 74.3119 22.9243L74.6746 21.6409C74.3538 21.4735 73.8934 21.3619 73.3912 21.3619C72.066 21.3619 71.1174 22.2407 71.1174 23.7055V24.0682H70.0014V25.6166H71.1174V30.806H72.903ZM76.1673 23.3428C76.7532 23.3428 77.2275 22.8685 77.2275 22.2826C77.2275 21.6967 76.7532 21.2363 76.1673 21.2363C75.5953 21.2363 75.1071 21.6967 75.1071 22.2826C75.1071 22.8685 75.5953 23.3428 76.1673 23.3428ZM77.0601 30.806V24.0682H75.2884V30.806H77.0601ZM81.7066 30.9734C82.7528 30.9734 83.813 30.6526 84.4826 30.0388L83.7014 28.8949C83.269 29.3134 82.4738 29.5645 81.9019 29.5645C80.758 29.5645 80.0744 28.853 79.9628 28.0021H84.9709V27.6115C84.9709 25.4074 83.6038 23.9008 81.595 23.9008C79.5443 23.9008 78.1075 25.4771 78.1075 27.4301C78.1075 29.5924 79.6559 30.9734 81.7066 30.9734ZM83.255 26.8024H79.9349C80.0186 26.1328 80.4929 25.3097 81.595 25.3097C82.7668 25.3097 83.2132 26.1607 83.255 26.8024ZM92.3888 30.806V21.5014H90.6032V24.9331C90.0731 24.2495 89.3198 23.9008 88.5246 23.9008C86.8088 23.9008 85.5393 25.24 85.5393 27.4441C85.5393 29.69 86.8227 30.9734 88.5246 30.9734C89.3337 30.9734 90.0731 30.6107 90.6032 29.9411V30.806H92.3888ZM89.0687 29.3971C88.0643 29.3971 87.3668 28.6019 87.3668 27.4441C87.3668 26.2723 88.0643 25.4771 89.0687 25.4771C89.6685 25.4771 90.3102 25.798 90.6032 26.2444V28.6298C90.3102 29.0762 89.6685 29.3971 89.0687 29.3971ZM99.1795 30.806V21.5014H97.1986V30.806H99.1795ZM107.025 30.806V26.0491C107.025 24.7378 106.314 23.9008 104.835 23.9008C103.733 23.9008 102.91 24.4309 102.478 24.947V24.0682H100.706V30.806H102.478V26.2723C102.771 25.8677 103.315 25.4771 104.012 25.4771C104.765 25.4771 105.254 25.798 105.254 26.7326V30.806H107.025ZM110.681 30.806V25.6166H112.048V24.0682H110.681V23.7055C110.681 23.0777 111.03 22.7569 111.518 22.7569C111.839 22.7569 112.076 22.8545 112.258 23.0359L112.927 21.9896C112.495 21.5293 111.811 21.3619 111.17 21.3619C109.816 21.3619 108.896 22.2686 108.896 23.7055V24.0682H107.78V25.6166H108.896V30.806H110.681ZM114.562 30.806V26.356C114.855 25.9235 115.636 25.5887 116.222 25.5887C116.417 25.5887 116.584 25.6027 116.71 25.6306V23.9008C115.873 23.9008 115.036 24.389 114.562 24.9889V24.0682H112.79V30.806H114.562ZM123.355 30.806V26.4536C123.355 24.5146 121.946 23.9008 120.411 23.9008C119.351 23.9008 118.291 24.2356 117.468 24.961L118.138 26.1467C118.71 25.6166 119.379 25.3516 120.105 25.3516C120.997 25.3516 121.583 25.798 121.583 26.4815V27.3883C121.137 26.8582 120.342 26.5652 119.449 26.5652C118.375 26.5652 117.105 27.1651 117.105 28.7414C117.105 30.248 118.375 30.9734 119.449 30.9734C120.328 30.9734 121.123 30.6526 121.583 30.1085V30.806H123.355ZM120.16 29.7737C119.463 29.7737 118.891 29.411 118.891 28.7833C118.891 28.1276 119.463 27.7649 120.16 27.7649C120.732 27.7649 121.29 27.9602 121.583 28.3508V29.1878C121.29 29.5784 120.732 29.7737 120.16 29.7737ZM127.261 30.9734C129.13 30.9734 130.176 30.0388 130.176 28.8112C130.176 26.0909 126.187 26.9279 126.187 25.9235C126.187 25.5469 126.605 25.2539 127.247 25.2539C128.07 25.2539 128.837 25.6027 129.242 26.0351L129.953 24.8215C129.284 24.2914 128.377 23.9008 127.233 23.9008C125.461 23.9008 124.471 24.8912 124.471 26.0212C124.471 28.6717 128.475 27.7649 128.475 28.8809C128.475 29.2994 128.112 29.6063 127.345 29.6063C126.508 29.6063 125.503 29.146 125.015 28.6856L124.248 29.9272C124.959 30.5828 126.089 30.9734 127.261 30.9734ZM133.462 30.9734C134.202 30.9734 134.676 30.7781 134.941 30.541L134.564 29.2018C134.467 29.2994 134.216 29.3971 133.951 29.3971C133.56 29.3971 133.337 29.0762 133.337 28.6577V25.6166H134.704V24.0682H133.337V22.2268H131.551V24.0682H130.435V25.6166H131.551V29.132C131.551 30.3317 132.221 30.9734 133.462 30.9734ZM137.408 30.806V26.356C137.701 25.9235 138.483 25.5887 139.068 25.5887C139.264 25.5887 139.431 25.6027 139.557 25.6306V23.9008C138.72 23.9008 137.883 24.389 137.408 24.9889V24.0682H135.637V30.806H137.408ZM146.704 30.806V24.0682H144.933V28.6298C144.626 29.0204 144.082 29.3971 143.398 29.3971C142.645 29.3971 142.157 29.0902 142.157 28.1555V24.0682H140.385V28.853C140.385 30.1643 141.082 30.9734 142.561 30.9734C143.663 30.9734 144.472 30.4712 144.933 29.9551V30.806H146.704ZM151.323 30.9734C152.704 30.9734 153.541 30.3736 153.987 29.7458L152.829 28.6717C152.509 29.1181 152.02 29.3971 151.407 29.3971C150.332 29.3971 149.579 28.6019 149.579 27.4301C149.579 26.2583 150.332 25.4771 151.407 25.4771C152.02 25.4771 152.509 25.7282 152.829 26.2025L153.987 25.1144C153.541 24.5006 152.704 23.9008 151.323 23.9008C149.244 23.9008 147.752 25.3655 147.752 27.4301C147.752 29.5087 149.244 30.9734 151.323 30.9734ZM157.127 30.9734C157.866 30.9734 158.34 30.7781 158.605 30.541L158.229 29.2018C158.131 29.2994 157.88 29.3971 157.615 29.3971C157.224 29.3971 157.001 29.0762 157.001 28.6577V25.6166H158.368V24.0682H157.001V22.2268H155.216V24.0682H154.1V25.6166H155.216V29.132C155.216 30.3317 155.885 30.9734 157.127 30.9734ZM165.62 30.806V24.0682H163.849V28.6298C163.542 29.0204 162.998 29.3971 162.314 29.3971C161.561 29.3971 161.073 29.0902 161.073 28.1555V24.0682H159.301V28.853C159.301 30.1643 159.999 30.9734 161.477 30.9734C162.579 30.9734 163.388 30.4712 163.849 29.9551V30.806H165.62ZM168.873 30.806V26.356C169.166 25.9235 169.947 25.5887 170.533 25.5887C170.728 25.5887 170.895 25.6027 171.021 25.6306V23.9008C170.184 23.9008 169.347 24.389 168.873 24.9889V24.0682H167.101V30.806H168.873ZM175.015 30.9734C176.061 30.9734 177.122 30.6526 177.791 30.0388L177.01 28.8949C176.578 29.3134 175.782 29.5645 175.211 29.5645C174.067 29.5645 173.383 28.853 173.271 28.0021H178.28V27.6115C178.28 25.4074 176.912 23.9008 174.904 23.9008C172.853 23.9008 171.416 25.4771 171.416 27.4301C171.416 29.5924 172.965 30.9734 175.015 30.9734ZM176.564 26.8024H173.244C173.327 26.1328 173.802 25.3097 174.904 25.3097C176.075 25.3097 176.522 26.1607 176.564 26.8024Z" fill="white"/>
<defs>
<linearGradient id="paint0_linear" x1="40.8098" y1="-2.29845" x2="6.80437" y2="-0.754563" gradientUnits="userSpaceOnUse">
<stop stop-color="#05D5FF"/>
<stop offset="1" stop-color="#5533FF"/>
</linearGradient>
</defs>
</svg>
