<svg width="174" height="28" viewBox="0 0 174 28" fill="none" xmlns="http://www.w3.org/2000/svg">
<path d="M14.3386 2L15.2242 1.00324L14.3386 0.216432L13.453 1.00324L14.3386 2ZM26.1543 6.12718L27.4444 5.79064L27.17 4.73859L26.0843 4.79569L26.1543 6.12718ZM14.3386 26L14.0093 27.292L14.3386 27.3759L14.6678 27.292L14.3386 26ZM1.99903 10.2217H3.33236L3.33236 10.2207L1.99903 10.2217ZM2.52275 6.12718L2.59278 4.79569L1.50701 4.73859L1.23259 5.79065L2.52275 6.12718ZM9.99484 14.1087C9.47445 13.5877 8.63023 13.5872 8.10922 14.1076C7.58821 14.628 7.58771 15.4722 8.1081 15.9932L9.99484 14.1087ZM12.0734 18.0765L11.13 19.0188C11.3801 19.2691 11.7195 19.4098 12.0734 19.4098C12.4273 19.4098 12.7667 19.2691 13.0168 19.0188L12.0734 18.0765ZM20.5716 11.4549C21.0919 10.9339 21.0914 10.0897 20.5704 9.56932C20.0494 9.04893 19.2052 9.04944 18.6848 9.57045L20.5716 11.4549ZM13.453 2.99676C16.9476 6.10158 21.5407 7.70498 26.2243 7.45868L26.0843 4.79569C22.0976 5.00534 18.192 3.64003 15.2242 1.00324L13.453 2.99676ZM24.8641 6.46373C25.1772 7.66411 25.3447 8.92229 25.3447 10.2217H28.0114C28.0114 8.69197 27.8141 7.20768 27.4444 5.79064L24.8641 6.46373ZM25.3447 10.2217C25.3447 17.1813 20.5375 23.0444 14.0093 24.708L14.6678 27.292C22.3327 25.3389 28.0114 18.4458 28.0114 10.2217H25.3447ZM14.6678 24.708C8.13963 23.0445 3.33236 17.18 3.33236 10.2217H0.665694C0.665694 18.4445 6.34426 25.3388 14.0093 27.292L14.6678 24.708ZM3.33236 10.2207C3.33134 8.95334 3.4928 7.69098 3.81292 6.46371L1.23259 5.79065C0.854997 7.23823 0.66449 8.7275 0.665694 10.2228L3.33236 10.2207ZM2.45273 7.45868C7.13633 7.70498 11.7296 6.10159 15.2242 2.99676L13.453 1.00324C10.4852 3.64003 6.57946 5.00534 2.59278 4.79569L2.45273 7.45868ZM8.1081 15.9932L11.13 19.0188L13.0168 17.1343L9.99484 14.1087L8.1081 15.9932ZM13.0168 19.0188L20.5716 11.4549L18.6848 9.57045L11.13 17.1343L13.0168 19.0188Z" />
<path d="M43.1571 7.39712L40.0162 2.16139C40.001 2.1355 39.979 2.11397 39.9524 2.09895C39.9258 2.08388 39.8954 2.07586 39.8646 2.07569C39.8338 2.07551 39.8034 2.08313 39.7766 2.09785C39.7497 2.11258 39.7275 2.13387 39.7119 2.15953L38.7712 3.72839C38.7404 3.77971 38.7242 3.83795 38.7242 3.8973C38.7242 3.95658 38.7404 4.01483 38.7712 4.06621L40.8193 7.48184C40.8502 7.53326 40.8945 7.57592 40.9479 7.60555C41.0014 7.63518 41.062 7.65076 41.1237 7.65076H43.005C43.0357 7.65066 43.066 7.64282 43.0927 7.62795C43.1193 7.61309 43.1414 7.59171 43.1569 7.56605C43.1723 7.54039 43.1804 7.51127 43.1805 7.48164C43.1805 7.45201 43.1725 7.42288 43.1571 7.39712Z" />
<path d="M34.9294 10.1338L38.0704 4.89803C38.0858 4.87237 38.108 4.85099 38.1346 4.83622C38.1613 4.82146 38.1915 4.81372 38.2223 4.81372C38.2531 4.81372 38.2833 4.82146 38.3101 4.83622C38.3366 4.85099 38.3588 4.87237 38.3742 4.89803L39.3154 6.46547C39.3462 6.51689 39.3624 6.57523 39.3624 6.63459C39.3624 6.69396 39.3462 6.7523 39.3154 6.80372L37.2672 10.2194C37.2366 10.2707 37.1923 10.3135 37.139 10.3431C37.0856 10.3728 37.0251 10.3883 36.9635 10.3883H35.0817C35.0506 10.3884 35.0202 10.3807 34.9933 10.3658C34.9664 10.351 34.9441 10.3295 34.9286 10.3036C34.9132 10.2778 34.9051 10.2484 34.9053 10.2186C34.9054 10.1888 34.9138 10.1595 34.9294 10.1338Z" />
<path d="M38.3703 10.3867H44.6507C44.6815 10.3866 44.7118 10.3787 44.7384 10.3639C44.7651 10.3491 44.7872 10.3277 44.8027 10.302C44.8179 10.2763 44.826 10.2471 44.826 10.2174C44.8259 10.1878 44.8178 10.1587 44.8024 10.133L43.8628 8.56457C43.8321 8.51325 43.7877 8.47049 43.7343 8.44086C43.6809 8.41123 43.6203 8.39565 43.5585 8.39575H39.4633C39.4017 8.39565 39.3411 8.41123 39.2877 8.44086C39.2343 8.47049 39.1899 8.51325 39.1591 8.56457L38.2187 10.133C38.2032 10.1587 38.195 10.1878 38.1949 10.2174C38.1949 10.2471 38.203 10.2763 38.2184 10.302C38.2338 10.3277 38.2559 10.3491 38.2825 10.3639C38.3092 10.3787 38.3394 10.3866 38.3703 10.3867Z" />
<path d="M50.1048 7.21517V7.09798C50.1048 6.80361 50.0017 6.57818 49.7957 6.42209C49.596 6.25978 49.3338 6.17863 49.0092 6.17863C48.7595 6.17863 48.5629 6.22078 48.4193 6.30489C48.282 6.38299 48.1509 6.50314 48.026 6.66534C47.9886 6.7134 47.9479 6.74649 47.9043 6.76451C47.8606 6.78253 47.8013 6.79149 47.7264 6.79149H47.4455C47.3768 6.79149 47.3143 6.76746 47.2582 6.7194C47.2082 6.67134 47.1864 6.61432 47.1927 6.54824C47.2114 6.36792 47.3019 6.19075 47.4641 6.01643C47.6327 5.8362 47.8543 5.68897 48.129 5.57483C48.4037 5.46069 48.6971 5.40356 49.0092 5.40356C49.5898 5.40356 50.058 5.55986 50.4138 5.87225C50.7758 6.18474 50.9569 6.62329 50.9569 7.18809V9.93696C50.9569 10.003 50.9319 10.0601 50.8819 10.1081C50.8321 10.1562 50.7727 10.1802 50.704 10.1802H50.3575C50.289 10.1802 50.2296 10.1562 50.1797 10.1081C50.1298 10.0601 50.1048 10.003 50.1048 9.93696V9.56745C50.0049 9.78372 49.7927 9.95499 49.468 10.0811C49.1434 10.2073 48.8188 10.2704 48.4942 10.2704C48.1758 10.2704 47.8918 10.2164 47.6421 10.1081C47.3924 9.99398 47.1988 9.84085 47.0615 9.6485C46.9304 9.45627 46.8649 9.24 46.8649 8.9996C46.8649 8.54893 47.0396 8.19745 47.3893 7.94513C47.7389 7.68681 48.2039 7.51249 48.7844 7.42238L50.1048 7.21517ZM50.1048 7.93607L48.9999 8.10733C48.5941 8.16741 48.2788 8.26658 48.0541 8.40475C47.8294 8.53702 47.7169 8.70523 47.7169 8.90948C47.7169 9.05967 47.7888 9.19489 47.9324 9.31504C48.0759 9.43519 48.2944 9.49537 48.5878 9.49537C49.0373 9.49537 49.4025 9.37216 49.6835 9.12575C49.9643 8.87945 50.1048 8.558 50.1048 8.1615V7.93607Z" />
<path d="M53.175 9.93683C53.175 10.0029 53.1497 10.06 53.0997 10.1081C53.0497 10.1562 52.9903 10.1802 52.9221 10.1802H52.5751C52.5065 10.1802 52.4472 10.1562 52.3973 10.1081C52.3473 10.06 52.3223 10.0029 52.3223 9.93683V4.02463C52.3223 3.95854 52.3473 3.90146 52.3973 3.8534C52.4472 3.80528 52.5065 3.78125 52.5751 3.78125H52.9221C52.9903 3.78125 53.0497 3.80528 53.0997 3.8534C53.1497 3.90146 53.175 3.95854 53.175 4.02463V9.93683Z" />
<path d="M56.5448 9.49537C57.1692 9.49537 57.5906 9.26097 57.8094 8.79239C57.8528 8.70218 57.8969 8.63905 57.9404 8.6031C57.9839 8.56696 58.0433 8.54893 58.1179 8.54893H58.399C58.4678 8.54893 58.5271 8.57306 58.5771 8.62112C58.627 8.66318 58.6517 8.71419 58.6517 8.77426C58.6517 8.97862 58.5677 9.19784 58.399 9.43224C58.2308 9.66653 57.9868 9.86487 57.6688 10.0271C57.3502 10.1893 56.9757 10.2704 56.5448 10.2704C56.1022 10.2704 55.7177 10.1802 55.3932 9.99999C55.0687 9.81977 54.8188 9.57336 54.6443 9.26097C54.4697 8.94247 54.3727 8.58803 54.3539 8.19745C54.348 8.12536 54.3445 7.98718 54.3445 7.78293C54.3445 7.63875 54.348 7.53652 54.3539 7.47655C54.4103 6.86369 54.6255 6.36496 55 5.98048C55.3744 5.59591 55.8894 5.40356 56.5448 5.40356C56.9757 5.40356 57.3473 5.48472 57.6594 5.64692C57.9781 5.80311 58.2178 5.99841 58.3801 6.2328C58.5489 6.46108 58.6394 6.67735 58.6517 6.88161C58.6582 6.94779 58.6335 7.00481 58.5771 7.05287C58.5271 7.10103 58.4678 7.12506 58.399 7.12506H58.1179C58.0433 7.12506 57.9839 7.10704 57.9404 7.07089C57.8969 7.03495 57.8528 6.97182 57.8094 6.88161C57.5906 6.41302 57.1692 6.17863 56.5448 6.17863C56.2015 6.17863 55.9023 6.28982 55.646 6.5122C55.3903 6.73447 55.2433 7.07089 55.2063 7.52155C55.1998 7.58764 55.1969 7.69577 55.1969 7.84596C55.1969 7.98423 55.1998 8.08636 55.2063 8.15244C55.2498 8.6031 55.3967 8.93952 55.646 9.1619C55.9023 9.38418 56.2015 9.49537 56.5448 9.49537Z" />
<path d="M64.0947 9.93683C64.0947 10.0029 64.0694 10.06 64.0201 10.1081C63.9701 10.1562 63.9107 10.1802 63.8419 10.1802H63.4957C63.4269 10.1802 63.3676 10.1562 63.3176 10.1081C63.2676 10.06 63.2424 10.0029 63.2424 9.93683V7.55757C63.2424 7.1069 63.1271 6.76448 62.8961 6.53009C62.6651 6.29579 62.3434 6.1786 61.9314 6.1786C61.5258 6.1786 61.2042 6.29579 60.9673 6.53009C60.7363 6.76448 60.6205 7.1069 60.6205 7.55757V9.93683C60.6205 10.0029 60.5958 10.06 60.5458 10.1081C60.4959 10.1562 60.4365 10.1802 60.3676 10.1802H60.0214C59.9527 10.1802 59.8933 10.1562 59.8433 10.1081C59.7934 10.06 59.7687 10.0029 59.7687 9.93683V4.02463C59.7687 3.95854 59.7934 3.90146 59.8433 3.8534C59.8933 3.80528 59.9527 3.78125 60.0214 3.78125H60.3676C60.4365 3.78125 60.4959 3.80528 60.5458 3.8534C60.5958 3.90146 60.6205 3.95854 60.6205 4.02463V6.0164C60.758 5.84208 60.9455 5.6979 61.1825 5.58376C61.4258 5.46361 61.7227 5.40353 62.0719 5.40353C62.4651 5.40353 62.8149 5.48468 63.1206 5.64689C63.4269 5.80909 63.6638 6.04348 63.8325 6.34986C64.0071 6.65034 64.0947 7.00773 64.0947 7.42235V9.93683Z" />
<path d="M67.3748 5.40356C68.0426 5.40356 68.5699 5.60792 68.9574 6.01643C69.3441 6.42504 69.5376 6.98078 69.5376 7.68376V7.92711C69.5376 7.99319 69.5129 8.05031 69.4628 8.09837C69.4129 8.14643 69.3535 8.17046 69.2847 8.17046H66.0639V8.22453C66.0763 8.62113 66.2009 8.93351 66.4384 9.1619C66.6818 9.38418 66.9939 9.49537 67.3748 9.49537C67.687 9.49537 67.9274 9.45627 68.0956 9.37817C68.2707 9.30007 68.4265 9.18888 68.564 9.0447C68.614 8.99664 68.6575 8.96355 68.6951 8.94553C68.7386 8.92751 68.795 8.91844 68.8633 8.91844H69.1443C69.2195 8.91844 69.2818 8.94247 69.3318 8.99053C69.3817 9.0387 69.4035 9.09582 69.397 9.1619C69.3723 9.3241 69.2789 9.49231 69.116 9.66653C68.9603 9.83474 68.7321 9.97902 68.433 10.0992C68.1396 10.2133 67.7869 10.2704 67.3748 10.2704C66.9751 10.2704 66.6194 10.1833 66.3073 10.0091C65.9952 9.82873 65.7453 9.58242 65.5584 9.26993C65.3773 8.95754 65.2679 8.60606 65.2303 8.21547C65.2179 8.03524 65.2115 7.89707 65.2115 7.80095C65.2115 7.70483 65.2179 7.56666 65.2303 7.38644C65.2679 7.01387 65.3773 6.67735 65.5584 6.37698C65.7453 6.0766 65.9921 5.83926 66.2979 5.66494C66.61 5.49072 66.9692 5.40356 67.3748 5.40356ZM68.6951 7.41342V7.38644C68.6951 7.01988 68.5734 6.72847 68.3295 6.5122C68.0926 6.28982 67.774 6.17863 67.3748 6.17863C67.0127 6.17863 66.7035 6.28982 66.4477 6.5122C66.1979 6.73447 66.0698 7.02589 66.0639 7.38644V7.41342H68.6951Z" />
<path d="M71.5186 6.01643C71.6684 5.8302 71.8371 5.68296 72.0246 5.57483C72.2114 5.46069 72.4613 5.40356 72.7733 5.40356C73.5033 5.40356 74.0152 5.66494 74.3084 6.18769C74.4894 5.93538 74.6957 5.74314 74.9267 5.61087C75.1571 5.4727 75.4597 5.40356 75.8348 5.40356C76.446 5.40356 76.8985 5.58084 77.1918 5.93538C77.4915 6.28982 77.6414 6.79149 77.6414 7.4404V9.93697C77.6414 10.003 77.6161 10.0601 77.5661 10.1081C77.5162 10.1562 77.4574 10.1802 77.3887 10.1802H77.0419C76.9737 10.1802 76.9144 10.1562 76.8644 10.1081C76.8145 10.0601 76.7892 10.003 76.7892 9.93697V7.53062C76.7892 6.62929 76.4213 6.17863 75.6849 6.17863C75.3475 6.17863 75.0795 6.28687 74.8797 6.50314C74.6798 6.7194 74.5799 7.04086 74.5799 7.46749V9.93697C74.5799 10.003 74.5553 10.0601 74.5053 10.1081C74.4554 10.1562 74.396 10.1802 74.3272 10.1802H73.981C73.9123 10.1802 73.8529 10.1562 73.803 10.1081C73.753 10.0601 73.7283 10.003 73.7283 9.93697V7.53062C73.7283 6.62929 73.3599 6.17863 72.6235 6.17863C72.2866 6.17863 72.0181 6.28687 71.8183 6.50314C71.6185 6.7194 71.5186 7.04086 71.5186 7.46749V9.93697C71.5186 10.003 71.4938 10.0601 71.4439 10.1081C71.3939 10.1562 71.3346 10.1802 71.2658 10.1802H70.9197C70.8509 10.1802 70.7916 10.1562 70.7415 10.1081C70.6916 10.0601 70.6669 10.003 70.6669 9.93697V5.73703C70.6669 5.67095 70.6916 5.61383 70.7415 5.56577C70.7916 5.51771 70.8509 5.49368 70.9197 5.49368H71.2658C71.3346 5.49368 71.3939 5.51771 71.4439 5.56577C71.4938 5.61383 71.5186 5.67095 71.5186 5.73703V6.01643Z" />
<path d="M80.2596 11.6765C80.2032 11.8207 80.1127 11.8928 79.9881 11.8928H79.6043C79.542 11.8928 79.4891 11.8717 79.4451 11.8296C79.4016 11.7876 79.3798 11.7366 79.3798 11.6765C79.3798 11.6525 79.3828 11.6314 79.3892 11.6134L80.2878 9.72978L78.4342 5.77329C78.4277 5.75517 78.4248 5.73419 78.4248 5.71017C78.4248 5.65009 78.4466 5.59898 78.49 5.55692C78.5341 5.51487 78.587 5.4939 78.6493 5.4939H79.0331C79.1583 5.4939 79.2488 5.56599 79.3046 5.71017L80.7463 8.77438L82.2068 5.71017C82.2632 5.56599 82.3537 5.4939 82.4783 5.4939H82.8621C82.9244 5.4939 82.9779 5.51487 83.0214 5.55692C83.0648 5.59898 83.0866 5.65009 83.0866 5.71017C83.0866 5.73419 83.0837 5.75517 83.0778 5.77329L80.2596 11.6765Z" />
<path d="M40.3901 24.935C42.4631 24.935 43.6477 23.8038 44.3246 22.6448L42.6041 21.8209C42.2092 22.589 41.3631 23.1755 40.3901 23.1755C38.6837 23.1755 37.4427 21.8768 37.4427 20.1174C37.4427 18.3579 38.6837 17.0592 40.3901 17.0592C41.3631 17.0592 42.2092 17.6596 42.6041 18.4137L44.3246 17.5759C43.6618 16.4169 42.4631 15.2997 40.3901 15.2997C37.5696 15.2997 35.3837 17.2547 35.3837 20.1174C35.3837 22.98 37.5696 24.935 40.3901 24.935ZM48.3935 24.935C49.4511 24.935 50.5229 24.6138 51.1998 23.9993L50.4101 22.8543C49.973 23.2732 49.1691 23.5245 48.591 23.5245C47.4346 23.5245 46.7435 22.8124 46.6307 21.9605H51.6935V21.5695C51.6935 19.3633 50.3114 17.8551 48.2807 17.8551C46.2076 17.8551 44.7551 19.4331 44.7551 21.3881C44.7551 23.5525 46.3204 24.935 48.3935 24.935ZM49.9588 20.7597H46.6025C46.6871 20.0894 47.1666 19.2655 48.2807 19.2655C49.4653 19.2655 49.9166 20.1174 49.9588 20.7597ZM54.4959 24.7674V20.3129C54.792 19.8799 55.5817 19.5448 56.174 19.5448C56.3715 19.5448 56.5407 19.5588 56.6677 19.5867V17.8551C55.8215 17.8551 54.9754 18.3438 54.4959 18.9444V18.0227H52.7049V24.7674H54.4959ZM59.7896 24.935C60.537 24.935 61.0164 24.7395 61.2844 24.502L60.9036 23.1615C60.805 23.2593 60.5511 23.357 60.2831 23.357C59.8883 23.357 59.6626 23.0358 59.6626 22.6169V19.5727H61.0446V18.0227H59.6626V16.1794H57.8575V18.0227H56.7293V19.5727H57.8575V23.0917C57.8575 24.2926 58.5344 24.935 59.7896 24.935ZM62.8762 17.2966C63.4685 17.2966 63.948 16.8218 63.948 16.2353C63.948 15.6488 63.4685 15.188 62.8762 15.188C62.298 15.188 61.8044 15.6488 61.8044 16.2353C61.8044 16.8218 62.298 17.2966 62.8762 17.2966ZM63.7788 24.7674V18.0227H61.9877V24.7674H63.7788ZM67.4723 24.7674V19.5727H68.8544V18.0227H67.4723V17.6596C67.4723 17.0452 67.8108 16.7101 68.3185 16.7101C68.5583 16.7101 68.7557 16.7799 68.8967 16.8776L69.2634 15.5929C68.939 15.4254 68.4737 15.3136 67.966 15.3136C66.6262 15.3136 65.6673 16.1934 65.6673 17.6596V18.0227H64.5391V19.5727H65.6673V24.7674H67.4723ZM70.7723 17.2966C71.3646 17.2966 71.8441 16.8218 71.8441 16.2353C71.8441 15.6488 71.3646 15.188 70.7723 15.188C70.1941 15.188 69.7005 15.6488 69.7005 16.2353C69.7005 16.8218 70.1941 17.2966 70.7723 17.2966ZM71.6748 24.7674V18.0227H69.8839V24.7674H71.6748ZM76.3721 24.935C77.4298 24.935 78.5015 24.6138 79.1785 23.9993L78.3887 22.8543C77.9515 23.2732 77.1477 23.5245 76.5695 23.5245C75.4131 23.5245 74.7221 22.8124 74.6093 21.9605H79.672V21.5695C79.672 19.3633 78.29 17.8551 76.2592 17.8551C74.1862 17.8551 72.7337 19.4331 72.7337 21.3881C72.7337 23.5525 74.2991 24.935 76.3721 24.935ZM77.9375 20.7597H74.5811C74.6657 20.0894 75.1452 19.2655 76.2592 19.2655C77.4438 19.2655 77.8951 20.1174 77.9375 20.7597ZM87.1709 24.7674V15.4533H85.3658V18.8885C84.8299 18.2042 84.0684 17.8551 83.2646 17.8551C81.5299 17.8551 80.2467 19.1957 80.2467 21.4021C80.2467 23.6503 81.5441 24.935 83.2646 24.935C84.0825 24.935 84.8299 24.5719 85.3658 23.9016V24.7674H87.1709ZM83.8145 23.357C82.7992 23.357 82.094 22.5611 82.094 21.4021C82.094 20.2291 82.7992 19.4331 83.8145 19.4331C84.421 19.4331 85.0697 19.7543 85.3658 20.2011V22.589C85.0697 23.0358 84.421 23.357 83.8145 23.357ZM94.0358 24.7674V15.4533H92.0333V24.7674H94.0358ZM101.967 24.7674V20.0056C101.967 18.693 101.248 17.8551 99.7527 17.8551C98.6387 17.8551 97.8067 18.3858 97.37 18.9024V18.0227H95.5787V24.7674H97.37V20.2291C97.6662 19.8241 98.2161 19.4331 98.9207 19.4331C99.683 19.4331 100.176 19.7543 100.176 20.6898V24.7674H101.967ZM105.664 24.7674V19.5727H107.045V18.0227H105.664V17.6596C105.664 17.0313 106.015 16.7101 106.51 16.7101C106.833 16.7101 107.074 16.8079 107.257 16.9894L107.934 15.9421C107.496 15.4812 106.806 15.3136 106.157 15.3136C104.789 15.3136 103.858 16.2214 103.858 17.6596V18.0227H102.73V19.5727H103.858V24.7674H105.664ZM109.586 24.7674V20.3129C109.882 19.8799 110.672 19.5448 111.264 19.5448C111.461 19.5448 111.631 19.5588 111.757 19.5867V17.8551C110.911 17.8551 110.065 18.3438 109.586 18.9444V18.0227H107.795V24.7674H109.586ZM118.475 24.7674V20.4106C118.475 18.4696 117.051 17.8551 115.5 17.8551C114.427 17.8551 113.356 18.1903 112.524 18.9164L113.201 20.1033C113.779 19.5727 114.455 19.3074 115.189 19.3074C116.092 19.3074 116.684 19.7543 116.684 20.4385V21.3462C116.233 20.8156 115.429 20.5223 114.526 20.5223C113.441 20.5223 112.158 21.1228 112.158 22.7007C112.158 24.2088 113.441 24.935 114.526 24.935C115.415 24.935 116.219 24.6138 116.684 24.0692V24.7674H118.475ZM115.246 23.7341C114.54 23.7341 113.962 23.371 113.962 22.7425C113.962 22.0863 114.54 21.7232 115.246 21.7232C115.824 21.7232 116.388 21.9187 116.684 22.3097V23.1476C116.388 23.5386 115.824 23.7341 115.246 23.7341ZM122.424 24.935C124.313 24.935 125.371 23.9993 125.371 22.7705C125.371 20.0475 121.338 20.8853 121.338 19.8799C121.338 19.5029 121.76 19.2096 122.409 19.2096C123.241 19.2096 124.017 19.5588 124.426 19.9916L125.145 18.7768C124.469 18.2461 123.552 17.8551 122.395 17.8551C120.605 17.8551 119.603 18.8466 119.603 19.9777C119.603 22.6308 123.651 21.7232 123.651 22.8403C123.651 23.2593 123.284 23.5665 122.508 23.5665C121.662 23.5665 120.646 23.1056 120.153 22.6448L119.378 23.8876C120.096 24.544 121.239 24.935 122.424 24.935ZM128.693 24.935C129.44 24.935 129.919 24.7395 130.187 24.502L129.807 23.1615C129.708 23.2593 129.454 23.357 129.187 23.357C128.791 23.357 128.566 23.0358 128.566 22.6169V19.5727H129.948V18.0227H128.566V16.1794H126.76V18.0227H125.632V19.5727H126.76V23.0917C126.76 24.2926 127.438 24.935 128.693 24.935ZM132.682 24.7674V20.3129C132.979 19.8799 133.768 19.5448 134.36 19.5448C134.558 19.5448 134.726 19.5588 134.854 19.5867V17.8551C134.008 17.8551 133.161 18.3438 132.682 18.9444V18.0227H130.891V24.7674H132.682ZM142.08 24.7674V18.0227H140.288V22.589C139.978 22.98 139.428 23.357 138.737 23.357C137.975 23.357 137.482 23.0498 137.482 22.1142V18.0227H135.691V22.8124C135.691 24.1251 136.396 24.935 137.891 24.935C139.005 24.935 139.823 24.4323 140.288 23.9155V24.7674H142.08ZM146.748 24.935C148.144 24.935 148.99 24.3345 149.442 23.7061L148.272 22.6308C147.947 23.0777 147.454 23.357 146.833 23.357C145.747 23.357 144.985 22.5611 144.985 21.3881C144.985 20.2151 145.747 19.4331 146.833 19.4331C147.454 19.4331 147.947 19.6844 148.272 20.1592L149.442 19.07C148.99 18.4556 148.144 17.8551 146.748 17.8551C144.648 17.8551 143.138 19.3213 143.138 21.3881C143.138 23.4687 144.648 24.935 146.748 24.935ZM152.616 24.935C153.363 24.935 153.843 24.7395 154.111 24.502L153.73 23.1615C153.631 23.2593 153.377 23.357 153.109 23.357C152.715 23.357 152.488 23.0358 152.488 22.6169V19.5727H153.87V18.0227H152.488V16.1794H150.684V18.0227H149.556V19.5727H150.684V23.0917C150.684 24.2926 151.36 24.935 152.616 24.935ZM161.202 24.7674V18.0227H159.411V22.589C159.101 22.98 158.551 23.357 157.86 23.357C157.098 23.357 156.605 23.0498 156.605 22.1142V18.0227H154.813V22.8124C154.813 24.1251 155.519 24.935 157.014 24.935C158.128 24.935 158.946 24.4323 159.411 23.9155V24.7674H161.202ZM164.49 24.7674V20.3129C164.786 19.8799 165.576 19.5448 166.168 19.5448C166.365 19.5448 166.535 19.5588 166.661 19.5867V17.8551C165.815 17.8551 164.969 18.3438 164.49 18.9444V18.0227H162.698V24.7674H164.49ZM170.699 24.935C171.757 24.935 172.829 24.6138 173.506 23.9993L172.716 22.8543C172.279 23.2732 171.475 23.5245 170.897 23.5245C169.74 23.5245 169.049 22.8124 168.937 21.9605H173.999V21.5695C173.999 19.3633 172.618 17.8551 170.587 17.8551C168.513 17.8551 167.061 19.4331 167.061 21.3881C167.061 23.5525 168.626 24.935 170.699 24.935ZM172.265 20.7597H168.908C168.993 20.0894 169.473 19.2655 170.587 19.2655C171.771 19.2655 172.222 20.1174 172.265 20.7597Z" />
</svg>
