<?xml version="1.0" encoding="utf-8"?>
<!-- Generator: Adobe Illustrator 26.0.2, SVG Export Plug-In . SVG Version: 6.00 Build 0)  -->
<svg version="1.1" id="Layer_1" xmlns="http://www.w3.org/2000/svg" xmlns:xlink="http://www.w3.org/1999/xlink" x="0px" y="0px"
	 viewBox="0 0 97 31" style="enable-background:new 0 0 97 31;" xml:space="preserve">
<style type="text/css">
	.st0{fill:#0657F9;}
</style>
<path class="st0" d="M9.6,20h4.7v-7.1l7.3-9.8l-3.7-2.8L12,8.2l-0.5-0.7L5.9,0.3L2.2,3.1l7.4,9.8V20z"/>
<path class="st0" d="M19.8,10.4L17,14c0.7,0.7,1.3,1.5,1.7,2.4c0.4,0.9,0.6,1.8,0.6,2.8c0,1.2-0.3,2.4-0.8,3.5
	c-0.6,1.1-1.4,2-2.4,2.6c-1,0.7-2.2,1.1-3.4,1.2c-1.2,0.1-2.4-0.1-3.5-0.5C8,25.5,7,24.7,6.3,23.8c-0.8-0.9-1.3-2.1-1.5-3.2
	C4.6,19.4,4.7,18.1,5,17c0.4-1.1,1-2.2,1.9-3l-2.9-3.7c-1.3,1.1-2.3,2.5-3,4C0.4,15.8,0,17.5,0,19.2c0.1,3.1,1.4,6,3.6,8.2
	c2.2,2.1,5.2,3.3,8.3,3.3c3.1,0,6.1-1.2,8.3-3.3c2.2-2.1,3.5-5.1,3.6-8.2c0-1.7-0.4-3.3-1.1-4.9C22.1,12.8,21.1,11.5,19.8,10.4z"/>
<path class="st0" d="M45.6,8l-2.9,8.5l-3-8.5h-3.5l4.7,12l-0.3,0.8c-0.3,0.8-0.6,1-1.5,1h-1.8v2.8h3.2c1.9,0,2.5-1,3.3-3L49.1,8
	H45.6z"/>
<path class="st0" d="M55.3,7.9c-3.7,0-6.2,2.4-6.2,6.1s2.4,6.1,6.5,6.1c3.2,0,5.3-1.9,5.7-4.2h-3.3c-0.3,1.1-1.2,1.7-2.6,1.7
	c-1.7,0-2.8-1-2.9-2.7v-0.2h8.8c0.1-0.4,0.1-0.7,0.1-1.1C61.3,10.1,58.9,7.9,55.3,7.9z M52.6,12.6c0.2-1.4,1.3-2.3,2.7-2.3
	c1.5,0,2.5,0.8,2.8,2.3H52.6z"/>
<path class="st0" d="M68.6,7.9c-3.2,0-5.4,1.5-5.6,3.9h3.2c0.1-0.9,1-1.5,2.3-1.5c1.4,0,2.2,0.7,2.2,1.8v0.6h-2.4
	c-3.6,0-5.5,1.4-5.5,4c0,2.3,1.9,3.5,4.5,3.5c1.9,0,3.1-0.8,4-2.1c0.1,1.1,0.2,2,0.2,2H74v-7.7C74,9.4,72,7.9,68.6,7.9z M70.7,15.1
	c0,1.6-1.1,2.7-2.8,2.7c-1.1,0-1.8-0.5-1.8-1.4c0-1,0.8-1.6,2.2-1.6h2.4V15.1z"/>
<path class="st0" d="M79.5,9.8L79.2,8h-3v12h3.3v-5.9c0-1.8,0.8-3.1,2.7-3.1h1.3V8H83C81.1,8,80.2,8.7,79.5,9.8z"/>
<path class="st0" d="M92.2,7.9c-1.9,0-3,0.7-3.7,1.6L88.1,8h-2.9V20h3.3v-6.1c0-2.1,1-3.3,2.7-3.3s2.5,1.1,2.5,3.1V20H97v-6.6
	C97,9.3,94.8,7.9,92.2,7.9z"/>
</svg>
