<svg width="138" height="44" viewBox="0 0 138 44" fill="none" xmlns="http://www.w3.org/2000/svg">
<path d="M64.8742 11.3548L60.7485 23.4194L56.4804 11.3548H51.501L58.1876 28.3871L57.7608 29.5226C57.334 30.6581 56.9072 30.9419 55.6268 30.9419H53.066V34.9161H57.6186C60.3217 34.9161 61.1753 33.4968 62.3134 30.6581L69.8536 11.3548H64.8742Z" fill="#0657F9"/>
<path d="M78.6742 11.2129C73.4103 11.2129 69.8536 14.6194 69.8536 19.871C69.8536 25.1226 73.268 28.529 79.101 28.529C83.6536 28.529 86.6412 25.8323 87.2103 22.5677H82.5155C82.0887 24.129 80.8083 24.9806 78.8165 24.9806C76.3979 24.9806 74.833 23.5613 74.6907 21.1484V20.8645H87.2103C87.3526 20.2968 87.3526 19.871 87.3526 19.3032C87.2103 14.3355 83.7959 11.2129 78.6742 11.2129ZM74.833 17.8839C75.1175 15.8968 76.6825 14.6194 78.6742 14.6194C80.8082 14.6194 82.2309 15.7548 82.6577 17.8839H74.833V17.8839Z" fill="#0657F9"/>
<path d="M97.5959 11.2129C93.0433 11.2129 89.9134 13.3419 89.6289 16.7484H94.1814C94.3237 15.471 95.6041 14.6194 97.4536 14.6194C99.4454 14.6194 100.584 15.6129 100.584 17.1742V18.0258H97.1691C92.0474 18.0258 89.3443 20.0129 89.3443 23.7032C89.3443 26.9677 92.0474 28.671 95.7464 28.671C98.4495 28.671 100.157 27.5355 101.437 25.6903C101.579 27.2516 101.722 28.529 101.722 28.529H105.278V17.6C105.278 13.3419 102.433 11.2129 97.5959 11.2129ZM100.584 21.4323C100.584 23.7032 99.0186 25.2645 96.6 25.2645C95.0351 25.2645 94.0392 24.5548 94.0392 23.2774C94.0392 21.8581 95.1773 21.0065 97.1691 21.0065H100.584V21.4323V21.4323Z" fill="#0657F9"/>
<path d="M113.103 13.9097L112.676 11.3548H108.408V28.3871H113.103V20.0129C113.103 17.4581 114.241 15.6129 116.944 15.6129H118.794V11.3548H118.082C115.379 11.3548 114.099 12.3484 113.103 13.9097Z" fill="#0657F9"/>
<path d="M131.171 11.2129C128.468 11.2129 126.903 12.2065 125.907 13.4839L125.338 11.3548H121.212V28.3871H125.907V19.729C125.907 16.7484 127.33 15.0452 129.748 15.0452C132.167 15.0452 133.305 16.6065 133.305 19.4452V28.3871H138V19.0194C138 13.2 134.87 11.2129 131.171 11.2129Z" fill="#0657F9"/>
<path fill-rule="evenodd" clip-rule="evenodd" d="M4.65031 2.6038L2.12571 5.1706L8.28181 11.4274L14.4378 17.6842V23.5107V29.3371H18.0135H21.5893V23.511V17.6848L27.7456 11.4271L33.9018 5.1694L31.358 2.5847L28.8142 0L23.4506 5.4513C20.5006 8.4496 18.0537 10.9027 18.0132 10.9027C17.9726 10.9027 15.5343 8.4579 12.5947 5.4698C9.65501 2.4817 7.23311 0.0368996 7.21241 0.0368996C7.19181 0.0368996 6.03891 1.1919 4.65031 2.6038ZM2.00581 17.2092C1.11031 18.7856 0.285006 21.5919 0.0576064 23.8342C-0.0546936 24.94 0.00470649 27.3535 0.170706 28.4379C1.72411 38.5837 11.1531 45.4801 21.0756 43.7278C27.617 42.5727 32.9959 37.8823 35.0868 31.5103C35.7748 29.4134 35.9978 27.9952 36 25.7027C36.0023 23.2213 35.7243 21.5721 34.9197 19.2956C34.6439 18.5149 33.9343 16.9726 33.851 16.9726C33.8176 16.9726 32.5834 18.1995 31.1085 19.6992C28.6284 22.2206 28.4294 22.4419 28.4638 22.6404C28.4843 22.7585 28.5551 23.1022 28.6211 23.4041C28.8129 24.2817 28.8877 25.4693 28.8137 26.4592C28.7357 27.4995 28.6127 28.1406 28.3014 29.1282C27.3021 32.2991 24.6553 35.0151 21.4945 36.113C20.2873 36.5323 19.6097 36.6358 18.0504 36.6391C16.4654 36.6426 15.8676 36.557 14.6391 36.1508C11.297 35.046 8.57341 32.1951 7.59251 28.7751C7.27401 27.6643 7.18241 26.9547 7.18651 25.6278C7.19031 24.3942 7.22911 24.0784 7.55451 22.6303C7.58071 22.5135 6.98851 21.8717 4.86811 19.7196L2.14811 16.9588L2.00581 17.2092Z" fill="#0657F9"/>
</svg>
