<svg width="247" height="80" viewBox="0 0 247 80" fill="none" xmlns="http://www.w3.org/2000/svg">
<path d="M106.946 16.9769L99.1155 40.1661L91.0447 16.9769H81.46L94.177 49.7299L93.3417 51.8912C92.4438 54.1047 91.6711 54.6789 89.3637 54.6789H84.3521V62.2172H93.1329C98.2698 62.2172 99.9299 59.5548 101.987 54.1673L116.604 16.9769H106.946Z" fill="#0657F9"/>
<path d="M133.288 16.6532C123.088 16.6532 116.343 23.2414 116.343 33.3586C116.343 43.4758 122.962 49.9492 133.936 49.9492C142.727 49.9179 148.469 44.8436 149.513 38.5164H140.586C139.814 41.5547 137.245 43.1417 133.591 43.1417C129.028 43.1417 126.011 40.354 125.823 35.7287V35.2902H149.722C149.905 34.2844 149.992 33.2636 149.983 32.2414C149.848 22.6776 143.176 16.6532 133.288 16.6532ZM125.98 29.5059C126.502 25.6428 129.446 23.304 133.361 23.304C137.475 23.304 140.232 25.5175 140.879 29.5059H125.98Z" fill="#0657F9"/>
<path d="M169.685 16.6532C160.957 16.6532 155.068 20.8296 154.41 27.1672H163.139C163.525 24.7553 165.906 23.1788 169.403 23.1788C173.194 23.1788 175.303 25.079 175.303 27.992V29.5686H168.756C158.91 29.5164 153.69 33.4526 153.69 40.354C153.69 46.5663 158.827 49.9179 165.958 49.9179C171.095 49.9179 174.426 47.8297 176.743 44.2171C177.098 47.2345 177.286 49.542 177.286 49.542H184.344V28.441C184.261 20.6521 178.936 16.6532 169.685 16.6532ZM175.334 36.1672C175.271 40.5941 172.39 43.4758 167.639 43.4758C164.622 43.4758 162.753 42.0141 162.753 39.7275C162.753 37.0129 164.935 35.4886 168.725 35.4886H175.334V36.1672Z" fill="#0657F9"/>
<path d="M199.348 21.8736L198.512 16.9977H190.295V49.542H199.348V33.5779C199.348 28.6393 201.436 25.0894 206.792 25.0894H210.384V16.9769H208.849C203.712 16.9769 201.143 18.9398 199.348 21.8736Z" fill="#0657F9"/>
<path d="M233.771 16.6532C228.697 16.6532 225.68 18.5534 223.56 21.0801L222.725 17.0291H214.832V49.542H223.884V32.8366C223.884 27.1985 226.578 23.8992 231.265 23.8992C235.953 23.8992 237.948 26.8226 237.948 32.3354V49.542H246.989V31.4897C246.989 20.3388 240.892 16.6532 233.771 16.6532Z" fill="#0657F9"/>
<path d="M24.8075 50.8575H36.919V32.4503L55.8796 7.14156L46.2322 0L30.905 20.5059L29.5477 18.7414L15.3272 0.0835271L5.75293 7.14156L24.8075 32.5338V50.8575Z" fill="#0657F9"/>
<path d="M51.223 25.9769L43.7682 35.3737C45.5873 37.0922 47.0367 39.1638 48.0276 41.4617C49.0186 43.7596 49.5303 46.2356 49.5315 48.7381C49.562 51.8469 48.8177 54.9144 47.3658 57.6636C45.914 60.4128 43.8003 62.7571 41.2156 64.4849C38.6309 66.2127 35.6566 67.2695 32.5612 67.56C29.4658 67.8505 26.3468 67.3655 23.4857 66.1488C20.6247 64.9322 18.1117 63.022 16.1737 60.591C14.2357 58.16 12.9336 55.2845 12.3851 52.2243C11.8366 49.1641 12.0588 46.0154 13.0318 43.0626C14.0049 40.1097 15.698 37.4457 17.9583 35.3111L10.587 25.8099C7.25913 28.6386 4.58861 32.1594 2.76185 36.1267C0.935094 40.094 -0.00389645 44.4122 0.0104151 48.7798C0.304038 56.7524 3.67761 64.3005 9.42175 69.837C15.1659 75.3735 22.8331 78.4669 30.811 78.4669C38.789 78.4669 46.4561 75.3735 52.2003 69.837C57.9444 64.3005 61.318 56.7524 61.6116 48.7798C61.6078 44.4577 60.6788 40.1865 58.8869 36.2533C57.095 32.3201 54.4818 28.8161 51.223 25.9769Z" fill="#0657F9"/>
</svg>
