<svg width="36" height="44" viewBox="0 0 36 44" fill="none" xmlns="http://www.w3.org/2000/svg">
<path fill-rule="evenodd" clip-rule="evenodd" d="M4.65031 2.6038L2.12571 5.1706L8.28181 11.4274L14.4378 17.6842V23.5107V29.3371H18.0135H21.5893V23.511V17.6848L27.7456 11.4271L33.9018 5.1694L31.358 2.5847L28.8142 0L23.4506 5.4513C20.5006 8.4496 18.0537 10.9027 18.0132 10.9027C17.9726 10.9027 15.5343 8.4579 12.5947 5.4698C9.65501 2.4817 7.23311 0.0368996 7.21241 0.0368996C7.19181 0.0368996 6.03891 1.1919 4.65031 2.6038ZM2.00581 17.2092C1.11031 18.7856 0.285006 21.5919 0.0576064 23.8342C-0.0546936 24.94 0.00470649 27.3535 0.170706 28.4379C1.72411 38.5837 11.1531 45.4801 21.0756 43.7278C27.617 42.5727 32.9959 37.8823 35.0868 31.5103C35.7748 29.4134 35.9978 27.9952 36 25.7027C36.0023 23.2213 35.7243 21.5721 34.9197 19.2956C34.6439 18.5149 33.9343 16.9726 33.851 16.9726C33.8176 16.9726 32.5834 18.1995 31.1085 19.6992C28.6284 22.2206 28.4294 22.4419 28.4638 22.6404C28.4843 22.7585 28.5551 23.1022 28.6211 23.4041C28.8129 24.2817 28.8877 25.4693 28.8137 26.4592C28.7357 27.4995 28.6127 28.1406 28.3014 29.1282C27.3021 32.2991 24.6553 35.0151 21.4945 36.113C20.2873 36.5323 19.6097 36.6358 18.0504 36.6391C16.4654 36.6426 15.8676 36.557 14.6391 36.1508C11.297 35.046 8.57341 32.1951 7.59251 28.7751C7.27401 27.6643 7.18241 26.9547 7.18651 25.6278C7.19031 24.3942 7.22911 24.0784 7.55451 22.6303C7.58071 22.5135 6.98851 21.8717 4.86811 19.7196L2.14811 16.9588L2.00581 17.2092Z" fill="#0657F9"/>
</svg>
