<svg width="97" height="25" viewBox="0 0 97 25" fill="none" xmlns="http://www.w3.org/2000/svg">
<path d="M38.8477 24.6523C38.0977 24.6523 37.668 24.6406 37.5586 24.6172V21.9805C37.6289 21.9961 37.9141 22.0039 38.4141 22.0039C39.0469 22.0039 39.5273 21.8945 39.8555 21.6758C40.1836 21.4648 40.4062 21.1094 40.5234 20.6094C40.5234 20.6016 40.543 20.5039 40.582 20.3164C40.6211 20.1289 40.6367 20.0273 40.6289 20.0117L36.2578 7.4375H40.0195L42.6914 17.2578H42.75L45.4219 7.4375H49.0312L44.707 20.2812C44.168 21.8906 43.457 23.0195 42.5742 23.668C41.6992 24.3242 40.457 24.6523 38.8477 24.6523ZM55.5586 9.69922C54.8164 9.69922 54.1953 9.95312 53.6953 10.4609C53.2031 10.9688 52.9258 11.6172 52.8633 12.4062H58.1953C58.1562 11.6016 57.8945 10.9492 57.4102 10.4492C56.9336 9.94922 56.3164 9.69922 55.5586 9.69922ZM58.2422 16.1562H61.3828C61.1953 17.3906 60.5781 18.3867 59.5312 19.1445C58.4922 19.8945 57.1992 20.2695 55.6523 20.2695C53.7227 20.2695 52.207 19.6914 51.1055 18.5352C50.0117 17.3789 49.4648 15.793 49.4648 13.7773C49.4648 11.7695 50.0117 10.168 51.1055 8.97266C52.1992 7.76953 53.6719 7.16797 55.5234 7.16797C57.3437 7.16797 58.793 7.73828 59.8711 8.87891C60.9492 10.0195 61.4883 11.5469 61.4883 13.4609V14.5039H52.8281V14.7148C52.8281 15.6133 53.0898 16.3438 53.6133 16.9062C54.1445 17.4609 54.8437 17.7383 55.7109 17.7383C56.3359 17.7383 56.875 17.5977 57.3281 17.3164C57.7812 17.0273 58.0859 16.6406 58.2422 16.1562ZM68.1094 17.7266C68.8672 17.7266 69.5078 17.5078 70.0312 17.0703C70.5625 16.625 70.8281 16.0664 70.8281 15.3945V14.4805L68.1797 14.6445C67.5391 14.6914 67.043 14.8516 66.6914 15.125C66.3477 15.3984 66.1758 15.7578 66.1758 16.2031C66.1758 16.6719 66.3516 17.043 66.7031 17.3164C67.0547 17.5898 67.5234 17.7266 68.1094 17.7266ZM66.9844 20.1992C65.7734 20.1992 64.7695 19.8438 63.9727 19.1328C63.1758 18.4219 62.7773 17.5078 62.7773 16.3906C62.7773 15.25 63.1992 14.3555 64.043 13.707C64.8867 13.0586 66.0937 12.6875 67.6641 12.5938L70.8281 12.4062V11.5742C70.8281 10.9961 70.6367 10.543 70.2539 10.2148C69.8789 9.88672 69.3672 9.72266 68.7187 9.72266C68.0937 9.72266 67.582 9.86328 67.1836 10.1445C66.793 10.4258 66.5547 10.8047 66.4687 11.2812H63.3398C63.4023 10.0469 63.9297 9.05469 64.9219 8.30469C65.9141 7.54688 67.2305 7.16797 68.8711 7.16797C70.4805 7.16797 71.7695 7.55078 72.7383 8.31641C73.707 9.08203 74.1914 10.0977 74.1914 11.3633V20H70.8867V18.0781H70.8164C70.4727 18.7344 69.9492 19.2539 69.2461 19.6367C68.543 20.0117 67.7891 20.1992 66.9844 20.1992ZM76.4062 20V7.4375H79.7109V9.69922H79.7812C80 8.90234 80.3672 8.29297 80.8828 7.87109C81.3984 7.44922 82.0273 7.23828 82.7695 7.23828C83.1289 7.23828 83.4531 7.28125 83.7422 7.36719V10.3789C83.4219 10.2461 83.0078 10.1797 82.5 10.1797C81.6562 10.1797 81 10.4258 80.5312 10.918C80.0625 11.4102 79.8281 12.0977 79.8281 12.9805V20H76.4062ZM85.1484 20V7.4375H88.4531V9.67578H88.5234C88.8672 8.87891 89.3672 8.26953 90.0234 7.84766C90.6875 7.41797 91.4961 7.20312 92.4492 7.20312C93.8398 7.20312 94.9141 7.61719 95.6719 8.44531C96.4297 9.27344 96.8086 10.4258 96.8086 11.9023V20H93.3867V12.6172C93.3867 11.7891 93.1914 11.1523 92.8008 10.707C92.4102 10.2617 91.8359 10.0391 91.0781 10.0391C90.3203 10.0391 89.7109 10.293 89.25 10.8008C88.7969 11.3086 88.5703 11.9727 88.5703 12.793V20H85.1484Z"/>
<circle cx="12" cy="12" r="12"/>
<path fill-rule="evenodd" clip-rule="evenodd" d="M11.3005 6.84888H12.5409V17.6853H11.3005V6.84888Z" fill="white"/>
<path fill-rule="evenodd" clip-rule="evenodd" d="M10.5968 11.9467V10.6517C9.60198 10.1623 8.91702 9.13848 8.91702 7.9548C8.91702 6.2964 10.262 4.95144 11.9209 4.95144C13.7835 4.95144 15.1285 6.2964 15.1285 7.9548C15.1285 8.37288 15.0425 8.77104 14.8364 9.24408L14.3067 7.52208L13.2449 7.854L14.1865 11.4377L17.8417 10.093L17.3974 9.04488L16.0342 9.51144C16.2809 8.97648 16.3294 8.58312 16.3294 7.9548C16.3294 5.63256 14.4469 3.75 11.9209 3.75C9.59862 3.75 7.71606 5.63256 7.71606 7.9548C7.71606 9.81432 8.9235 11.3919 10.5968 11.9467Z" fill="white"/>
<path fill-rule="evenodd" clip-rule="evenodd" d="M13.2449 12.5877V13.8828C14.2397 14.3724 14.9246 15.396 14.9246 16.5797C14.9246 18.2381 13.5797 19.5831 11.9208 19.5831C10.0582 19.5831 8.7132 18.2381 8.7132 16.5797C8.7132 16.1616 8.79912 15.7635 9.00528 15.2904L9.53496 17.0124L10.5967 16.6805L9.6552 13.0968L6 14.4417L6.44424 15.4896L7.80744 15.0231C7.56072 15.558 7.51224 15.9513 7.51224 16.5797C7.51224 18.9019 9.3948 20.7845 11.9208 20.7845C14.243 20.7845 16.1256 18.9019 16.1256 16.5797C16.1256 14.7201 14.9181 13.1427 13.2449 12.5877Z" fill="white"/>
</svg>
