<svg width="1104" height="352" viewBox="0 0 1104 352" fill="none" xmlns="http://www.w3.org/2000/svg">
<path d="M518.986 90.8387L485.979 187.355L451.835 90.8387H412L465.493 227.097L462.078 236.181C458.664 245.265 455.249 247.535 445.006 247.535H424.52V279.329H460.94C482.565 279.329 489.394 267.974 498.499 245.265L558.821 90.8387H518.986Z" fill="#0657F9"/>
<path d="M629.385 89.7032C587.274 89.7032 558.82 116.955 558.82 158.968C558.82 200.981 586.135 228.232 632.799 228.232C669.22 228.232 693.121 206.658 697.674 180.542H660.115C656.7 193.032 646.457 199.845 630.523 199.845C611.175 199.845 598.655 188.49 597.517 169.187V166.916H697.674C698.812 162.374 698.812 158.968 698.812 154.426C697.674 114.684 670.358 89.7032 629.385 89.7032ZM598.655 143.071C600.931 127.174 613.451 116.955 629.385 116.955C646.457 116.955 657.839 126.039 661.253 143.071H598.655V143.071Z" fill="#0657F9"/>
<path d="M780.742 89.7032C744.322 89.7032 719.283 106.735 717.006 133.987H753.427C754.565 123.768 764.808 116.955 779.604 116.955C795.538 116.955 804.643 124.903 804.643 137.394V144.206H777.328C736.355 144.206 714.73 160.103 714.73 189.626C714.73 215.742 736.355 229.368 765.947 229.368C787.571 229.368 801.229 220.284 811.472 205.523C812.61 218.013 813.749 228.232 813.749 228.232H842.202V140.8C842.202 106.735 819.439 89.7032 780.742 89.7032ZM804.643 171.458C804.643 189.626 792.124 202.116 772.775 202.116C760.256 202.116 752.289 196.439 752.289 186.219C752.289 174.865 761.394 168.052 777.328 168.052H804.643V171.458V171.458Z" fill="#0657F9"/>
<path d="M904.819 111.277L901.404 90.8387H867.26V227.097H904.819V160.103C904.819 139.665 913.924 124.903 935.549 124.903H950.345V90.8387H944.654C923.029 90.8387 912.786 98.7871 904.819 111.277Z" fill="#0657F9"/>
<path d="M1049.27 89.7032C1027.65 89.7032 1015.13 97.6516 1007.16 107.871L1002.61 90.8387H969.6V227.097H1007.16V157.832C1007.16 133.987 1018.54 120.361 1037.89 120.361C1057.24 120.361 1066.34 132.852 1066.34 155.561V227.097H1103.9V152.155C1103.9 105.6 1078.86 89.7032 1049.27 89.7032Z" fill="#0657F9"/>
<path fill-rule="evenodd" clip-rule="evenodd" d="M37.2024 20.8304L17.0056 41.3648L66.2544 91.4192L115.502 141.474V188.086V234.697H144.108H172.714V188.088V141.478L221.965 91.4168L271.214 41.3552L250.864 20.6776L230.514 0L187.605 43.6104C164.005 67.5968 144.43 87.2216 144.106 87.2216C143.781 87.2216 124.274 67.6632 100.758 43.7584C77.24 19.8536 57.8648 0.295197 57.6992 0.295197C57.5344 0.295197 48.3112 9.5352 37.2024 20.8304ZM16.0464 137.674C8.88245 150.285 2.28005 172.735 0.460851 190.674C-0.437548 199.52 0.0376519 218.828 1.36565 227.503C13.7928 308.67 89.2248 363.841 168.605 349.822C220.936 340.582 263.967 303.058 280.694 252.082C286.198 235.307 287.982 223.962 288 205.622C288.018 185.77 285.794 172.577 279.358 154.365C277.151 148.119 271.474 135.781 270.808 135.781C270.541 135.781 260.667 145.596 248.868 157.594C229.027 177.765 227.435 179.535 227.71 181.123C227.874 182.068 228.441 184.818 228.969 187.233C230.503 194.254 231.102 203.754 230.51 211.674C229.886 219.996 228.902 225.125 226.411 233.026C218.417 258.393 197.242 280.121 171.956 288.904C162.298 292.258 156.878 293.086 144.403 293.113C131.723 293.141 126.941 292.456 117.113 289.206C90.376 280.368 68.5872 257.561 60.74 230.201C58.192 221.314 57.4592 215.638 57.492 205.022C57.5224 195.154 57.8328 192.627 60.436 181.042C60.6456 180.108 55.908 174.974 38.9448 157.757L17.1848 135.67L16.0464 137.674Z" fill="#0657F9"/>
</svg>
