<svg width="150" height="48" viewBox="0 0 150 48" fill="none" xmlns="http://www.w3.org/2000/svg">
<path d="M0 24C0 10.7452 10.7452 0 24 0C37.2548 0 48 10.7452 48 24C48 37.2548 37.2548 48 24 48C10.7452 48 0 37.2548 0 24Z" fill="#006AE3"/>
<path d="M23.0088 34.1186V14.1506H25.183V34.1186H23.0088Z" fill="white"/>
<path d="M34.0762 20.8034L27.3617 22.5842L25.8643 15.6146L27.8609 15.1634L28.648 18.4658C28.648 18.4658 30.4622 15.4898 28.0432 12.4082C26.6178 10.8242 25.9411 10.757 24.3428 10.5074C22.9366 10.3058 19.6681 10.781 18.6938 14.597C18.281 17.0546 18.7466 18.8738 21.9143 21.2546L21.7367 23.9042C21.7367 23.9042 18.1994 21.413 17.2875 19.6658C16.582 18.2834 15.3725 15.5522 17.5563 11.7506C18.7322 9.84979 21.0503 8.02579 25.1347 8.21779C27.1889 8.30419 32.2044 10.8146 31.4269 16.6802C31.2925 17.7794 30.7214 19.2434 30.7214 19.2434L33.4763 18.629L34.0762 20.8034Z" fill="white"/>
<path d="M30.2417 36.4276C29.013 38.2948 26.6469 40.0564 22.5721 39.7588C20.5179 39.6196 15.5744 36.9748 16.5055 31.1332C16.6687 30.0388 17.2782 28.594 17.2782 28.594L14.5089 29.1316L13.9666 26.9476L20.7291 25.3444L22.0441 32.3524L20.0331 32.7508L19.3324 29.4244C19.3324 29.4244 17.4414 32.3476 19.774 35.4964C21.1562 37.1188 21.8282 37.2004 23.4264 37.4932C24.8231 37.7332 28.1059 37.3396 29.181 33.5524C29.6562 31.1092 29.2386 29.2756 26.1381 26.8084L26.3877 24.1636C26.3877 24.1636 29.8578 26.746 30.7217 28.5172C31.384 29.9236 32.5215 32.6884 30.2417 36.4276Z" fill="white"/>
<path d="M64.62 38.82C64.4707 38.82 64.34 38.764 64.228 38.652C64.116 38.54 64.06 38.4093 64.06 38.26C64.06 38.1293 64.1067 37.9613 64.2 37.756L66.356 32.632L61.008 20.004C60.9147 19.7613 60.868 19.6027 60.868 19.528C60.868 19.36 60.924 19.22 61.036 19.108C61.148 18.996 61.288 18.94 61.456 18.94H62.828C63.1267 18.94 63.3507 19.0987 63.5 19.416L67.756 29.608L72.124 19.416C72.2733 19.0987 72.5067 18.94 72.824 18.94H74.14C74.308 18.94 74.448 18.996 74.56 19.108C74.672 19.22 74.728 19.3507 74.728 19.5C74.728 19.556 74.6813 19.724 74.588 20.004L66.636 38.344C66.4867 38.6613 66.2533 38.82 65.936 38.82H64.62ZM83.133 33.78C81.2104 33.78 79.6704 33.192 78.513 32.016C77.3744 30.8213 76.749 29.1973 76.637 27.144L76.609 26.192L76.637 25.268C76.7677 23.252 77.4024 21.6467 78.541 20.452C79.6984 19.2573 81.2197 18.66 83.105 18.66C85.177 18.66 86.7824 19.3227 87.921 20.648C89.0597 21.9547 89.629 23.728 89.629 25.968V26.444C89.629 26.6307 89.5637 26.7893 89.433 26.92C89.321 27.032 89.1717 27.088 88.985 27.088H79.297V27.34C79.353 28.5533 79.717 29.5893 80.389 30.448C81.0797 31.288 81.985 31.708 83.105 31.708C83.9637 31.708 84.6637 31.54 85.205 31.204C85.765 30.8493 86.1757 30.4853 86.437 30.112C86.605 29.888 86.7264 29.7573 86.801 29.72C86.8944 29.664 87.053 29.636 87.277 29.636H88.649C88.817 29.636 88.957 29.6827 89.069 29.776C89.181 29.8693 89.237 30 89.237 30.168C89.237 30.5787 88.9757 31.0733 88.453 31.652C87.949 32.2307 87.2304 32.7347 86.297 33.164C85.3824 33.5747 84.3277 33.78 83.133 33.78ZM86.969 25.156V25.072C86.969 23.784 86.6144 22.7387 85.905 21.936C85.2144 21.1147 84.281 20.704 83.105 20.704C81.929 20.704 80.9957 21.1147 80.305 21.936C79.633 22.7387 79.297 23.784 79.297 25.072V25.156H86.969ZM97.317 33.78C96.4023 33.78 95.553 33.5933 94.769 33.22C93.985 32.8467 93.3597 32.3427 92.893 31.708C92.445 31.0547 92.221 30.336 92.221 29.552C92.221 28.32 92.725 27.312 93.733 26.528C94.7597 25.7253 96.141 25.2027 97.877 24.96L102.049 24.372V23.56C102.049 21.656 100.957 20.704 98.773 20.704C97.9517 20.704 97.2797 20.8813 96.757 21.236C96.2343 21.572 95.8423 21.9733 95.581 22.44C95.525 22.608 95.4503 22.7293 95.357 22.804C95.2823 22.8787 95.1703 22.916 95.021 22.916H93.817C93.649 22.916 93.4997 22.86 93.369 22.748C93.257 22.6173 93.201 22.468 93.201 22.3C93.2197 21.852 93.425 21.348 93.817 20.788C94.2277 20.2093 94.853 19.7147 95.693 19.304C96.533 18.8747 97.569 18.66 98.801 18.66C100.892 18.66 102.394 19.1547 103.309 20.144C104.224 21.1147 104.681 22.328 104.681 23.784V32.856C104.681 33.0427 104.616 33.2013 104.485 33.332C104.373 33.444 104.224 33.5 104.037 33.5H102.749C102.562 33.5 102.404 33.444 102.273 33.332C102.161 33.2013 102.105 33.0427 102.105 32.856V31.652C101.694 32.2493 101.097 32.7533 100.313 33.164C99.529 33.5747 98.5303 33.78 97.317 33.78ZM97.905 31.68C99.1183 31.68 100.108 31.288 100.873 30.504C101.657 29.7013 102.049 28.5533 102.049 27.06V26.276L98.801 26.752C97.4757 26.9387 96.477 27.256 95.805 27.704C95.133 28.1333 94.797 28.684 94.797 29.356C94.797 30.1027 95.105 30.6813 95.721 31.092C96.337 31.484 97.065 31.68 97.905 31.68ZM109.63 33.5C109.444 33.5 109.285 33.444 109.154 33.332C109.042 33.2013 108.986 33.0427 108.986 32.856V19.612C108.986 19.4253 109.042 19.2667 109.154 19.136C109.285 19.0053 109.444 18.94 109.63 18.94H110.918C111.105 18.94 111.264 19.0053 111.394 19.136C111.525 19.2667 111.59 19.4253 111.59 19.612V20.844C112.356 19.5747 113.662 18.94 115.51 18.94H116.602C116.789 18.94 116.938 19.0053 117.05 19.136C117.181 19.248 117.246 19.3973 117.246 19.584V20.732C117.246 20.9187 117.181 21.068 117.05 21.18C116.938 21.292 116.789 21.348 116.602 21.348H114.922C113.914 21.348 113.121 21.6467 112.542 22.244C111.964 22.8227 111.674 23.616 111.674 24.624V32.856C111.674 33.0427 111.609 33.2013 111.478 33.332C111.348 33.444 111.189 33.5 111.002 33.5H109.63ZM120.547 33.5C120.36 33.5 120.202 33.444 120.071 33.332C119.959 33.2013 119.903 33.0427 119.903 32.856V19.584C119.903 19.3973 119.959 19.248 120.071 19.136C120.202 19.0053 120.36 18.94 120.547 18.94H121.863C122.05 18.94 122.199 19.0053 122.311 19.136C122.442 19.248 122.507 19.3973 122.507 19.584V20.816C123.048 20.1253 123.683 19.5933 124.411 19.22C125.158 18.8467 126.082 18.66 127.183 18.66C128.975 18.66 130.366 19.2387 131.355 20.396C132.363 21.5347 132.867 23.056 132.867 24.96V32.856C132.867 33.0427 132.802 33.2013 132.671 33.332C132.559 33.444 132.41 33.5 132.223 33.5H130.823C130.636 33.5 130.478 33.444 130.347 33.332C130.235 33.2013 130.179 33.0427 130.179 32.856V25.1C130.179 23.7747 129.852 22.748 129.199 22.02C128.564 21.292 127.64 20.928 126.427 20.928C125.251 20.928 124.318 21.3013 123.627 22.048C122.936 22.776 122.591 23.7933 122.591 25.1V32.856C122.591 33.0427 122.526 33.2013 122.395 33.332C122.283 33.444 122.134 33.5 121.947 33.5H120.547Z" fill="white"/>
</svg>
