<svg width="48" height="48" viewBox="0 0 48 48" fill="none" xmlns="http://www.w3.org/2000/svg">
<path d="M0 24C0 10.7452 10.7452 0 24 0C37.2548 0 48 10.7452 48 24C48 37.2548 37.2548 48 24 48C10.7452 48 0 37.2548 0 24Z" fill="#006AE3"/>
<path d="M23.0088 34.1186V14.1506H25.183V34.1186H23.0088Z" fill="white"/>
<path d="M34.0762 20.8034L27.3617 22.5842L25.8643 15.6146L27.8609 15.1634L28.648 18.4658C28.648 18.4658 30.4622 15.4898 28.0432 12.4082C26.6178 10.8242 25.9411 10.757 24.3428 10.5074C22.9366 10.3058 19.6681 10.781 18.6938 14.597C18.281 17.0546 18.7466 18.8738 21.9143 21.2546L21.7367 23.9042C21.7367 23.9042 18.1994 21.413 17.2875 19.6658C16.582 18.2834 15.3725 15.5522 17.5563 11.7506C18.7322 9.84979 21.0503 8.02579 25.1347 8.21779C27.1889 8.30419 32.2044 10.8146 31.4269 16.6802C31.2925 17.7794 30.7214 19.2434 30.7214 19.2434L33.4763 18.629L34.0762 20.8034Z" fill="white"/>
<path d="M30.2417 36.4276C29.013 38.2948 26.6469 40.0564 22.5721 39.7588C20.5179 39.6196 15.5744 36.9748 16.5055 31.1332C16.6687 30.0388 17.2782 28.594 17.2782 28.594L14.5089 29.1316L13.9666 26.9476L20.7291 25.3444L22.0441 32.3524L20.0331 32.7508L19.3324 29.4244C19.3324 29.4244 17.4414 32.3476 19.774 35.4964C21.1562 37.1188 21.8282 37.2004 23.4264 37.4932C24.8231 37.7332 28.1059 37.3396 29.181 33.5524C29.6562 31.1092 29.2386 29.2756 26.1381 26.8084L26.3877 24.1636C26.3877 24.1636 29.8578 26.746 30.7217 28.5172C31.384 29.9236 32.5215 32.6884 30.2417 36.4276Z" fill="white"/>
</svg>
