<svg width="288" height="352" viewBox="0 0 288 352" fill="none" xmlns="http://www.w3.org/2000/svg">
<path fill-rule="evenodd" clip-rule="evenodd" d="M37.2024 20.8304L17.0056 41.3648L66.2544 91.4193L115.502 141.474V188.086V234.697H144.108H172.714V188.088V141.478L221.965 91.4169L271.214 41.3552L250.864 20.6776L230.514 0L187.605 43.6104C164.005 67.5968 144.43 87.2217 144.106 87.2217C143.781 87.2217 124.274 67.6632 100.758 43.7584C77.24 19.8536 57.8648 0.295197 57.6992 0.295197C57.5344 0.295197 48.3112 9.5352 37.2024 20.8304ZM16.0464 137.674C8.88245 150.285 2.28005 172.735 0.460851 190.674C-0.437548 199.52 0.0376519 218.828 1.36565 227.503C13.7928 308.67 89.2248 363.841 168.605 349.823C220.936 340.582 263.967 303.059 280.694 252.083C286.198 235.307 287.982 223.962 288 205.622C288.018 185.771 285.794 172.577 279.358 154.365C277.151 148.119 271.474 135.781 270.808 135.781C270.541 135.781 260.667 145.596 248.868 157.594C229.027 177.765 227.435 179.535 227.71 181.123C227.874 182.068 228.441 184.818 228.969 187.233C230.503 194.254 231.102 203.755 230.51 211.674C229.886 219.996 228.902 225.125 226.411 233.026C218.417 258.393 197.242 280.121 171.956 288.904C162.298 292.259 156.878 293.087 144.403 293.113C131.723 293.141 126.941 292.456 117.113 289.207C90.376 280.368 68.5872 257.561 60.74 230.201C58.192 221.315 57.4592 215.638 57.492 205.023C57.5224 195.154 57.8328 192.627 60.436 181.043C60.6456 180.108 55.908 174.974 38.9448 157.757L17.1848 135.67L16.0464 137.674Z" fill="#0657F9"/>
</svg>
