<svg width="98" height="24" viewBox="0 0 98 24" fill="none" xmlns="http://www.w3.org/2000/svg">
<path d="M0 12C0 5.37258 5.37258 0 12 0C18.6274 0 24 5.37258 24 12C24 18.6274 18.6274 24 12 24C5.37258 24 0 18.6274 0 12Z"/>
<path d="M11.5043 17.0593V7.07532H12.5914V17.0593H11.5043Z" fill="white"/>
<path d="M17.0381 10.4017L13.6808 11.2921L12.9321 7.8073L13.9304 7.5817L14.3239 9.2329C14.3239 9.2329 15.231 7.7449 14.0216 6.2041C13.3088 5.41209 12.9705 5.37849 12.1713 5.25369C11.4682 5.15289 9.83398 5.3905 9.34683 7.2985C9.14045 8.5273 9.37323 9.4369 10.9571 10.6273L10.8683 11.9521C10.8683 11.9521 9.09966 10.7065 8.6437 9.8329C8.29094 9.1417 7.6862 7.7761 8.77809 5.8753C9.36603 4.92489 10.5251 4.01289 12.5673 4.10889C13.5944 4.15209 16.1022 5.4073 15.7134 8.3401C15.6462 8.8897 15.3606 9.6217 15.3606 9.6217L16.7381 9.3145L17.0381 10.4017Z" fill="white"/>
<path d="M15.1208 18.2138C14.5065 19.1474 13.3234 20.0282 11.286 19.8794C10.2589 19.8098 7.78713 18.4874 8.25269 15.5666C8.33428 15.0194 8.63905 14.297 8.63905 14.297L7.25439 14.5658L6.98322 13.4738L10.3645 12.6722L11.022 16.1762L10.0165 16.3754L9.66615 14.7122C9.66615 14.7122 8.72064 16.1738 9.88692 17.7482C10.5781 18.5594 10.914 18.6002 11.7131 18.7466C12.4115 18.8666 14.0529 18.6698 14.5905 16.7762C14.828 15.5546 14.6192 14.6378 13.069 13.4042L13.1938 12.0818C13.1938 12.0818 14.9288 13.373 15.3608 14.2586C15.6919 14.9618 16.2607 16.3442 15.1208 18.2138Z" fill="white"/>
<path d="M38.8516 22.6523C38.1016 22.6523 37.6719 22.6406 37.5625 22.6172V19.9805C37.6328 19.9961 37.918 20.0039 38.418 20.0039C39.0508 20.0039 39.5312 19.8945 39.8594 19.6758C40.1875 19.4648 40.4102 19.1094 40.5273 18.6094C40.5273 18.6016 40.5469 18.5039 40.5859 18.3164C40.625 18.1289 40.6406 18.0273 40.6328 18.0117L36.2617 5.4375H40.0234L42.6953 15.2578H42.7539L45.4258 5.4375H49.0352L44.7109 18.2812C44.1719 19.8906 43.4609 21.0195 42.5781 21.668C41.7031 22.3242 40.4609 22.6523 38.8516 22.6523ZM55.5625 7.69922C54.8203 7.69922 54.1992 7.95312 53.6992 8.46094C53.207 8.96875 52.9297 9.61719 52.8672 10.4062H58.1992C58.1602 9.60156 57.8984 8.94922 57.4141 8.44922C56.9375 7.94922 56.3203 7.69922 55.5625 7.69922ZM58.2461 14.1562H61.3867C61.1992 15.3906 60.582 16.3867 59.5352 17.1445C58.4961 17.8945 57.2031 18.2695 55.6562 18.2695C53.7266 18.2695 52.2109 17.6914 51.1094 16.5352C50.0156 15.3789 49.4688 13.793 49.4688 11.7773C49.4688 9.76953 50.0156 8.16797 51.1094 6.97266C52.2031 5.76953 53.6758 5.16797 55.5273 5.16797C57.3477 5.16797 58.7969 5.73828 59.875 6.87891C60.9531 8.01953 61.4922 9.54688 61.4922 11.4609V12.5039H52.832V12.7148C52.832 13.6133 53.0938 14.3438 53.6172 14.9062C54.1484 15.4609 54.8477 15.7383 55.7148 15.7383C56.3398 15.7383 56.8789 15.5977 57.332 15.3164C57.7852 15.0273 58.0898 14.6406 58.2461 14.1562ZM68.1133 15.7266C68.8711 15.7266 69.5117 15.5078 70.0352 15.0703C70.5664 14.625 70.832 14.0664 70.832 13.3945V12.4805L68.1836 12.6445C67.543 12.6914 67.0469 12.8516 66.6953 13.125C66.3516 13.3984 66.1797 13.7578 66.1797 14.2031C66.1797 14.6719 66.3555 15.043 66.707 15.3164C67.0586 15.5898 67.5273 15.7266 68.1133 15.7266ZM66.9883 18.1992C65.7773 18.1992 64.7734 17.8438 63.9766 17.1328C63.1797 16.4219 62.7812 15.5078 62.7812 14.3906C62.7812 13.25 63.2031 12.3555 64.0469 11.707C64.8906 11.0586 66.0977 10.6875 67.668 10.5938L70.832 10.4062V9.57422C70.832 8.99609 70.6406 8.54297 70.2578 8.21484C69.8828 7.88672 69.3711 7.72266 68.7227 7.72266C68.0977 7.72266 67.5859 7.86328 67.1875 8.14453C66.7969 8.42578 66.5586 8.80469 66.4727 9.28125H63.3438C63.4062 8.04688 63.9336 7.05469 64.9258 6.30469C65.918 5.54687 67.2344 5.16797 68.875 5.16797C70.4844 5.16797 71.7734 5.55078 72.7422 6.31641C73.7109 7.08203 74.1953 8.09766 74.1953 9.36328V18H70.8906V16.0781H70.8203C70.4766 16.7344 69.9531 17.2539 69.25 17.6367C68.5469 18.0117 67.793 18.1992 66.9883 18.1992ZM76.4102 18V5.4375H79.7148V7.69922H79.7852C80.0039 6.90234 80.3711 6.29297 80.8867 5.87109C81.4023 5.44922 82.0312 5.23828 82.7734 5.23828C83.1328 5.23828 83.457 5.28125 83.7461 5.36719V8.37891C83.4258 8.24609 83.0117 8.17969 82.5039 8.17969C81.6602 8.17969 81.0039 8.42578 80.5352 8.91797C80.0664 9.41016 79.832 10.0977 79.832 10.9805V18H76.4102ZM85.1523 18V5.4375H88.457V7.67578H88.5273C88.8711 6.87891 89.3711 6.26953 90.0273 5.84766C90.6914 5.41797 91.5 5.20312 92.4531 5.20312C93.8438 5.20312 94.918 5.61719 95.6758 6.44531C96.4336 7.27344 96.8125 8.42578 96.8125 9.90234V18H93.3906V10.6172C93.3906 9.78906 93.1953 9.15234 92.8047 8.70703C92.4141 8.26172 91.8398 8.03906 91.082 8.03906C90.3242 8.03906 89.7148 8.29297 89.2539 8.80078C88.8008 9.30859 88.5742 9.97266 88.5742 10.793V18H85.1523Z"/>
</svg>
