<svg width="24" height="24" viewBox="0 0 24 24" fill="none" xmlns="http://www.w3.org/2000/svg">
<path d="M0 12C0 5.37258 5.37258 0 12 0C18.6274 0 24 5.37258 24 12C24 18.6274 18.6274 24 12 24C5.37258 24 0 18.6274 0 12Z"/>
<path d="M11.5043 17.0593V7.07527H12.5914V17.0593H11.5043Z" fill="white"/>
<path d="M17.0381 10.4017L13.6808 11.2921L12.9321 7.80727L13.9304 7.58167L14.3239 9.23287C14.3239 9.23287 15.231 7.74487 14.0216 6.20406C13.3088 5.41206 12.9705 5.37846 12.1713 5.25366C11.4682 5.15286 9.83398 5.39046 9.34683 7.29847C9.14045 8.52727 9.37323 9.43687 10.9571 10.6273L10.8683 11.9521C10.8683 11.9521 9.09966 10.7065 8.6437 9.83287C8.29094 9.14167 7.6862 7.77607 8.77809 5.87526C9.36603 4.92486 10.5251 4.01286 12.5673 4.10886C13.5944 4.15206 16.1022 5.40726 15.7134 8.34007C15.6462 8.88967 15.3606 9.62167 15.3606 9.62167L16.7381 9.31447L17.0381 10.4017Z" fill="white"/>
<path d="M15.1208 18.2137C14.5065 19.1473 13.3234 20.0281 11.286 19.8793C10.2589 19.8097 7.78713 18.4873 8.25269 15.5665C8.33428 15.0193 8.63905 14.2969 8.63905 14.2969L7.25439 14.5657L6.98322 13.4737L10.3645 12.6721L11.022 16.1761L10.0165 16.3753L9.66615 14.7121C9.66615 14.7121 8.72064 16.1737 9.88692 17.7481C10.5781 18.5593 10.914 18.6001 11.7131 18.7465C12.4115 18.8665 14.0529 18.6697 14.5905 16.7761C14.828 15.5545 14.6192 14.6377 13.069 13.4041L13.1938 12.0817C13.1938 12.0817 14.9288 13.3729 15.3608 14.2585C15.6919 14.9617 16.2607 16.3441 15.1208 18.2137Z" fill="white"/>
</svg>
