<svg width="62" height="79" viewBox="0 0 62 79" fill="none" xmlns="http://www.w3.org/2000/svg">
<path d="M24.8075 50.8575H36.919V32.4503L55.8796 7.14156L46.2322 0L30.905 20.5059L29.5477 18.7414L15.3272 0.0835271L5.75293 7.14156L24.8075 32.5338V50.8575Z" fill="#0657F9"/>
<path d="M51.223 25.9769L43.7682 35.3737C45.5873 37.0922 47.0367 39.1638 48.0276 41.4617C49.0186 43.7596 49.5303 46.2356 49.5315 48.7381C49.562 51.8469 48.8177 54.9144 47.3658 57.6636C45.914 60.4128 43.8003 62.7571 41.2156 64.4849C38.6309 66.2127 35.6566 67.2695 32.5612 67.56C29.4658 67.8505 26.3468 67.3655 23.4857 66.1488C20.6247 64.9322 18.1117 63.022 16.1737 60.591C14.2357 58.16 12.9336 55.2845 12.3851 52.2243C11.8366 49.1641 12.0588 46.0154 13.0318 43.0626C14.0049 40.1097 15.698 37.4457 17.9583 35.3111L10.587 25.8099C7.25913 28.6386 4.58861 32.1594 2.76185 36.1267C0.935094 40.094 -0.00389645 44.4122 0.0104151 48.7798C0.304038 56.7524 3.67761 64.3005 9.42175 69.837C15.1659 75.3735 22.8331 78.4669 30.811 78.4669C38.789 78.4669 46.4561 75.3735 52.2003 69.837C57.9444 64.3005 61.318 56.7524 61.6116 48.7798C61.6078 44.4577 60.6788 40.1865 58.8869 36.2533C57.095 32.3201 54.4818 28.8161 51.223 25.9769Z" fill="#0657F9"/>
</svg>
