<svg width="24" height="24" viewBox="0 0 24 24" fill="none" xmlns="http://www.w3.org/2000/svg">
<circle cx="12" cy="12" r="12"/>
<path fill-rule="evenodd" clip-rule="evenodd" d="M11.3005 6.84888H12.5409V17.6853H11.3005V6.84888Z" fill="white"/>
<path fill-rule="evenodd" clip-rule="evenodd" d="M10.5968 11.9467V10.6517C9.60198 10.1623 8.91702 9.13848 8.91702 7.9548C8.91702 6.2964 10.262 4.95144 11.9209 4.95144C13.7835 4.95144 15.1285 6.2964 15.1285 7.9548C15.1285 8.37288 15.0425 8.77104 14.8364 9.24408L14.3067 7.52208L13.2449 7.854L14.1865 11.4377L17.8417 10.093L17.3974 9.04488L16.0342 9.51144C16.2809 8.97648 16.3294 8.58312 16.3294 7.9548C16.3294 5.63256 14.4469 3.75 11.9209 3.75C9.59862 3.75 7.71606 5.63256 7.71606 7.9548C7.71606 9.81432 8.9235 11.3919 10.5968 11.9467Z" fill="white"/>
<path fill-rule="evenodd" clip-rule="evenodd" d="M13.2449 12.5877V13.8828C14.2397 14.3724 14.9246 15.396 14.9246 16.5797C14.9246 18.2381 13.5797 19.5831 11.9208 19.5831C10.0582 19.5831 8.7132 18.2381 8.7132 16.5797C8.7132 16.1616 8.79912 15.7635 9.00528 15.2904L9.53496 17.0124L10.5967 16.6805L9.6552 13.0968L6 14.4417L6.44424 15.4896L7.80744 15.0231C7.56072 15.558 7.51224 15.9513 7.51224 16.5797C7.51224 18.9019 9.3948 20.7845 11.9208 20.7845C14.243 20.7845 16.1256 18.9019 16.1256 16.5797C16.1256 14.7201 14.9181 13.1427 13.2449 12.5877Z" fill="white"/>
</svg>
