<svg width="100" height="100" viewBox="0 0 100 100" fill="none" xmlns="http://www.w3.org/2000/svg">
<path fill-rule="evenodd" clip-rule="evenodd" d="M100 50C100 43.456 98.698 36.912 96.194 30.866C93.69 24.82 89.983 19.272 85.355 14.645C80.728 10.017 75.18 6.31 69.134 3.806C63.088 1.302 56.544 0 50 0C43.456 0 36.912 1.302 30.866 3.806C24.82 6.31 19.272 10.017 14.645 14.645C10.017 19.272 6.31 24.82 3.806 30.866C1.302 36.912 0 43.456 0 50C0 56.544 1.302 63.088 3.806 69.134C6.31 75.18 10.017 80.728 14.645 85.355C19.272 89.983 24.82 93.69 30.866 96.194C36.912 98.698 43.456 100 50 100C56.544 100 63.088 98.698 69.134 96.194C75.18 93.69 80.728 89.983 85.355 85.355C89.983 80.728 93.69 75.18 96.194 69.134C98.698 63.088 100 56.544 100 50Z" fill="url(#paint0_linear_4_15617)"/>
<path fill-rule="evenodd" clip-rule="evenodd" d="M47.4159 27.425H52.5839V72.577H47.4159V27.425Z" fill="white"/>
<path fill-rule="evenodd" clip-rule="evenodd" d="M44.483 48.6651V43.2691C40.338 41.2301 37.484 36.9641 37.484 32.0321C37.484 25.1221 43.088 19.5181 50 19.5181C57.761 19.5181 63.365 25.1221 63.365 32.0321C63.365 33.7741 63.007 35.4331 62.148 37.4041L59.941 30.2291L55.517 31.6121L59.44 46.5441L74.67 40.9411L72.819 36.5741L67.139 38.5181C68.167 36.2891 68.369 34.6501 68.369 32.0321C68.369 22.3561 60.525 14.5121 50 14.5121C40.324 14.5121 32.48 22.3561 32.48 32.0321C32.48 39.7801 37.511 46.3531 44.483 48.6651Z" fill="white"/>
<path fill-rule="evenodd" clip-rule="evenodd" d="M55.517 51.337V56.733C59.662 58.773 62.516 63.038 62.516 67.97C62.516 74.88 56.912 80.484 50 80.484C42.239 80.484 36.635 74.88 36.635 67.97C36.635 66.228 36.993 64.569 37.852 62.598L40.059 69.773L44.483 68.39L40.56 53.458L25.33 59.062L27.181 63.428L32.861 61.484C31.833 63.713 31.631 65.352 31.631 67.97C31.631 77.646 39.475 85.49 50 85.49C59.676 85.49 67.52 77.646 67.52 67.97C67.52 60.222 62.489 53.649 55.517 51.337Z" fill="white"/>
<defs>
<linearGradient id="paint0_linear_4_15617" x1="-50" y1="50" x2="50" y2="150" gradientUnits="userSpaceOnUse">
<stop stop-color="#0077FC"/>
<stop offset="1" stop-color="#095EB5"/>
</linearGradient>
</defs>
</svg>
