<svg width="420" height="512" viewBox="0 0 420 512" fill="none" xmlns="http://www.w3.org/2000/svg">
<path fill-rule="evenodd" clip-rule="evenodd" d="M54.2535 30.2988L24.7999 60.167L96.621 132.973L168.441 205.78V273.579V341.377H210.157H251.875V273.583V205.787L323.699 132.97L395.521 60.1531L365.843 30.0765L336.166 0L273.59 63.4333C239.174 98.3227 210.626 126.868 210.154 126.868C209.68 126.868 181.233 98.4193 146.938 63.6486C112.642 28.878 84.3862 0.429377 84.1447 0.429377C83.9044 0.429377 70.4539 13.8694 54.2535 30.2988ZM23.4011 200.253C12.9536 218.596 3.32507 251.251 0.672075 277.344C-0.638091 290.211 0.054909 318.295 1.99157 330.914C20.1146 448.974 130.119 529.223 245.882 508.833C322.198 495.392 384.952 440.813 409.346 366.666C417.373 342.265 419.974 325.763 420 299.086C420.027 270.212 416.783 251.021 407.396 224.531C404.179 215.446 395.9 197.499 394.928 197.499C394.539 197.499 380.14 211.776 362.932 229.227C333.998 258.567 331.676 261.142 332.078 263.452C332.317 264.826 333.143 268.826 333.913 272.339C336.15 282.551 337.023 296.37 336.16 307.889C335.25 319.994 333.815 327.454 330.183 338.947C318.524 375.844 287.645 407.449 250.769 420.224C236.685 425.103 228.78 426.308 210.588 426.346C192.096 426.387 185.122 425.391 170.789 420.664C131.798 407.808 100.023 374.634 88.5792 334.838C84.8634 321.912 83.7947 313.655 83.8425 298.215C83.8869 283.86 84.3395 280.185 88.1359 263.335C88.4415 261.975 81.5325 254.507 56.7945 229.465L25.0612 197.339L23.4011 200.253Z" fill="#0657F9"/>
</svg>
