<?xml version="1.0" encoding="utf-8"?>
<!-- Generator: Adobe Illustrator 26.0.2, SVG Export Plug-In . SVG Version: 6.00 Build 0)  -->
<svg version="1.1" xmlns="http://www.w3.org/2000/svg" xmlns:xlink="http://www.w3.org/1999/xlink" x="0px" y="0px"
	 viewBox="0 0 24 31" style="enable-background:new 0 0 24 31;" xml:space="preserve">
<path fill="#0657F9" d="M9.6,20h4.7v-7.1l7.3-9.8l-3.7-2.8L12,8.2l-0.5-0.7L5.9,0.3L2.2,3.1l7.4,9.8V20z"/>
<path fill="#0657F9" d="M19.8,10.4L17,14c0.7,0.7,1.3,1.5,1.7,2.4c0.4,0.9,0.6,1.8,0.6,2.8c0,1.2-0.3,2.4-0.8,3.5
	c-0.6,1.1-1.4,2-2.4,2.6s-2.2,1.1-3.4,1.2c-1.2,0.1-2.4-0.1-3.5-0.5C8,25.5,7,24.7,6.3,23.8S5,21.7,4.8,20.5C4.6,19.3,4.7,18.1,5,17
	c0.4-1.1,1-2.2,1.9-3l-2.9-3.7c-1.3,1.1-2.3,2.5-3,4C0.4,15.8,0,17.5,0,19.2c0.1,3.1,1.4,6,3.6,8.2c2.2,2.1,5.2,3.3,8.3,3.3
	c3.1,0,6.1-1.2,8.3-3.3c2.2-2.1,3.5-5.1,3.6-8.2c0-1.7-0.4-3.3-1.1-4.9C22.1,12.8,21.1,11.5,19.8,10.4z"/>
</svg>