<svg width="20" height="22" viewBox="0 0 20 22" xmlns="http://www.w3.org/2000/svg">
<path fill-rule="evenodd" clip-rule="evenodd" d="M20 6.09127C20 5.72658 19.8015 5.39081 19.4819 5.21506L10.4819 0.265055C10.1818 0.10001 9.81816 0.10001 9.51808 0.265055L0.518081 5.21506C0.198533 5.39081 0 5.72658 0 6.09127V15.9087C0 16.2734 0.198533 16.6092 0.518081 16.7849L9.51808 21.7349C9.81816 21.9 10.1818 21.9 10.4819 21.7349L19.4819 16.7849C19.8015 16.6092 20 16.2734 20 15.9087V6.09127ZM10.4819 1.99711C10.1818 1.83206 9.81816 1.83206 9.51808 1.99711L2.09267 6.08108C1.77312 6.25683 1.57459 6.59261 1.57459 6.9573V14.3333L6.98082 6.67994C7.21981 6.34162 7.6878 6.26109 8.02612 6.50007C8.36444 6.73906 8.44497 7.20705 8.20599 7.54537L2.23555 15.9975L3.85977 16.8908L10.579 6.7128C10.8072 6.36712 11.2724 6.27189 11.6181 6.5001C11.9638 6.72831 12.059 7.19353 11.8308 7.53921L5.17838 17.6161L9.51808 20.0029C9.81816 20.1679 10.1818 20.1679 10.4819 20.0029L14.0692 18.0299L10.1978 12.4389C10.0222 12.1853 10.0183 11.8505 10.1879 11.5929C10.4827 11.145 11.1371 11.1379 11.4416 11.5793L15.3906 17.3031L16.8946 16.4759L12.0544 9.62388C11.8764 9.37185 11.8709 9.03649 12.0405 8.77876C12.3311 8.33743 12.9747 8.32687 13.2796 8.75845L18.2172 15.7485L18.4254 15.634V6.9573C18.4254 6.59261 18.2269 6.25683 17.9073 6.08108L10.4819 1.99711Z" />
</svg>
