<svg width="24" height="24" viewBox="0 0 24 24" fill="none" xmlns="http://www.w3.org/2000/svg">
<path fill-rule="evenodd" clip-rule="evenodd" d="M22 7.09127C22 6.72658 21.8015 6.39081 21.4819 6.21506L12.4819 1.26506C12.1818 1.10001 11.8182 1.10001 11.5181 1.26506L2.51808 6.21506C2.19853 6.39081 2 6.72658 2 7.09127V16.9087C2 17.2734 2.19853 17.6092 2.51808 17.7849L11.5181 22.7349C11.8182 22.9 12.1818 22.9 12.4819 22.7349L21.4819 17.7849C21.8015 17.6092 22 17.2734 22 16.9087V7.09127ZM12.4819 2.99711C12.1818 2.83206 11.8182 2.83206 11.5181 2.99711L4.09267 7.08108C3.77312 7.25683 3.57459 7.59261 3.57459 7.9573V15.3333L8.98082 7.67994C9.21981 7.34162 9.6878 7.26109 10.0261 7.50007V7.50007C10.3644 7.73906 10.445 8.20705 10.206 8.54537L4.23555 16.9975L5.85977 17.8908L12.579 7.7128C12.8072 7.36712 13.2724 7.27189 13.6181 7.5001V7.5001C13.9638 7.72831 14.059 8.19353 13.8308 8.53921L7.17838 18.6161L11.5181 21.0029C11.8182 21.1679 12.1818 21.1679 12.4819 21.0029L16.0692 19.0299L12.1978 13.4389C12.0222 13.1853 12.0183 12.8505 12.1879 12.5929V12.5929C12.4827 12.145 13.1371 12.1379 13.4416 12.5793L17.3906 18.3031L18.8946 17.4759L14.0544 10.6239C13.8764 10.3718 13.8709 10.0365 14.0405 9.77876V9.77876C14.3311 9.33743 14.9747 9.32688 15.2796 9.75845L20.2172 16.7485L20.4254 16.634V7.9573C20.4254 7.59261 20.2269 7.25683 19.9073 7.08108L12.4819 2.99711Z"/>
</svg>
