<svg width="11" height="18" viewBox="0 0 11 18" fill="none" xmlns="http://www.w3.org/2000/svg">
<path d="M6.11718 1C7.66093 3.58125 9.19842 6.16875 10.7547 8.74375C10.9422 9.05625 10.9047 9.225 10.5859 9.4125C9.14842 10.2562 7.71718 11.1062 6.29843 11.975C6.06093 12.1187 5.87968 12.1062 5.64218 11.9687C4.19843 11.1125 2.75468 10.2625 1.29843 9.425C0.992177 9.25 0.910927 9.0875 1.10468 8.7625C2.63593 6.275 4.14218 3.775 5.66093 1.2875C5.72343 1.1875 5.80468 1.09375 5.87343 1C5.96093 1 6.03593 1 6.11718 1ZM5.72343 2.29375C5.69843 2.2875 5.66718 2.28125 5.64218 2.275C4.40468 4.3125 3.16718 6.35 1.88593 8.45625C2.02343 8.425 2.06718 8.41875 2.11093 8.4C3.24218 7.89375 4.37343 7.39375 5.49218 6.86875C5.60468 6.81875 5.71093 6.6125 5.71093 6.48125C5.72968 5.65625 5.72343 4.83125 5.72343 4C5.72343 3.425 5.72343 2.8625 5.72343 2.29375ZM9.90467 8.45625C9.92342 8.4375 9.93592 8.4125 9.95467 8.39375C8.73592 6.35625 7.52343 4.31875 6.30468 2.2875C6.22343 3.73125 6.21093 5.14375 6.23593 6.55C6.23593 6.66875 6.39218 6.84375 6.52343 6.9C7.32343 7.2875 8.13593 7.65 8.94843 8.01875C9.26718 8.16875 9.58592 8.30625 9.90467 8.45625ZM1.75468 9.10625C3.11093 9.9 4.38593 10.6437 5.69843 11.4125C5.69843 10.025 5.69843 8.70625 5.69843 7.33125C4.38593 7.925 3.10468 8.5 1.75468 9.10625ZM6.24218 11.4187C7.56093 10.6312 8.81092 9.8875 10.1234 9.10625C8.79842 8.5 7.54218 7.925 6.24218 7.33125C6.24218 8.71875 6.24218 10.0312 6.24218 11.4187Z"/>
<path d="M5.87969 17C5.31719 16.225 4.75469 15.45 4.19844 14.6688C3.19219 13.2563 2.18594 11.85 1.19219 10.425C1.10469 10.3 1.11719 10.1 1.07969 9.9375C1.24844 9.9625 1.44219 9.9375 1.57969 10.0125C2.94219 10.8 4.29844 11.5938 5.64219 12.4063C5.89844 12.5625 6.07344 12.55 6.31719 12.4C7.61719 11.6125 8.92969 10.85 10.2359 10.0813C10.3297 10.025 10.4172 9.94375 10.5109 9.925C10.6297 9.9 10.7547 9.9375 10.8734 9.94375C10.8609 10.0688 10.8734 10.1938 10.8359 10.3063C10.8047 10.4063 10.7234 10.4813 10.6609 10.5688C9.14219 12.7125 7.62969 14.85 6.11094 16.9937C6.03594 17 5.96094 17 5.87969 17ZM6.22344 15.8188C6.25469 15.8313 6.28594 15.8375 6.31719 15.85C7.43594 14.275 8.55469 12.7 9.66719 11.1313C9.64219 11.1063 9.61094 11.0813 9.58594 11.0563C8.51094 11.6875 7.44219 12.3188 6.37344 12.9563C6.30469 12.9938 6.22969 13.1 6.22969 13.1688C6.22344 14.05 6.22344 14.9313 6.22344 15.8188ZM2.31719 11.0188C2.29219 11.0375 2.27344 11.0563 2.24844 11.075C3.37969 12.6688 4.51094 14.2625 5.64219 15.85C5.72344 14.9313 5.72344 14.0438 5.71094 13.1625C5.71094 13.0813 5.61719 12.975 5.54219 12.9313C4.47344 12.2875 3.39219 11.6563 2.31719 11.0188Z"/>
<path d="M6.11718 1C7.66093 3.58125 9.19842 6.16875 10.7547 8.74375C10.9422 9.05625 10.9047 9.225 10.5859 9.4125C9.14842 10.2562 7.71718 11.1062 6.29843 11.975C6.06093 12.1187 5.87968 12.1062 5.64218 11.9687C4.19843 11.1125 2.75468 10.2625 1.29843 9.425C0.992177 9.25 0.910927 9.0875 1.10468 8.7625C2.63593 6.275 4.14218 3.775 5.66093 1.2875C5.72343 1.1875 5.80468 1.09375 5.87343 1C5.96093 1 6.03593 1 6.11718 1ZM5.72343 2.29375C5.69843 2.2875 5.66718 2.28125 5.64218 2.275C4.40468 4.3125 3.16718 6.35 1.88593 8.45625C2.02343 8.425 2.06718 8.41875 2.11093 8.4C3.24218 7.89375 4.37343 7.39375 5.49218 6.86875C5.60468 6.81875 5.71093 6.6125 5.71093 6.48125C5.72968 5.65625 5.72343 4.83125 5.72343 4C5.72343 3.425 5.72343 2.8625 5.72343 2.29375ZM9.90467 8.45625C9.92342 8.4375 9.93592 8.4125 9.95467 8.39375C8.73592 6.35625 7.52343 4.31875 6.30468 2.2875C6.22343 3.73125 6.21093 5.14375 6.23593 6.55C6.23593 6.66875 6.39218 6.84375 6.52343 6.9C7.32343 7.2875 8.13593 7.65 8.94843 8.01875C9.26718 8.16875 9.58592 8.30625 9.90467 8.45625ZM1.75468 9.10625C3.11093 9.9 4.38593 10.6437 5.69843 11.4125C5.69843 10.025 5.69843 8.70625 5.69843 7.33125C4.38593 7.925 3.10468 8.5 1.75468 9.10625ZM6.24218 11.4187C7.56093 10.6312 8.81092 9.8875 10.1234 9.10625C8.79842 8.5 7.54218 7.925 6.24218 7.33125C6.24218 8.71875 6.24218 10.0312 6.24218 11.4187Z" stroke-width="0.1"/>
<path d="M5.87969 17C5.31719 16.225 4.75469 15.45 4.19844 14.6688C3.19219 13.2563 2.18594 11.85 1.19219 10.425C1.10469 10.3 1.11719 10.1 1.07969 9.9375C1.24844 9.9625 1.44219 9.9375 1.57969 10.0125C2.94219 10.8 4.29844 11.5938 5.64219 12.4063C5.89844 12.5625 6.07344 12.55 6.31719 12.4C7.61719 11.6125 8.92969 10.85 10.2359 10.0813C10.3297 10.025 10.4172 9.94375 10.5109 9.925C10.6297 9.9 10.7547 9.9375 10.8734 9.94375C10.8609 10.0688 10.8734 10.1938 10.8359 10.3063C10.8047 10.4063 10.7234 10.4813 10.6609 10.5688C9.14219 12.7125 7.62969 14.85 6.11094 16.9937C6.03594 17 5.96094 17 5.87969 17ZM6.22344 15.8188C6.25469 15.8313 6.28594 15.8375 6.31719 15.85C7.43594 14.275 8.55469 12.7 9.66719 11.1313C9.64219 11.1063 9.61094 11.0813 9.58594 11.0563C8.51094 11.6875 7.44219 12.3188 6.37344 12.9563C6.30469 12.9938 6.22969 13.1 6.22969 13.1688C6.22344 14.05 6.22344 14.9313 6.22344 15.8188ZM2.31719 11.0188C2.29219 11.0375 2.27344 11.0563 2.24844 11.075C3.37969 12.6688 4.51094 14.2625 5.64219 15.85C5.72344 14.9313 5.72344 14.0438 5.71094 13.1625C5.71094 13.0813 5.61719 12.975 5.54219 12.9313C4.47344 12.2875 3.39219 11.6563 2.31719 11.0188Z" stroke="black" stroke-width="0.1"/>
</svg>
