<svg width="16" height="22" viewBox="0 0 16 22" xmlns="http://www.w3.org/2000/svg">
<path fill-rule="evenodd" clip-rule="evenodd" d="M15.781 12.6352C16.0507 12.2878 16.0734 11.8081 15.8375 11.4368L8.87716 0.482258C8.4686 -0.160753 7.5314 -0.160753 7.12284 0.482258L0.162548 11.4368C-0.0733509 11.8081 -0.0507473 12.2878 0.219014 12.6352L7.17931 21.598C7.59556 22.134 8.40444 22.134 8.82069 21.598L15.781 12.6352ZM2.20365 12.6466L7.17931 19.0538C7.59556 19.5898 8.40444 19.5898 8.82069 19.0538L13.7963 12.6467L8.40956 14.9588C8.14802 15.0711 7.85198 15.0711 7.59044 14.9588L2.20365 12.6466ZM13.7033 10.9873L8.87716 3.39163C8.4686 2.74862 7.5314 2.74862 7.12284 3.39163L2.29676 10.9872L7.5905 13.2595C7.85204 13.3717 8.14808 13.3717 8.40962 13.2595L13.7033 10.9873Z" />
</svg>
