<svg width="14" height="22" viewBox="0 0 14 22" xmlns="http://www.w3.org/2000/svg">
<path fill-rule="evenodd" clip-rule="evenodd" d="M6.99331 0C6.64045 0 6.29201 0.0781927 5.97298 0.228904L0.644664 3.03576C0.476524 3.11033 0.329856 3.22583 0.217977 3.3716C0.104174 3.51988 0.0300865 3.69462 0.00254569 3.87928L0 3.89635V18.0281L0.000540794 18.036C0.0141643 18.2355 0.0817609 18.4277 0.196254 18.5918C0.309219 18.7538 0.463678 18.8825 0.643594 18.9645L5.96479 21.7667L5.97405 21.7711C6.29308 21.9218 6.64152 22 6.99438 22C7.34725 22 7.69578 21.922 8.01481 21.7713L13.3443 18.9649C13.5256 18.8841 13.6817 18.7562 13.7967 18.5947C13.9134 18.4307 13.9834 18.2382 13.9993 18.0378L14 18.0286L13.9397 3.67956C13.8995 3.56934 13.8423 3.4656 13.7698 3.37225C13.6576 3.22772 13.5119 3.11245 13.3453 3.03639L8.02291 0.23328L8.01364 0.228904C7.69461 0.0781927 7.34618 0 6.99331 0ZM1.61988 3.99783L6.56863 1.39095C6.70337 1.33382 6.84814 1.30438 6.99438 1.30438C7.14062 1.30438 7.2854 1.33382 7.42013 1.39095L12.3686 3.99768L7.41987 6.6043C7.28513 6.66144 7.14036 6.69088 6.99411 6.69088C6.84787 6.69088 6.7031 6.66144 6.56836 6.6043L1.61988 3.99783ZM12.6905 9.55981L8.6498 7.43166L12.69 5.30352L12.6905 9.55981ZM1.30868 9.55393V5.30942L5.33815 7.43168L1.30868 9.55393ZM12.3686 10.8658L7.65019 8.38075V13.3511L12.3686 10.8658ZM1.61991 10.8665L6.33853 8.38118L6.33807 13.3516L1.61991 10.8665ZM8.01481 14.6349L12.6903 12.1722L12.6905 17.8276L7.76085 20.4326L7.75509 20.4361C7.52157 20.577 7.26037 20.6652 6.98969 20.6948L6.91017 20.6898C6.65853 20.6394 6.41744 20.5455 6.19773 20.4122L6.1914 20.4084L1.30814 17.8503V12.178L5.96479 14.6303L5.97405 14.6347C6.29308 14.7854 6.64152 14.8636 6.99438 14.8636C7.34725 14.8636 7.69578 14.7856 8.01481 14.6349Z" />
</svg>
