<svg width="10" height="16" viewBox="0 0 10 16" fill="none" xmlns="http://www.w3.org/2000/svg">
<path d="M9.89796 8C9.89796 9.7 9.89796 11.4 9.89796 13.2C9.89796 13.3 9.89796 13.3 9.79592 13.4C8.16327 14.3 6.63265 15.2 5 16C5 16 5 16 4.89796 16C3.26531 15.1 1.73469 14.2 0.102041 13.3C1.4445e-07 13.3 0 13.2 0 13.2C0 9.7 0 6.3 0 2.8C0 2.7 1.4445e-07 2.7 0.102041 2.7C1.73469 1.8 3.36735 0.9 4.89796 0C5 0 5 0 5.10204 0C6.73469 0.9 8.26531 1.8 9.89796 2.7C10 2.7 10 2.8 10 2.8C9.89796 4.5 9.89796 6.3 9.89796 8ZM1.02041 8.9C1.02041 10.2 1.02041 11.5 1.02041 12.8C1.02041 12.9 1.02041 12.9 1.12245 12.9C2.34694 13.6 3.67347 14.4 4.89796 15.1H5C6.22449 14.4 7.55102 13.6 8.77551 12.9L8.87755 12.8C8.87755 11.5 8.87755 10.3 8.87755 9C8.87755 9 8.87755 9 8.87755 8.9H8.77551C7.55102 9.6 6.22449 10.3 5 11C4.89796 11 4.89796 11 4.79592 11C3.67347 10.3 2.44898 9.6 1.02041 8.9C1.12245 8.9 1.12245 8.9 1.02041 8.9ZM1.53061 3C1.63265 3.1 1.63265 3.1 1.53061 3C2.65306 3.7 3.77551 4.3 4.89796 4.9H5C6.12245 4.3 7.2449 3.7 8.26531 3C8.26531 3 8.26531 3 8.36735 3C8.36735 3 8.36735 3 8.26531 3C7.14286 2.4 6.02041 1.7 5 1.1H4.89796C3.87755 1.7 2.7551 2.4 1.53061 3C1.63265 3 1.63265 3 1.53061 3ZM1.02041 7.2C2.04082 6.6 2.95918 6.1 3.97959 5.5C3.06122 5 2.04082 4.4 1.02041 3.9C1.02041 5 1.02041 6.1 1.02041 7.2ZM8.97959 3.9C7.95918 4.4 6.93878 5 6.02041 5.5C7.04082 6.1 7.95918 6.6 8.97959 7.2C8.97959 6.1 8.97959 5 8.97959 3.9ZM5.5102 9.7C6.53061 9.1 7.44898 8.6 8.46939 8C7.44898 7.4 6.53061 6.9 5.5102 6.3C5.5102 7.5 5.5102 8.6 5.5102 9.7ZM1.53061 8C2.55102 8.6 3.46939 9.1 4.4898 9.7C4.4898 8.6 4.4898 7.5 4.4898 6.3C3.46939 6.9 2.55102 7.5 1.53061 8Z" />
</svg>
