<svg width="16" height="8" viewBox="0 0 16 8" fill="none" xmlns="http://www.w3.org/2000/svg">
<path fill-rule="evenodd" clip-rule="evenodd" d="M0.90625 7.37775C1.51953 7.79257 2.30469 8 3.26367 8C4.42383 8 5.34961 7.75183 6.04297 7.25552C6.73438 6.75186 7.22266 5.99258 7.50391 4.97775C7.58594 4.67697 7.66211 4.37186 7.73242 4.06244C7.80859 3.73175 7.87695 3.39612 7.93945 3.05554C7.96289 2.91714 7.98047 2.79266 7.99023 2.68207C7.99609 2.60321 8 2.5314 8 2.46664C8 1.94815 7.85938 1.50366 7.57617 1.13333C7.29492 0.755524 6.9082 0.47403 6.41602 0.288849C5.92578 0.096283 5.36914 0 4.75 0C2.46875 0 1.05469 1.01852 0.507812 3.05554C0.314453 3.80368 0.166016 4.44446 0.0605469 4.97775C0.0195312 5.21478 0 5.41483 0 5.57779C0 6.35556 0.302734 6.95554 0.90625 7.37775ZM4.58008 6.03333C4.26562 6.27777 3.88281 6.39999 3.43164 6.39999C2.6582 6.39999 2.27148 6.05927 2.27148 5.37775C2.27148 5.21478 2.28711 5.05923 2.32031 4.91113C2.46484 4.1926 2.60938 3.58517 2.75586 3.08887C2.89258 2.58517 3.11719 2.21112 3.43164 1.96661C3.75391 1.72217 4.14062 1.59995 4.5918 1.59995C5.35742 1.59995 5.74023 1.93701 5.74023 2.61105C5.74023 2.7233 5.73242 2.83377 5.7168 2.94244L5.69141 3.08887C5.63867 3.37723 5.57227 3.69312 5.49023 4.03647C5.42578 4.31052 5.35156 4.60208 5.26953 4.91113C5.13281 5.41483 4.90234 5.78888 4.58008 6.03333Z"/>
<path fill-rule="evenodd" clip-rule="evenodd" d="M8.04102 7.91998C8.08984 7.97333 8.15625 8 8.24219 8H9.83984C9.91797 8 9.99414 7.97333 10.0645 7.91998C10.1348 7.86661 10.1777 7.7981 10.1934 7.71429L10.7344 5.21143H12.3203C13.3477 5.21143 14.1543 5.00189 14.7422 4.58286C15.3379 4.16382 15.7344 3.51617 15.9297 2.63995C15.9766 2.4343 16 2.23615 16 2.04568C16 1.38284 15.7344 0.876221 15.2012 0.525696C14.6758 0.175232 13.9785 0 13.1074 0H9.98242C9.90234 0 9.82812 0.0266724 9.75781 0.0799561C9.6875 0.133331 9.64453 0.201904 9.62891 0.285706L8.00586 7.71429C7.99023 7.79047 8.00195 7.85901 8.04102 7.91998ZM13.2617 3.3714C13.0176 3.54663 12.7324 3.63428 12.4023 3.63428H11.0508L11.498 1.58859H12.9082C13.2305 1.58859 13.457 1.64951 13.5898 1.77142C13.7227 1.88568 13.791 2.05331 13.791 2.27429C13.791 2.37332 13.7773 2.48758 13.7539 2.61713C13.6758 2.94476 13.5117 3.19617 13.2617 3.3714Z"/>
</svg>
