<svg width="22" height="22" viewBox="0 0 22 22" fill="none" xmlns="http://www.w3.org/2000/svg">
<path fill-rule="evenodd" clip-rule="evenodd" d="M10.2589 0.0118933C7.55888 0.218829 5.11374 1.3305 3.23408 3.20574C2.32901 4.10868 1.67092 5.02983 1.11837 6.16715C0.621546 7.18977 0.309595 8.20849 0.125384 9.40991C0.0327707 10.0139 0.000971568 10.4003 1.25288e-05 10.9326C-0.00151065 11.7993 0.135952 12.8798 0.35687 13.7376C0.970185 16.119 2.40045 18.2686 4.36114 19.7559C4.9215 20.1809 5.45456 20.51 6.11246 20.8371C7.50198 21.5279 8.89358 21.8833 10.6244 21.9894C11.4737 22.0414 12.6853 21.8998 13.813 21.6165C16.6886 20.8941 19.2722 18.8455 20.708 16.1492C21.3682 14.9093 21.7547 13.6315 21.9474 12.0509C22.0038 11.5887 22.0173 10.7412 21.9758 10.2746C21.7665 7.9254 21.0709 6.07526 19.7353 4.31548C19.4334 3.91785 19.1897 3.64285 18.7511 3.20525C18.2999 2.75506 18.0542 2.53886 17.6182 2.20861C15.9982 0.981545 14.1238 0.250993 12.0469 0.0371586C11.7187 0.00337748 10.58 -0.0127141 10.2589 0.0118933ZM11.6751 1.51507C13.286 1.62814 14.865 2.16229 16.2012 3.04612C17.4442 3.86834 18.5106 5.00064 19.2418 6.27464C19.9068 7.43333 20.2753 8.60539 20.4508 10.1196C20.5593 11.0567 20.4946 11.9914 20.2434 13.1171C19.9112 14.6054 19.2487 15.9251 18.2257 17.1362C17.9822 17.4245 17.442 17.9669 17.1508 18.2155C16.0789 19.1309 14.795 19.8114 13.5121 20.1442C12.6502 20.3678 11.7852 20.4882 11.0299 20.4898C10.5765 20.4908 10.4482 20.4812 9.78804 20.3973C8.70582 20.2596 7.77805 19.9848 6.83644 19.5231C4.32549 18.2918 2.47781 16.0099 1.7974 13.2998C1.61118 12.558 1.46738 11.3466 1.49634 10.7634C1.57182 9.24317 1.96119 7.75247 2.59121 6.57183C3.54697 4.78073 4.97259 3.38986 6.77062 2.49431C7.91882 1.92242 9.09129 1.60393 10.3999 1.50843C10.6082 1.49324 11.4246 1.49749 11.6751 1.51507ZM8.43484 6.46979C7.54884 6.51419 6.78508 6.7697 6.10855 7.24807C5.9066 7.39085 5.53916 7.73845 5.37485 7.94213C5.02004 8.38195 4.71049 8.98724 4.52386 9.60611C4.36236 10.1416 4.21153 10.7958 4.13782 11.2805C4.08629 11.6193 4.06647 12.313 4.09925 12.6309C4.13597 12.9869 4.22955 13.319 4.37282 13.6016C4.39828 13.6518 4.48849 13.7973 4.5733 13.9247C4.87287 14.3752 5.28684 14.7225 5.85807 15.0025C6.50318 15.3188 7.04286 15.4186 8.01173 15.4008C8.5642 15.3906 8.73991 15.3695 9.1336 15.2659C9.44271 15.1846 9.68558 15.0951 9.98209 14.953L10.213 14.8423L10.3249 14.9354C10.5399 15.1142 10.8355 15.2473 11.1479 15.3058C11.3626 15.346 12.289 15.3637 12.5805 15.3332C13.0031 15.289 13.3438 15.1581 13.6214 14.9334C13.9785 14.6443 14.1782 14.2598 14.3418 13.5459C14.3846 13.359 14.4016 13.3135 14.4328 13.302C14.4539 13.2942 14.58 13.2822 14.7131 13.2753C15.3859 13.2405 15.9241 13.1153 16.3892 12.8856C16.9715 12.598 17.4744 12.1076 17.8238 11.4869C18.037 11.1082 18.2343 10.5775 18.3306 10.1243C18.3746 9.91701 18.3805 9.84713 18.3804 9.5321C18.3803 9.12758 18.3512 8.94636 18.2307 8.60022C17.9277 7.72995 17.1808 7.03239 16.2316 6.73317C15.7954 6.59568 15.4618 6.55466 14.6122 6.5341C13.6215 6.51013 12.6024 6.52175 12.4026 6.55929C11.9704 6.64053 11.6693 6.79008 11.3837 7.06542L11.2486 7.19568L11.0897 7.09003C10.6196 6.77731 10.0107 6.55103 9.4973 6.49821C9.28318 6.47618 8.64699 6.45917 8.43484 6.46979ZM9.44497 8.00913C10.1048 8.12467 10.6936 8.57589 10.9073 9.12991C11.0139 9.40621 11.0288 9.48894 11.0274 9.79528C11.0264 10.0122 11.0144 10.1445 10.9755 10.3686C10.9006 10.7999 10.7648 11.4115 10.6728 11.7315C10.3395 12.8921 9.82639 13.4836 8.90496 13.7693C8.56768 13.8739 8.48138 13.8864 8.02595 13.8973C7.31165 13.9144 6.95045 13.86 6.56846 13.6775C6.17749 13.4909 5.9771 13.3279 5.79432 13.048C5.60915 12.7644 5.57718 12.6032 5.59106 12.0229C5.60266 11.5378 5.64554 11.2612 5.81251 10.5942C5.93613 10.1005 6.02338 9.82446 6.13937 9.5603C6.38471 9.00157 6.75693 8.57757 7.24074 8.30572C7.53693 8.13927 7.98373 8.00821 8.34646 7.98137C8.63925 7.95967 9.25085 7.97514 9.44497 8.00913ZM14.5016 8.03724C15.2279 8.0557 15.4357 8.07246 15.6652 8.13117C16.233 8.27632 16.6678 8.65376 16.8244 9.13733C16.9219 9.43841 16.9028 9.75908 16.7622 10.1794C16.6203 10.6037 16.4373 10.9275 16.1972 11.1788C15.8611 11.5306 15.5294 11.6798 14.9284 11.7493C14.6753 11.7785 13.8363 11.8155 13.4145 11.8159C13.2884 11.816 13.1805 11.8238 13.1747 11.8332C13.1689 11.8425 13.1087 12.1195 13.0409 12.4488C12.8583 13.3357 12.7733 13.6565 12.6993 13.7382C12.6125 13.8341 12.5919 13.837 11.9889 13.837C11.3975 13.837 11.2975 13.8254 11.2749 13.7541C11.2446 13.6588 11.4045 12.8089 11.8551 10.6694C12.2375 8.85377 12.3739 8.23945 12.4068 8.18298C12.4532 8.10369 12.5345 8.05904 12.6683 8.03951C12.8205 8.01731 13.676 8.01624 14.5016 8.03724ZM8.48185 9.19245C8.028 9.28862 7.73461 9.54406 7.56095 9.99425C7.45771 10.2618 7.32032 10.8042 7.21063 11.377C7.14634 11.7127 7.13649 12.1453 7.18967 12.2976C7.29114 12.5882 7.61996 12.7316 8.06819 12.6809C8.29446 12.6553 8.44394 12.6042 8.59919 12.4994C8.871 12.3161 9.04405 11.9826 9.21224 11.318C9.47914 10.2634 9.5156 9.70118 9.33483 9.42811C9.19833 9.22189 8.82701 9.1193 8.48185 9.19245ZM13.7015 9.24371C13.697 9.25757 13.6501 9.48041 13.5972 9.73889C13.5443 9.99737 13.4847 10.285 13.4646 10.378C13.4155 10.6058 13.4165 10.625 13.4785 10.6405C13.6293 10.6784 14.4282 10.6356 14.6975 10.5753C14.9816 10.5116 15.1944 10.2608 15.2611 9.91112C15.2964 9.72554 15.297 9.55455 15.2624 9.48887C15.2253 9.41822 15.0842 9.28522 15.0165 9.257C14.9307 9.22125 13.7128 9.20894 13.7015 9.24371Z" />
</svg>
